<svg version="1.1" viewBox="0.0 0.0 949.0 188.0" fill="none" stroke="none" stroke-linecap="square" stroke-miterlimit="10" width="949" height="188" xmlns:xlink="http://www.w3.org/1999/xlink" xmlns="http://www.w3.org/2000/svg"><path fill="#ffffff" d="M0 0L949.0 0L949.0 188.0L0 188.0L0 0Z" fill-rule="nonzero"/><path stroke="#333333" stroke-width="1.0" stroke-linecap="butt" d="M99.5 9.5L99.5 158.5" fill-rule="nonzero"/><path stroke="#cccccc" stroke-width="1.0" stroke-linecap="butt" d="M379.5 9.5L379.5 158.5" fill-rule="nonzero"/><path stroke="#cccccc" stroke-width="1.0" stroke-linecap="butt" d="M659.5 9.5L659.5 158.5" fill-rule="nonzero"/><path stroke="#cccccc" stroke-width="1.0" stroke-linecap="butt" d="M939.5 9.5L939.5 158.5" fill-rule="nonzero"/><clipPath id="id_0"><path d="M99.4 9.4L939.6 9.4L939.6 158.6L99.4 158.6L99.4 9.4Z" clip-rule="nonzero"/></clipPath><path stroke="#000000" stroke-width="2.0" stroke-linecap="butt" stroke-opacity="0.0" clip-path="url(#id_0)" d="M99.0 73.0L99.0 32.0L830.0 32.0C831.10455 32.0 832.0 32.89543 832.0 34.0L832.0 71.0C832.0 72.10457 831.10455 73.0 830.0 73.0Z" fill-rule="nonzero"/><path fill="#ea4335" clip-path="url(#id_0)" d="M99.0 73.0L99.0 32.0L830.0 32.0C831.10455 32.0 832.0 32.89543 832.0 34.0L832.0 71.0C832.0 72.10457 831.10455 73.0 830.0 73.0Z" fill-rule="nonzero"/><path stroke="#000000" stroke-width="2.0" stroke-linecap="butt" stroke-opacity="0.0" clip-path="url(#id_0)" d="M99.0 137.0L99.0 96.0L681.0 96.0C682.10455 96.0 683.0 96.89543 683.0 98.0L683.0 135.0C683.0 136.10457 682.10455 137.0 681.0 137.0Z" fill-rule="nonzero"/><path fill="#ea4335" clip-path="url(#id_0)" d="M99.0 137.0L99.0 96.0L681.0 96.0C682.10455 96.0 683.0 96.89543 683.0 98.0L683.0 135.0C683.0 136.10457 682.10455 137.0 681.0 137.0Z" fill-rule="nonzero"/><path stroke="#ea4335" stroke-width="3.0" stroke-linejoin="round" stroke-linecap="round" d="M706.0751 60.546875L706.0751 64.5L688.5751 64.5L688.5751 61.125L696.8407 52.25Q698.0907 50.859375 698.80945 49.796875Q699.5438 48.734375 699.8563 47.890625Q700.18445 47.03125 700.18445 46.25Q700.18445 45.09375 699.7938 44.265625Q699.4188 43.421875 698.6688 42.96875Q697.9188 42.515625 696.8251 42.515625Q695.6688 42.515625 694.8251 43.078125Q693.99695 43.640625 693.55945 44.640625Q693.1376 45.640625 693.1376 46.90625L688.05945 46.90625Q688.05945 44.625 689.1376 42.71875Q690.2313 40.796875 692.2157 39.671875Q694.2157 38.53125 696.93445 38.53125Q699.62195 38.53125 701.4813 39.40625Q703.3407 40.28125 704.2938 41.90625Q705.24695 43.53125 705.24695 45.78125Q705.24695 47.046875 704.8407 48.25Q704.43445 49.453125 703.68445 50.640625Q702.9501 51.828125 701.8876 53.046875Q700.8407 54.25 699.55945 55.546875L695.1063 60.546875L706.0751 60.546875ZM710.0282 62.0625Q710.0282 60.9375 710.80945 60.1875Q711.5907 59.421875 712.8876 59.421875Q714.18445 59.421875 714.9657 60.1875Q715.7626 60.9375 715.7626 62.0625Q715.7626 63.1875 714.9657 63.9375Q714.18445 64.6875 712.8876 64.6875Q711.5907 64.6875 710.80945 63.9375Q710.0282 63.1875 710.0282 62.0625ZM732.62195 38.640625L733.37195 38.640625L733.37195 42.6875L733.0751 42.6875Q731.05945 42.6875 729.49695 43.28125Q727.93445 43.875 726.8563 44.984375Q725.7782 46.078125 725.2001 47.625Q724.6376 49.171875 724.6376 51.09375L724.6376 55.34375Q724.6376 56.71875 724.9032 57.765625Q725.1688 58.796875 725.68445 59.5Q726.2157 60.1875 726.9188 60.53125Q727.62195 60.875 728.49695 60.875Q729.3251 60.875 729.99695 60.53125Q730.68445 60.171875 731.1532 59.53125Q731.6376 58.890625 731.8876 58.03125Q732.1532 57.15625 732.1532 56.109375Q732.1532 55.078125 731.8876 54.203125Q731.6376 53.3125 731.1376 52.671875Q730.6532 52.03125 729.9501 51.6875Q729.24695 51.328125 728.37195 51.328125Q727.18445 51.328125 726.2782 51.890625Q725.37195 52.4375 724.8563 53.296875Q724.3563 54.15625 724.30945 55.109375L722.7782 54.125Q722.8407 52.78125 723.3563 51.5625Q723.87195 50.34375 724.7938 49.40625Q725.7157 48.46875 727.0126 47.9375Q728.3251 47.390625 729.9501 47.390625Q731.74695 47.390625 733.1063 48.078125Q734.4813 48.765625 735.3876 49.96875Q736.30945 51.15625 736.7626 52.71875Q737.2157 54.28125 737.2157 56.0625Q737.2157 57.921875 736.6063 59.53125Q735.99695 61.125 734.8563 62.328125Q733.7313 63.515625 732.1532 64.1875Q730.5751 64.859375 728.6063 64.859375Q726.55945 64.859375 724.9032 64.109375Q723.24695 63.359375 722.0438 62.015625Q720.8563 60.65625 720.2157 58.796875Q719.5751 56.921875 719.5751 54.703125L719.5751 52.734375Q719.5751 49.640625 720.4657 47.078125Q721.37195 44.5 723.0751 42.609375Q724.7938 40.71875 727.2001 39.6875Q729.6063 38.640625 732.62195 38.640625ZM752.9032 38.859375L752.9032 64.5L747.8407 64.5L747.8407 44.6875L741.7626 46.625L741.7626 42.625L752.3563 38.859375L752.9032 38.859375ZM778.9501 38.90625L778.9501 41.625L769.05945 64.5L763.7157 64.5L773.6063 42.859375L760.87195 42.859375L760.87195 38.90625L778.9501 38.90625ZM794.7001 51.453125Q797.0126 47.140625 798.3876 40.734375L802.05945 41.78125Q803.5126 43.234375 801.8251 43.484375Q800.74695 49.21875 798.1532 53.9375L794.7001 51.453125ZM812.5907 52.546875Q810.2626 46.34375 807.43445 42.109375L810.6063 40.125Q814.49695 45.109375 816.2157 50.25L812.5907 52.546875ZM792.3407 43.546875L796.8407 43.546875L796.8407 47.34375L792.3407 47.34375L792.3407 50.0625Q795.05945 51.234375 797.5438 53.875L795.24695 57.703125Q793.0907 55.375 792.3407 54.859375L792.3407 67.734375L788.4032 67.734375L788.4032 57.234375Q788.18445 57.765625 785.18445 61.4375L782.3251 58.1875Q786.4813 53.125 788.0907 47.34375L783.2001 47.34375L783.2001 43.546875L788.4032 43.546875L788.4032 40.09375L784.30945 40.5L783.4813 36.96875Q789.5751 36.65625 795.93445 34.84375L796.9501 37.734375Q797.6376 39.796875 795.37195 38.796875Q793.7157 39.171875 792.3407 39.390625L792.3407 43.546875ZM806.1532 34.96875Q808.74695 35.296875 806.8251 36.671875L806.8251 55.78125Q806.8251 58.59375 804.0126 58.59375L801.6063 58.59375L800.6063 54.796875L802.8876 54.796875Q802.8876 54.796875 802.8876 54.796875L802.8876 34.96875L806.1532 34.96875ZM813.05945 53.765625Q814.8251 55.1875 812.68445 55.453125Q807.9032 65.296875 795.7157 67.25L794.74695 63.34375Q805.87195 61.328125 809.93445 51.875L813.05945 53.765625Z" fill-rule="nonzero"/><path fill="#ffffff" d="M706.0751 60.546875L706.0751 64.5L688.5751 64.5L688.5751 61.125L696.8407 52.25Q698.0907 50.859375 698.80945 49.796875Q699.5438 48.734375 699.8563 47.890625Q700.18445 47.03125 700.18445 46.25Q700.18445 45.09375 699.7938 44.265625Q699.4188 43.421875 698.6688 42.96875Q697.9188 42.515625 696.8251 42.515625Q695.6688 42.515625 694.8251 43.078125Q693.99695 43.640625 693.55945 44.640625Q693.1376 45.640625 693.1376 46.90625L688.05945 46.90625Q688.05945 44.625 689.1376 42.71875Q690.2313 40.796875 692.2157 39.671875Q694.2157 38.53125 696.93445 38.53125Q699.62195 38.53125 701.4813 39.40625Q703.3407 40.28125 704.2938 41.90625Q705.24695 43.53125 705.24695 45.78125Q705.24695 47.046875 704.8407 48.25Q704.43445 49.453125 703.68445 50.640625Q702.9501 51.828125 701.8876 53.046875Q700.8407 54.25 699.55945 55.546875L695.1063 60.546875L706.0751 60.546875ZM710.0282 62.0625Q710.0282 60.9375 710.80945 60.1875Q711.5907 59.421875 712.8876 59.421875Q714.18445 59.421875 714.9657 60.1875Q715.7626 60.9375 715.7626 62.0625Q715.7626 63.1875 714.9657 63.9375Q714.18445 64.6875 712.8876 64.6875Q711.5907 64.6875 710.80945 63.9375Q710.0282 63.1875 710.0282 62.0625ZM732.62195 38.640625L733.37195 38.640625L733.37195 42.6875L733.0751 42.6875Q731.05945 42.6875 729.49695 43.28125Q727.93445 43.875 726.8563 44.984375Q725.7782 46.078125 725.2001 47.625Q724.6376 49.171875 724.6376 51.09375L724.6376 55.34375Q724.6376 56.71875 724.9032 57.765625Q725.1688 58.796875 725.68445 59.5Q726.2157 60.1875 726.9188 60.53125Q727.62195 60.875 728.49695 60.875Q729.3251 60.875 729.99695 60.53125Q730.68445 60.171875 731.1532 59.53125Q731.6376 58.890625 731.8876 58.03125Q732.1532 57.15625 732.1532 56.109375Q732.1532 55.078125 731.8876 54.203125Q731.6376 53.3125 731.1376 52.671875Q730.6532 52.03125 729.9501 51.6875Q729.24695 51.328125 728.37195 51.328125Q727.18445 51.328125 726.2782 51.890625Q725.37195 52.4375 724.8563 53.296875Q724.3563 54.15625 724.30945 55.109375L722.7782 54.125Q722.8407 52.78125 723.3563 51.5625Q723.87195 50.34375 724.7938 49.40625Q725.7157 48.46875 727.0126 47.9375Q728.3251 47.390625 729.9501 47.390625Q731.74695 47.390625 733.1063 48.078125Q734.4813 48.765625 735.3876 49.96875Q736.30945 51.15625 736.7626 52.71875Q737.2157 54.28125 737.2157 56.0625Q737.2157 57.921875 736.6063 59.53125Q735.99695 61.125 734.8563 62.328125Q733.7313 63.515625 732.1532 64.1875Q730.5751 64.859375 728.6063 64.859375Q726.55945 64.859375 724.9032 64.109375Q723.24695 63.359375 722.0438 62.015625Q720.8563 60.65625 720.2157 58.796875Q719.5751 56.921875 719.5751 54.703125L719.5751 52.734375Q719.5751 49.640625 720.4657 47.078125Q721.37195 44.5 723.0751 42.609375Q724.7938 40.71875 727.2001 39.6875Q729.6063 38.640625 732.62195 38.640625ZM752.9032 38.859375L752.9032 64.5L747.8407 64.5L747.8407 44.6875L741.7626 46.625L741.7626 42.625L752.3563 38.859375L752.9032 38.859375ZM778.9501 38.90625L778.9501 41.625L769.05945 64.5L763.7157 64.5L773.6063 42.859375L760.87195 42.859375L760.87195 38.90625L778.9501 38.90625Z" fill-rule="nonzero"/><path fill="#ffffff" d="M794.7001 51.453125Q797.0126 47.140625 798.3876 40.734375L802.05945 41.78125Q803.5126 43.234375 801.8251 43.484375Q800.74695 49.21875 798.1532 53.9375L794.7001 51.453125ZM812.5907 52.546875Q810.2626 46.34375 807.43445 42.109375L810.6063 40.125Q814.49695 45.109375 816.2157 50.25L812.5907 52.546875ZM792.3407 43.546875L796.8407 43.546875L796.8407 47.34375L792.3407 47.34375L792.3407 50.0625Q795.05945 51.234375 797.5438 53.875L795.24695 57.703125Q793.0907 55.375 792.3407 54.859375L792.3407 67.734375L788.4032 67.734375L788.4032 57.234375Q788.18445 57.765625 785.18445 61.4375L782.3251 58.1875Q786.4813 53.125 788.0907 47.34375L783.2001 47.34375L783.2001 43.546875L788.4032 43.546875L788.4032 40.09375L784.30945 40.5L783.4813 36.96875Q789.5751 36.65625 795.93445 34.84375L796.9501 37.734375Q797.6376 39.796875 795.37195 38.796875Q793.7157 39.171875 792.3407 39.390625L792.3407 43.546875ZM806.1532 34.96875Q808.74695 35.296875 806.8251 36.671875L806.8251 55.78125Q806.8251 58.59375 804.0126 58.59375L801.6063 58.59375L800.6063 54.796875L802.8876 54.796875Q802.8876 54.796875 802.8876 54.796875L802.8876 34.96875L806.1532 34.96875ZM813.05945 53.765625Q814.8251 55.1875 812.68445 55.453125Q807.9032 65.296875 795.7157 67.25L794.74695 63.34375Q805.87195 61.328125 809.93445 51.875L813.05945 53.765625Z" fill-rule="nonzero"/><path stroke="#ea4335" stroke-width="3.0" stroke-linejoin="round" stroke-linecap="round" d="M556.5195 124.546875L556.5195 128.5L539.0195 128.5L539.0195 125.125L547.2851 116.25Q548.5351 114.859375 549.25385 113.796875Q549.9882 112.734375 550.3007 111.890625Q550.62885 111.03125 550.62885 110.25Q550.62885 109.09375 550.2382 108.265625Q549.8632 107.421875 549.1132 106.96875Q548.3632 106.515625 547.2695 106.515625Q546.1132 106.515625 545.2695 107.078125Q544.44135 107.640625 544.00385 108.640625Q543.582 109.640625 543.582 110.90625L538.50385 110.90625Q538.50385 108.625 539.582 106.71875Q540.6757 104.796875 542.6601 103.671875Q544.6601 102.53125 547.37885 102.53125Q550.06635 102.53125 551.9257 103.40625Q553.7851 104.28125 554.7382 105.90625Q555.69135 107.53125 555.69135 109.78125Q555.69135 111.046875 555.2851 112.25Q554.87885 113.453125 554.12885 114.640625Q553.3945 115.828125 552.332 117.046875Q551.2851 118.25 550.00385 119.546875L545.5507 124.546875L556.5195 124.546875ZM560.4726 126.0625Q560.4726 124.9375 561.25385 124.1875Q562.0351 123.421875 563.332 123.421875Q564.62885 123.421875 565.4101 124.1875Q566.207 124.9375 566.207 126.0625Q566.207 127.1875 565.4101 127.9375Q564.62885 128.6875 563.332 128.6875Q562.0351 128.6875 561.25385 127.9375Q560.4726 127.1875 560.4726 126.0625ZM587.2382 113.453125L587.2382 117.875Q587.2382 120.765625 586.6132 122.859375Q586.00385 124.9375 584.8476 126.265625Q583.707 127.578125 582.1132 128.21875Q580.5351 128.85938 578.6132 128.85938Q577.06635 128.85938 575.7226 128.46875Q574.3945 128.0625 573.332 127.21875Q572.2695 126.375 571.50385 125.078125Q570.7382 123.78125 570.332 122.0Q569.9257 120.203125 569.9257 117.875L569.9257 113.453125Q569.9257 110.5625 570.5507 108.5Q571.1757 106.4375 572.31635 105.125Q573.4726 103.796875 575.0507 103.171875Q576.6445 102.546875 578.56635 102.546875Q580.1132 102.546875 581.44135 102.953125Q582.7695 103.34375 583.8476 104.171875Q584.9257 105.0 585.6757 106.296875Q586.4257 107.578125 586.832 109.375Q587.2382 111.15625 587.2382 113.453125ZM582.1601 118.546875L582.1601 112.765625Q582.1601 111.375 582.00385 110.34375Q581.8632 109.296875 581.56635 108.578125Q581.2695 107.84375 580.81635 107.390625Q580.37885 106.9375 579.81635 106.734375Q579.25385 106.515625 578.56635 106.515625Q577.707 106.515625 577.0507 106.84375Q576.3945 107.171875 575.9257 107.90625Q575.4726 108.640625 575.2382 109.84375Q575.00385 111.046875 575.00385 112.765625L575.00385 118.546875Q575.00385 119.9375 575.1445 121.0Q575.3007 122.046875 575.6132 122.796875Q575.9257 123.546875 576.3476 124.015625Q576.7851 124.46875 577.3476 124.6875Q577.9257 124.890625 578.6132 124.890625Q579.457 124.890625 580.1132 124.546875Q580.7695 124.203125 581.2382 123.46875Q581.707 122.71875 581.9257 121.515625Q582.1601 120.296875 582.1601 118.546875ZM608.25385 121.484375Q608.25385 123.890625 607.12885 125.546875Q606.00385 127.1875 604.0351 128.03125Q602.082 128.85938 599.6132 128.85938Q597.12885 128.85938 595.1601 128.03125Q593.19135 127.1875 592.0507 125.546875Q590.9101 123.890625 590.9101 121.484375Q590.9101 119.875 591.5507 118.5625Q592.207 117.25 593.37885 116.3125Q594.5507 115.375 596.12885 114.875Q597.707 114.359375 599.56635 114.359375Q602.06635 114.359375 604.0351 115.25Q606.00385 116.125 607.12885 117.734375Q608.25385 119.328125 608.25385 121.484375ZM603.1601 121.15625Q603.1601 119.96875 602.707 119.125Q602.2695 118.265625 601.457 117.8125Q600.6445 117.359375 599.56635 117.359375Q598.50385 117.359375 597.69135 117.8125Q596.87885 118.265625 596.4257 119.125Q595.9882 119.96875 595.9882 121.15625Q595.9882 122.3125 596.4257 123.15625Q596.87885 124.0 597.69135 124.453125Q598.5195 124.890625 599.6132 124.890625Q600.69135 124.890625 601.4882 124.453125Q602.3007 124.0 602.7226 123.15625Q603.1601 122.3125 603.1601 121.15625ZM607.707 109.6875Q607.707 111.640625 606.6757 113.140625Q605.6445 114.640625 603.8007 115.484375Q601.957 116.328125 599.6132 116.328125Q597.2382 116.328125 595.3945 115.484375Q593.5507 114.640625 592.50385 113.140625Q591.4726 111.640625 591.4726 109.6875Q591.4726 107.375 592.5195 105.78125Q593.56635 104.1875 595.3945 103.359375Q597.2382 102.53125 599.56635 102.53125Q601.94135 102.53125 603.7695 103.359375Q605.6132 104.1875 606.6601 105.78125Q607.707 107.375 607.707 109.6875ZM602.6445 109.921875Q602.6445 108.875 602.2695 108.125Q601.9101 107.359375 601.2226 106.9375Q600.5507 106.515625 599.56635 106.515625Q598.62885 106.515625 597.94135 106.921875Q597.2695 107.3125 596.9101 108.078125Q596.5507 108.84375 596.5507 109.921875Q596.5507 110.953125 596.9101 111.734375Q597.2695 112.515625 597.957 112.96875Q598.6445 113.40625 599.6132 113.40625Q600.582 113.40625 601.25385 112.96875Q601.9257 112.515625 602.2851 111.734375Q602.6445 110.953125 602.6445 109.921875ZM617.19135 113.5L619.9101 113.5Q621.207 113.5 622.0507 113.0625Q622.8945 112.609375 623.3007 111.796875Q623.7226 110.96875 623.7226 109.890625Q623.7226 108.90625 623.332 108.140625Q622.957 107.375 622.1757 106.953125Q621.4101 106.515625 620.2382 106.515625Q619.3007 106.515625 618.50385 106.890625Q617.7226 107.25 617.2382 107.921875Q616.7695 108.578125 616.7695 109.53125L611.69135 109.53125Q611.69135 107.421875 612.81635 105.859375Q613.957 104.296875 615.87885 103.421875Q617.8007 102.53125 620.0976 102.53125Q622.707 102.53125 624.6445 103.375Q626.5976 104.203125 627.69135 105.828125Q628.7851 107.4375 628.7851 109.828125Q628.7851 111.046875 628.2226 112.1875Q627.6601 113.3125 626.6132 114.21875Q625.56635 115.125 624.06635 115.65625Q622.582 116.1875 620.707 116.1875L617.19135 116.1875L617.19135 113.5ZM617.19135 117.359375L617.19135 114.734375L620.707 114.734375Q622.8007 114.734375 624.37885 115.21875Q625.9726 115.6875 627.0351 116.578125Q628.1132 117.453125 628.6601 118.671875Q629.207 119.875 629.207 121.328125Q629.207 123.125 628.5195 124.53125Q627.832 125.921875 626.582 126.890625Q625.3476 127.84375 623.69135 128.35938Q622.0507 128.85938 620.0976 128.85938Q618.4882 128.85938 616.9257 128.40625Q615.3632 127.953125 614.1132 127.046875Q612.8632 126.140625 612.1132 124.765625Q611.3632 123.390625 611.3632 121.484375L616.44135 121.484375Q616.44135 122.46875 616.9257 123.25Q617.4257 124.015625 618.2851 124.453125Q619.1601 124.890625 620.2382 124.890625Q621.457 124.890625 622.31635 124.453125Q623.19135 124.0 623.6601 123.1875Q624.12885 122.359375 624.12885 121.28125Q624.12885 119.875 623.6132 119.015625Q623.0976 118.15625 622.1445 117.765625Q621.207 117.359375 619.9101 117.359375L617.19135 117.359375ZM645.1445 115.453125Q647.457 111.140625 648.832 104.734375L652.50385 105.78125Q653.957 107.234375 652.2695 107.484375Q651.19135 113.21875 648.5976 117.9375L645.1445 115.453125ZM663.0351 116.546875Q660.707 110.34375 657.87885 106.109375L661.0507 104.125Q664.94135 109.109375 666.6601 114.25L663.0351 116.546875ZM642.7851 107.546875L647.2851 107.546875L647.2851 111.34375L642.7851 111.34375L642.7851 114.0625Q645.50385 115.234375 647.9882 117.875L645.69135 121.703125Q643.5351 119.375 642.7851 118.859375L642.7851 131.73438L638.8476 131.73438L638.8476 121.234375Q638.62885 121.765625 635.62885 125.4375L632.7695 122.1875Q636.9257 117.125 638.5351 111.34375L633.6445 111.34375L633.6445 107.546875L638.8476 107.546875L638.8476 104.09375L634.75385 104.5L633.9257 100.96875Q640.0195 100.65625 646.37885 98.84375L647.3945 101.734375Q648.082 103.796875 645.81635 102.796875Q644.1601 103.171875 642.7851 103.390625L642.7851 107.546875ZM656.5976 98.96875Q659.19135 99.296875 657.2695 100.671875L657.2695 119.78125Q657.2695 122.59375 654.457 122.59375L652.0507 122.59375L651.0507 118.796875L653.332 118.796875Q653.332 118.796875 653.332 118.796875L653.332 98.96875L656.5976 98.96875ZM663.50385 117.765625Q665.2695 119.1875 663.12885 119.453125Q658.3476 129.29688 646.1601 131.25L645.19135 127.34375Q656.31635 125.328125 660.37885 115.875L663.50385 117.765625Z" fill-rule="nonzero"/><path fill="#ffffff" d="M556.5195 124.546875L556.5195 128.5L539.0195 128.5L539.0195 125.125L547.2851 116.25Q548.5351 114.859375 549.25385 113.796875Q549.9882 112.734375 550.3007 111.890625Q550.62885 111.03125 550.62885 110.25Q550.62885 109.09375 550.2382 108.265625Q549.8632 107.421875 549.1132 106.96875Q548.3632 106.515625 547.2695 106.515625Q546.1132 106.515625 545.2695 107.078125Q544.44135 107.640625 544.00385 108.640625Q543.582 109.640625 543.582 110.90625L538.50385 110.90625Q538.50385 108.625 539.582 106.71875Q540.6757 104.796875 542.6601 103.671875Q544.6601 102.53125 547.37885 102.53125Q550.06635 102.53125 551.9257 103.40625Q553.7851 104.28125 554.7382 105.90625Q555.69135 107.53125 555.69135 109.78125Q555.69135 111.046875 555.2851 112.25Q554.87885 113.453125 554.12885 114.640625Q553.3945 115.828125 552.332 117.046875Q551.2851 118.25 550.00385 119.546875L545.5507 124.546875L556.5195 124.546875ZM560.4726 126.0625Q560.4726 124.9375 561.25385 124.1875Q562.0351 123.421875 563.332 123.421875Q564.62885 123.421875 565.4101 124.1875Q566.207 124.9375 566.207 126.0625Q566.207 127.1875 565.4101 127.9375Q564.62885 128.6875 563.332 128.6875Q562.0351 128.6875 561.25385 127.9375Q560.4726 127.1875 560.4726 126.0625ZM587.2382 113.453125L587.2382 117.875Q587.2382 120.765625 586.6132 122.859375Q586.00385 124.9375 584.8476 126.265625Q583.707 127.578125 582.1132 128.21875Q580.5351 128.85938 578.6132 128.85938Q577.06635 128.85938 575.7226 128.46875Q574.3945 128.0625 573.332 127.21875Q572.2695 126.375 571.50385 125.078125Q570.7382 123.78125 570.332 122.0Q569.9257 120.203125 569.9257 117.875L569.9257 113.453125Q569.9257 110.5625 570.5507 108.5Q571.1757 106.4375 572.31635 105.125Q573.4726 103.796875 575.0507 103.171875Q576.6445 102.546875 578.56635 102.546875Q580.1132 102.546875 581.44135 102.953125Q582.7695 103.34375 583.8476 104.171875Q584.9257 105.0 585.6757 106.296875Q586.4257 107.578125 586.832 109.375Q587.2382 111.15625 587.2382 113.453125ZM582.1601 118.546875L582.1601 112.765625Q582.1601 111.375 582.00385 110.34375Q581.8632 109.296875 581.56635 108.578125Q581.2695 107.84375 580.81635 107.390625Q580.37885 106.9375 579.81635 106.734375Q579.25385 106.515625 578.56635 106.515625Q577.707 106.515625 577.0507 106.84375Q576.3945 107.171875 575.9257 107.90625Q575.4726 108.640625 575.2382 109.84375Q575.00385 111.046875 575.00385 112.765625L575.00385 118.546875Q575.00385 119.9375 575.1445 121.0Q575.3007 122.046875 575.6132 122.796875Q575.9257 123.546875 576.3476 124.015625Q576.7851 124.46875 577.3476 124.6875Q577.9257 124.890625 578.6132 124.890625Q579.457 124.890625 580.1132 124.546875Q580.7695 124.203125 581.2382 123.46875Q581.707 122.71875 581.9257 121.515625Q582.1601 120.296875 582.1601 118.546875ZM608.25385 121.484375Q608.25385 123.890625 607.12885 125.546875Q606.00385 127.1875 604.0351 128.03125Q602.082 128.85938 599.6132 128.85938Q597.12885 128.85938 595.1601 128.03125Q593.19135 127.1875 592.0507 125.546875Q590.9101 123.890625 590.9101 121.484375Q590.9101 119.875 591.5507 118.5625Q592.207 117.25 593.37885 116.3125Q594.5507 115.375 596.12885 114.875Q597.707 114.359375 599.56635 114.359375Q602.06635 114.359375 604.0351 115.25Q606.00385 116.125 607.12885 117.734375Q608.25385 119.328125 608.25385 121.484375ZM603.1601 121.15625Q603.1601 119.96875 602.707 119.125Q602.2695 118.265625 601.457 117.8125Q600.6445 117.359375 599.56635 117.359375Q598.50385 117.359375 597.69135 117.8125Q596.87885 118.265625 596.4257 119.125Q595.9882 119.96875 595.9882 121.15625Q595.9882 122.3125 596.4257 123.15625Q596.87885 124.0 597.69135 124.453125Q598.5195 124.890625 599.6132 124.890625Q600.69135 124.890625 601.4882 124.453125Q602.3007 124.0 602.7226 123.15625Q603.1601 122.3125 603.1601 121.15625ZM607.707 109.6875Q607.707 111.640625 606.6757 113.140625Q605.6445 114.640625 603.8007 115.484375Q601.957 116.328125 599.6132 116.328125Q597.2382 116.328125 595.3945 115.484375Q593.5507 114.640625 592.50385 113.140625Q591.4726 111.640625 591.4726 109.6875Q591.4726 107.375 592.5195 105.78125Q593.56635 104.1875 595.3945 103.359375Q597.2382 102.53125 599.56635 102.53125Q601.94135 102.53125 603.7695 103.359375Q605.6132 104.1875 606.6601 105.78125Q607.707 107.375 607.707 109.6875ZM602.6445 109.921875Q602.6445 108.875 602.2695 108.125Q601.9101 107.359375 601.2226 106.9375Q600.5507 106.515625 599.56635 106.515625Q598.62885 106.515625 597.94135 106.921875Q597.2695 107.3125 596.9101 108.078125Q596.5507 108.84375 596.5507 109.921875Q596.5507 110.953125 596.9101 111.734375Q597.2695 112.515625 597.957 112.96875Q598.6445 113.40625 599.6132 113.40625Q600.582 113.40625 601.25385 112.96875Q601.9257 112.515625 602.2851 111.734375Q602.6445 110.953125 602.6445 109.921875ZM617.19135 113.5L619.9101 113.5Q621.207 113.5 622.0507 113.0625Q622.8945 112.609375 623.3007 111.796875Q623.7226 110.96875 623.7226 109.890625Q623.7226 108.90625 623.332 108.140625Q622.957 107.375 622.1757 106.953125Q621.4101 106.515625 620.2382 106.515625Q619.3007 106.515625 618.50385 106.890625Q617.7226 107.25 617.2382 107.921875Q616.7695 108.578125 616.7695 109.53125L611.69135 109.53125Q611.69135 107.421875 612.81635 105.859375Q613.957 104.296875 615.87885 103.421875Q617.8007 102.53125 620.0976 102.53125Q622.707 102.53125 624.6445 103.375Q626.5976 104.203125 627.69135 105.828125Q628.7851 107.4375 628.7851 109.828125Q628.7851 111.046875 628.2226 112.1875Q627.6601 113.3125 626.6132 114.21875Q625.56635 115.125 624.06635 115.65625Q622.582 116.1875 620.707 116.1875L617.19135 116.1875L617.19135 113.5ZM617.19135 117.359375L617.19135 114.734375L620.707 114.734375Q622.8007 114.734375 624.37885 115.21875Q625.9726 115.6875 627.0351 116.578125Q628.1132 117.453125 628.6601 118.671875Q629.207 119.875 629.207 121.328125Q629.207 123.125 628.5195 124.53125Q627.832 125.921875 626.582 126.890625Q625.3476 127.84375 623.69135 128.35938Q622.0507 128.85938 620.0976 128.85938Q618.4882 128.85938 616.9257 128.40625Q615.3632 127.953125 614.1132 127.046875Q612.8632 126.140625 612.1132 124.765625Q611.3632 123.390625 611.3632 121.484375L616.44135 121.484375Q616.44135 122.46875 616.9257 123.25Q617.4257 124.015625 618.2851 124.453125Q619.1601 124.890625 620.2382 124.890625Q621.457 124.890625 622.31635 124.453125Q623.19135 124.0 623.6601 123.1875Q624.12885 122.359375 624.12885 121.28125Q624.12885 119.875 623.6132 119.015625Q623.0976 118.15625 622.1445 117.765625Q621.207 117.359375 619.9101 117.359375L617.19135 117.359375Z" fill-rule="nonzero"/><path fill="#ffffff" d="M645.1445 115.453125Q647.457 111.140625 648.832 104.734375L652.50385 105.78125Q653.957 107.234375 652.2695 107.484375Q651.19135 113.21875 648.5976 117.9375L645.1445 115.453125ZM663.0351 116.546875Q660.707 110.34375 657.87885 106.109375L661.0507 104.125Q664.94135 109.109375 666.6601 114.25L663.0351 116.546875ZM642.7851 107.546875L647.2851 107.546875L647.2851 111.34375L642.7851 111.34375L642.7851 114.0625Q645.50385 115.234375 647.9882 117.875L645.69135 121.703125Q643.5351 119.375 642.7851 118.859375L642.7851 131.73438L638.8476 131.73438L638.8476 121.234375Q638.62885 121.765625 635.62885 125.4375L632.7695 122.1875Q636.9257 117.125 638.5351 111.34375L633.6445 111.34375L633.6445 107.546875L638.8476 107.546875L638.8476 104.09375L634.75385 104.5L633.9257 100.96875Q640.0195 100.65625 646.37885 98.84375L647.3945 101.734375Q648.082 103.796875 645.81635 102.796875Q644.1601 103.171875 642.7851 103.390625L642.7851 107.546875ZM656.5976 98.96875Q659.19135 99.296875 657.2695 100.671875L657.2695 119.78125Q657.2695 122.59375 654.457 122.59375L652.0507 122.59375L651.0507 118.796875L653.332 118.796875Q653.332 118.796875 653.332 118.796875L653.332 98.96875L656.5976 98.96875ZM663.50385 117.765625Q665.2695 119.1875 663.12885 119.453125Q658.3476 129.29688 646.1601 131.25L645.19135 127.34375Q656.31635 125.328125 660.37885 115.875L663.50385 117.765625Z" fill-rule="nonzero"/><path fill="#000000" d="M40.05625 66.72407Q37.946877 63.630318 34.853127 60.255318L37.103127 58.708443Q39.775 60.817818 42.5875 64.75532L40.05625 66.72407ZM19.525 39.724068L41.040627 39.724068L41.040627 42.395943L38.0875 42.395943L38.0875 47.317818L43.009377 47.317818L43.009377 49.989693L38.0875 49.989693L38.0875 54.911568L42.5875 54.911568L42.5875 57.583443L12.353125 57.583443L12.353125 54.911568L17.8375 54.911568L17.8375 49.989693L11.93125 49.989693L11.93125 47.317818L17.8375 47.317818L17.8375 42.536568Q15.86875 45.349068 14.040625 46.474068L12.353125 44.083443Q16.43125 40.849068 18.4 35.645943L21.2125 36.489693Q21.775 37.052193 20.790625 37.192818L19.525 39.724068ZM30.775 66.72407Q29.65 62.224068 28.665625 59.552193L31.478125 58.708443Q32.603127 61.380318 33.86875 65.73969L30.775 66.72407ZM19.80625 59.974068Q20.36875 60.536568 19.384375 60.677193Q16.99375 65.03657 14.74375 67.28657L12.49375 65.31782Q15.446875 61.942818 17.134375 58.567818L19.80625 59.974068ZM32.321877 42.395943L32.321877 47.317818L35.275 47.317818L35.275 42.395943L32.321877 42.395943ZM26.415625 42.395943L26.415625 47.317818L29.509375 47.317818L29.509375 42.395943L26.415625 42.395943ZM20.65 47.317818L23.603125 47.317818L23.603125 42.395943L20.65 42.395943L20.65 47.317818ZM32.321877 54.911568L35.275 54.911568L35.275 49.989693L32.321877 49.989693L32.321877 54.911568ZM26.415625 49.989693L26.415625 54.911568L29.509375 54.911568L29.509375 49.989693L26.415625 49.989693ZM20.65 49.989693L20.65 54.911568L23.603125 54.911568L23.603125 49.989693L20.65 49.989693ZM25.15 58.989693Q25.99375 63.067818 25.853125 67.00532L22.759375 67.28657Q22.759375 62.927193 22.196875 59.130318L25.15 58.989693ZM69.16563 47.036568L65.93125 47.036568L65.93125 44.364693L69.16563 44.364693L69.16563 36.630318L71.8375 36.630318Q72.9625 36.770943 71.97813 37.474068L71.97813 44.364693L78.44688 44.364693L78.16563 63.208443Q78.16563 67.42719 74.93125 67.42719L70.7125 67.42719L70.29063 64.33344L73.94688 64.33344Q75.35313 64.33344 75.35313 62.505318L75.63438 47.036568L71.97813 47.036568L71.97813 49.567818Q71.97813 62.083443 60.5875 67.98969L59.18125 65.03657Q69.16563 60.536568 69.16563 48.302193L69.16563 47.036568ZM46.946877 64.33344Q52.009377 61.239693 55.103127 57.724068Q53.415627 56.036568 51.5875 54.489693L53.415627 52.380318Q55.103127 53.645943 56.790627 55.052193Q57.915627 53.364693 59.040627 50.552193L61.853127 52.520943Q61.99375 53.224068 61.15 52.942818Q60.165627 55.192818 58.9 57.161568Q61.15 59.270943 62.134377 60.817818L59.74375 63.067818Q58.9 61.661568 57.2125 59.833443Q53.55625 64.19282 48.634377 67.00532L46.946877 64.33344ZM55.525 47.317818Q52.853127 50.552193 49.3375 52.942818L47.228127 50.692818Q51.30625 47.880318 53.696877 44.645943L56.228127 46.895943Q56.36875 47.599068 55.525 47.317818ZM65.93125 43.520943L47.93125 43.520943L47.93125 40.849068L55.525 40.849068L55.525 35.645943L58.196877 35.645943Q59.321877 35.786568 58.3375 36.489693L58.3375 40.849068L65.93125 40.849068L65.93125 43.520943ZM63.68125 52.099068Q61.99375 49.708443 58.478127 46.474068L60.5875 44.364693Q63.9625 47.036568 65.93125 49.849068L63.68125 52.099068Z" fill-rule="nonzero"/><path fill="#000000" d="M11.36875 118.682175Q19.665625 114.04155 22.05625 106.72905L12.634375 106.72905L12.634375 104.057175L22.759375 104.057175Q23.18125 102.369675 23.4625 98.994675L27.11875 99.6978Q27.68125 100.2603 26.696875 100.400925L25.99375 104.057175L42.86875 104.057175L42.86875 106.72905L25.43125 106.72905Q24.86875 108.6978 24.165625 109.963425L38.0875 109.963425L38.0875 128.66655Q38.0875 130.91655 35.8375 130.91655L32.603127 130.91655L31.9 128.24467L34.7125 128.24467Q35.275 128.24467 35.275 127.682175L35.275 123.8853L23.040625 123.8853L23.040625 131.33842L20.228125 131.33842L20.228125 115.869675Q16.853125 119.3853 13.05625 121.6353L11.36875 118.682175ZM23.040625 118.119675L23.040625 121.213425L35.275 121.213425L35.275 118.119675L23.040625 118.119675ZM35.275 115.4478L35.275 112.6353L23.040625 112.6353L23.040625 115.4478L35.275 115.4478ZM69.16563 110.525925L65.93125 110.525925L65.93125 107.85405L69.16563 107.85405L69.16563 100.119675L71.8375 100.119675Q72.9625 100.2603 71.97813 100.963425L71.97813 107.85405L78.44688 107.85405L78.16563 126.6978Q78.16563 130.91655 74.93125 130.91655L70.7125 130.91655L70.29063 127.8228L73.94688 127.8228Q75.35313 127.8228 75.35313 125.994675L75.63438 110.525925L71.97813 110.525925L71.97813 113.057175Q71.97813 125.5728 60.5875 131.47905L59.18125 128.52592Q69.16563 124.025925 69.16563 111.79155L69.16563 110.525925ZM46.946877 127.8228Q52.009377 124.72905 55.103127 121.213425Q53.415627 119.525925 51.5875 117.97905L53.415627 115.869675Q55.103127 117.1353 56.790627 118.54155Q57.915627 116.85405 59.040627 114.04155L61.853127 116.0103Q61.99375 116.713425 61.15 116.432175Q60.165627 118.682175 58.9 120.650925Q61.15 122.7603 62.134377 124.307175L59.74375 126.557175Q58.9 125.150925 57.2125 123.3228Q53.55625 127.682175 48.634377 130.49467L46.946877 127.8228ZM55.525 110.807175Q52.853127 114.04155 49.3375 116.432175L47.228127 114.182175Q51.30625 111.369675 53.696877 108.1353L56.228127 110.3853Q56.36875 111.088425 55.525 110.807175ZM65.93125 107.0103L47.93125 107.0103L47.93125 104.338425L55.525 104.338425L55.525 99.1353L58.196877 99.1353Q59.321877 99.275925 58.3375 99.97905L58.3375 104.338425L65.93125 104.338425L65.93125 107.0103ZM63.68125 115.588425Q61.99375 113.1978 58.478127 109.963425L60.5875 107.85405Q63.9625 110.525925 65.93125 113.338425L63.68125 115.588425Z" fill-rule="nonzero"/><path fill="#000000" d="M78.4 171.36563Q78.4 169.83438 78.7125 168.9125Q79.025 167.975 79.63438 167.475Q80.25938 166.975 81.19688 166.975Q81.88438 166.975 82.4 167.25626Q82.93125 167.5375 83.275 168.06876Q83.61875 168.58438 83.80625 169.33438Q83.99375 170.08438 83.99375 171.36563Q83.99375 172.88126 83.68125 173.80313Q83.38438 174.725 82.75938 175.24063Q82.15 175.74063 81.19688 175.74063Q79.9625 175.74063 79.24375 174.85Q78.4 173.7875 78.4 171.36563ZM79.47813 171.36563Q79.47813 173.475 79.97813 174.17813Q80.47813 174.88126 81.19688 174.88126Q81.93125 174.88126 82.41563 174.17813Q82.91563 173.475 82.91563 171.36563Q82.91563 169.24063 82.41563 168.55313Q81.93125 167.85 81.18125 167.85Q80.4625 167.85 80.025 168.45938Q79.47813 169.24063 79.47813 171.36563ZM85.99375 175.6L85.99375 174.39688L87.19688 174.39688L87.19688 175.6L85.99375 175.6ZM88.4 171.36563Q88.4 169.83438 88.7125 168.9125Q89.025 167.975 89.63438 167.475Q90.25938 166.975 91.19688 166.975Q91.88438 166.975 92.4 167.25626Q92.93125 167.5375 93.275 168.06876Q93.61875 168.58438 93.80625 169.33438Q93.99375 170.08438 93.99375 171.36563Q93.99375 172.88126 93.68125 173.80313Q93.38438 174.725 92.75938 175.24063Q92.15 175.74063 91.19688 175.74063Q89.9625 175.74063 89.24375 174.85Q88.4 173.7875 88.4 171.36563ZM89.47813 171.36563Q89.47813 173.475 89.97813 174.17813Q90.47813 174.88126 91.19688 174.88126Q91.93125 174.88126 92.41563 174.17813Q92.91563 173.475 92.91563 171.36563Q92.91563 169.24063 92.41563 168.55313Q91.93125 167.85 91.18125 167.85Q90.4625 167.85 90.025 168.45938Q89.47813 169.24063 89.47813 171.36563ZM95.4 171.36563Q95.4 169.83438 95.7125 168.9125Q96.025 167.975 96.63438 167.475Q97.25938 166.975 98.19688 166.975Q98.88438 166.975 99.4 167.25626Q99.93125 167.5375 100.275 168.06876Q100.61875 168.58438 100.80625 169.33438Q100.99375 170.08438 100.99375 171.36563Q100.99375 172.88126 100.68125 173.80313Q100.38438 174.725 99.75938 175.24063Q99.15 175.74063 98.19688 175.74063Q96.9625 175.74063 96.24375 174.85Q95.4 173.7875 95.4 171.36563ZM96.47813 171.36563Q96.47813 173.475 96.97813 174.17813Q97.47813 174.88126 98.19688 174.88126Q98.93125 174.88126 99.41563 174.17813Q99.91563 173.475 99.91563 171.36563Q99.91563 169.24063 99.41563 168.55313Q98.93125 167.85 98.18125 167.85Q97.4625 167.85 97.025 168.45938Q96.47813 169.24063 96.47813 171.36563ZM102.4 171.36563Q102.4 169.83438 102.7125 168.9125Q103.025 167.975 103.63438 167.475Q104.25938 166.975 105.19688 166.975Q105.88438 166.975 106.4 167.25626Q106.93125 167.5375 107.275 168.06876Q107.61875 168.58438 107.80625 169.33438Q107.99375 170.08438 107.99375 171.36563Q107.99375 172.88126 107.68125 173.80313Q107.38438 174.725 106.75938 175.24063Q106.15 175.74063 105.19688 175.74063Q103.9625 175.74063 103.24375 174.85Q102.4 173.7875 102.4 171.36563ZM103.47813 171.36563Q103.47813 173.475 103.97813 174.17813Q104.47813 174.88126 105.19688 174.88126Q105.93125 174.88126 106.41563 174.17813Q106.91563 173.475 106.91563 171.36563Q106.91563 169.24063 106.41563 168.55313Q105.93125 167.85 105.18125 167.85Q104.4625 167.85 104.025 168.45938Q103.47813 169.24063 103.47813 171.36563Z" fill-rule="nonzero"/><path fill="#000000" d="M113.5875 171.38126Q114.29063 170.06876 114.7125 168.1L115.69688 168.38126Q115.88438 168.56876 115.55625 168.61563Q115.18125 170.63126 114.43125 171.99063L113.5875 171.38126ZM119.4 171.52188Q118.69688 169.64688 117.85313 168.38126L118.60313 167.9125Q119.775 169.4125 120.29063 170.95938L119.4 171.52188ZM112.36875 168.99063L113.86875 168.99063L113.86875 169.88126L112.36875 169.88126L112.36875 171.1Q113.35313 171.52188 114.05625 172.27188L113.49375 173.20938Q112.93125 172.6 112.36875 172.225L112.36875 176.67813L111.43125 176.67813L111.43125 172.4125Q111.00938 173.44376 110.16563 174.475L109.4625 173.67813Q110.775 172.08438 111.38438 169.88126L109.69688 169.88126L109.69688 168.99063L111.43125 168.99063L111.43125 167.44376L110.025 167.58438L109.8375 166.7875Q111.66563 166.69376 113.63438 166.13126L113.91563 166.92813Q114.00938 167.20938 113.5875 167.02188Q112.97813 167.1625 112.36875 167.25626L112.36875 168.99063ZM117.15 166.13126Q117.525 166.17813 117.19688 166.4125L117.19688 172.88126Q117.19688 173.63126 116.44688 173.63126L115.79063 173.63126L115.55625 172.74063L116.07188 172.74063Q116.25938 172.74063 116.25938 172.55313L116.25938 166.13126L117.15 166.13126ZM119.35313 172.36563Q119.5875 172.55313 119.2125 172.6Q117.61875 175.88126 113.82188 176.49063L113.5875 175.55313Q117.19688 174.89688 118.50938 171.85L119.35313 172.36563Z" fill-rule="nonzero"/><path fill="#000000" d="M362.43542 175.6L361.38855 175.6L361.38855 168.88126Q360.99792 169.24063 360.37292 169.61563Q359.76355 169.975 359.27917 170.14688L359.27917 169.13126Q360.15417 168.70938 360.81042 168.13126Q361.4823 167.5375 361.76355 166.975L362.43542 166.975L362.43542 175.6ZM366.06042 175.6L366.06042 174.39688L367.26355 174.39688L367.26355 175.6L366.06042 175.6ZM368.46667 171.36563Q368.46667 169.83438 368.77917 168.9125Q369.09167 167.975 369.70105 167.475Q370.32605 166.975 371.26355 166.975Q371.95105 166.975 372.46667 167.25626Q372.99792 167.5375 373.34167 168.06876Q373.68542 168.58438 373.87292 169.33438Q374.06042 170.08438 374.06042 171.36563Q374.06042 172.88126 373.74792 173.80313Q373.45105 174.725 372.82605 175.24063Q372.21667 175.74063 371.26355 175.74063Q370.02917 175.74063 369.31042 174.85Q368.46667 173.7875 368.46667 171.36563ZM369.5448 171.36563Q369.5448 173.475 370.0448 174.17813Q370.5448 174.88126 371.26355 174.88126Q371.99792 174.88126 372.4823 174.17813Q372.9823 173.475 372.9823 171.36563Q372.9823 169.24063 372.4823 168.55313Q371.99792 167.85 371.24792 167.85Q370.52917 167.85 370.09167 168.45938Q369.5448 169.24063 369.5448 171.36563ZM375.46667 171.36563Q375.46667 169.83438 375.77917 168.9125Q376.09167 167.975 376.70105 167.475Q377.32605 166.975 378.26355 166.975Q378.95105 166.975 379.46667 167.25626Q379.99792 167.5375 380.34167 168.06876Q380.68542 168.58438 380.87292 169.33438Q381.06042 170.08438 381.06042 171.36563Q381.06042 172.88126 380.74792 173.80313Q380.45105 174.725 379.82605 175.24063Q379.21667 175.74063 378.26355 175.74063Q377.02917 175.74063 376.31042 174.85Q375.46667 173.7875 375.46667 171.36563ZM376.5448 171.36563Q376.5448 173.475 377.0448 174.17813Q377.5448 174.88126 378.26355 174.88126Q378.99792 174.88126 379.4823 174.17813Q379.9823 173.475 379.9823 171.36563Q379.9823 169.24063 379.4823 168.55313Q378.99792 167.85 378.24792 167.85Q377.52917 167.85 377.09167 168.45938Q376.5448 169.24063 376.5448 171.36563ZM382.46667 171.36563Q382.46667 169.83438 382.77917 168.9125Q383.09167 167.975 383.70105 167.475Q384.32605 166.975 385.26355 166.975Q385.95105 166.975 386.46667 167.25626Q386.99792 167.5375 387.34167 168.06876Q387.68542 168.58438 387.87292 169.33438Q388.06042 170.08438 388.06042 171.36563Q388.06042 172.88126 387.74792 173.80313Q387.45105 174.725 386.82605 175.24063Q386.21667 175.74063 385.26355 175.74063Q384.02917 175.74063 383.31042 174.85Q382.46667 173.7875 382.46667 171.36563ZM383.5448 171.36563Q383.5448 173.475 384.0448 174.17813Q384.5448 174.88126 385.26355 174.88126Q385.99792 174.88126 386.4823 174.17813Q386.9823 173.475 386.9823 171.36563Q386.9823 169.24063 386.4823 168.55313Q385.99792 167.85 385.24792 167.85Q384.52917 167.85 384.09167 168.45938Q383.5448 169.24063 383.5448 171.36563Z" fill-rule="nonzero"/><path fill="#000000" d="M393.65417 171.38126Q394.3573 170.06876 394.77917 168.1L395.76355 168.38126Q395.95105 168.56876 395.62292 168.61563Q395.24792 170.63126 394.49792 171.99063L393.65417 171.38126ZM399.46667 171.52188Q398.76355 169.64688 397.9198 168.38126L398.6698 167.9125Q399.84167 169.4125 400.3573 170.95938L399.46667 171.52188ZM392.43542 168.99063L393.93542 168.99063L393.93542 169.88126L392.43542 169.88126L392.43542 171.1Q393.4198 171.52188 394.12292 172.27188L393.56042 173.20938Q392.99792 172.6 392.43542 172.225L392.43542 176.67813L391.49792 176.67813L391.49792 172.4125Q391.07605 173.44376 390.2323 174.475L389.52917 173.67813Q390.84167 172.08438 391.45105 169.88126L389.76355 169.88126L389.76355 168.99063L391.49792 168.99063L391.49792 167.44376L390.09167 167.58438L389.90417 166.7875Q391.7323 166.69376 393.70105 166.13126L393.9823 166.92813Q394.07605 167.20938 393.65417 167.02188Q393.0448 167.1625 392.43542 167.25626L392.43542 168.99063ZM397.21667 166.13126Q397.59167 166.17813 397.26355 166.4125L397.26355 172.88126Q397.26355 173.63126 396.51355 173.63126L395.8573 173.63126L395.62292 172.74063L396.13855 172.74063Q396.32605 172.74063 396.32605 172.55313L396.32605 166.13126L397.21667 166.13126ZM399.4198 172.36563Q399.65417 172.55313 399.27917 172.6Q397.68542 175.88126 393.88855 176.49063L393.65417 175.55313Q397.26355 174.89688 398.57605 171.85L399.4198 172.36563Z" fill-rule="nonzero"/><path fill="#000000" d="M644.0802 174.58438L644.0802 175.6L638.3927 175.6Q638.3927 175.225 638.5177 174.86563Q638.73645 174.2875 639.2052 173.725Q639.6896 173.1625 640.5958 172.42813Q642.0021 171.27188 642.48645 170.6Q642.98645 169.92813 642.98645 169.33438Q642.98645 168.70938 642.5333 168.2875Q642.0802 167.85 641.36145 167.85Q640.5958 167.85 640.1427 168.30313Q639.6896 168.75626 639.67395 169.56876L638.5958 169.45938Q638.7052 168.24063 639.42395 167.61563Q640.1583 166.975 641.3927 166.975Q642.6271 166.975 643.3458 167.6625Q644.0646 168.35 644.0646 169.36563Q644.0646 169.88126 643.8458 170.38126Q643.6427 170.86563 643.1427 171.42813Q642.6583 171.975 641.5333 172.92813Q640.5802 173.725 640.29895 174.02188Q640.0333 174.30313 639.86145 174.58438L644.0802 174.58438ZM646.1271 175.6L646.1271 174.39688L647.3302 174.39688L647.3302 175.6L646.1271 175.6ZM648.5333 171.36563Q648.5333 169.83438 648.8458 168.9125Q649.1583 167.975 649.7677 167.475Q650.3927 166.975 651.3302 166.975Q652.0177 166.975 652.5333 167.25626Q653.0646 167.5375 653.4083 168.06876Q653.7521 168.58438 653.9396 169.33438Q654.1271 170.08438 654.1271 171.36563Q654.1271 172.88126 653.8146 173.80313Q653.5177 174.725 652.8927 175.24063Q652.2833 175.74063 651.3302 175.74063Q650.0958 175.74063 649.3771 174.85Q648.5333 173.7875 648.5333 171.36563ZM649.61145 171.36563Q649.61145 173.475 650.11145 174.17813Q650.61145 174.88126 651.3302 174.88126Q652.0646 174.88126 652.54895 174.17813Q653.04895 173.475 653.04895 171.36563Q653.04895 169.24063 652.54895 168.55313Q652.0646 167.85 651.3146 167.85Q650.5958 167.85 650.1583 168.45938Q649.61145 169.24063 649.61145 171.36563ZM655.5333 171.36563Q655.5333 169.83438 655.8458 168.9125Q656.1583 167.975 656.7677 167.475Q657.3927 166.975 658.3302 166.975Q659.0177 166.975 659.5333 167.25626Q660.0646 167.5375 660.4083 168.06876Q660.7521 168.58438 660.9396 169.33438Q661.1271 170.08438 661.1271 171.36563Q661.1271 172.88126 660.8146 173.80313Q660.5177 174.725 659.8927 175.24063Q659.2833 175.74063 658.3302 175.74063Q657.0958 175.74063 656.3771 174.85Q655.5333 173.7875 655.5333 171.36563ZM656.61145 171.36563Q656.61145 173.475 657.11145 174.17813Q657.61145 174.88126 658.3302 174.88126Q659.0646 174.88126 659.54895 174.17813Q660.04895 173.475 660.04895 171.36563Q660.04895 169.24063 659.54895 168.55313Q659.0646 167.85 658.3146 167.85Q657.5958 167.85 657.1583 168.45938Q656.61145 169.24063 656.61145 171.36563ZM662.5333 171.36563Q662.5333 169.83438 662.8458 168.9125Q663.1583 167.975 663.7677 167.475Q664.3927 166.975 665.3302 166.975Q666.0177 166.975 666.5333 167.25626Q667.0646 167.5375 667.4083 168.06876Q667.7521 168.58438 667.9396 169.33438Q668.1271 170.08438 668.1271 171.36563Q668.1271 172.88126 667.8146 173.80313Q667.5177 174.725 666.8927 175.24063Q666.2833 175.74063 665.3302 175.74063Q664.0958 175.74063 663.3771 174.85Q662.5333 173.7875 662.5333 171.36563ZM663.61145 171.36563Q663.61145 173.475 664.11145 174.17813Q664.61145 174.88126 665.3302 174.88126Q666.0646 174.88126 666.54895 174.17813Q667.04895 173.475 667.04895 171.36563Q667.04895 169.24063 666.54895 168.55313Q666.0646 167.85 665.3146 167.85Q664.5958 167.85 664.1583 168.45938Q663.61145 169.24063 663.61145 171.36563Z" fill-rule="nonzero"/><path fill="#000000" d="M673.7208 171.38126Q674.42395 170.06876 674.8458 168.1L675.8302 168.38126Q676.0177 168.56876 675.6896 168.61563Q675.3146 170.63126 674.5646 171.99063L673.7208 171.38126ZM679.5333 171.52188Q678.8302 169.64688 677.98645 168.38126L678.73645 167.9125Q679.9083 169.4125 680.42395 170.95938L679.5333 171.52188ZM672.5021 168.99063L674.0021 168.99063L674.0021 169.88126L672.5021 169.88126L672.5021 171.1Q673.48645 171.52188 674.1896 172.27188L673.6271 173.20938Q673.0646 172.6 672.5021 172.225L672.5021 176.67813L671.5646 176.67813L671.5646 172.4125Q671.1427 173.44376 670.29895 174.475L669.5958 173.67813Q670.9083 172.08438 671.5177 169.88126L669.8302 169.88126L669.8302 168.99063L671.5646 168.99063L671.5646 167.44376L670.1583 167.58438L669.9708 166.7875Q671.79895 166.69376 673.7677 166.13126L674.04895 166.92813Q674.1427 167.20938 673.7208 167.02188Q673.11145 167.1625 672.5021 167.25626L672.5021 168.99063ZM677.2833 166.13126Q677.6583 166.17813 677.3302 166.4125L677.3302 172.88126Q677.3302 173.63126 676.5802 173.63126L675.92395 173.63126L675.6896 172.74063L676.2052 172.74063Q676.3927 172.74063 676.3927 172.55313L676.3927 166.13126L677.2833 166.13126ZM679.48645 172.36563Q679.7208 172.55313 679.3458 172.6Q677.7521 175.88126 673.9552 176.49063L673.7208 175.55313Q677.3302 174.89688 678.6427 171.85L679.48645 172.36563Z" fill-rule="nonzero"/></svg>