<svg version="1.1" viewBox="0.0 0.0 551.1574803149606 239.29921259842519" fill="none" stroke="none" stroke-linecap="square" stroke-miterlimit="10" xmlns:xlink="http://www.w3.org/1999/xlink" xmlns="http://www.w3.org/2000/svg"><clipPath id="p.0"><path d="m0 0l551.1575 0l0 239.29921l-551.1575 0l0 -239.29921z" clip-rule="nonzero"/></clipPath><g clip-path="url(#p.0)"><path fill="#000000" fill-opacity="0.0" d="m0 0l551.1575 0l0 239.29921l-551.1575 0z" fill-rule="evenodd"/><path fill="#cfe2f3" d="m209.3412 23.018373l0 0c0 -3.1832485 2.580536 -5.7637806 5.7637787 -5.7637806l0 0c1.528656 0 2.99469 0.607254 4.0756073 1.6881714c1.0809326 1.0809193 1.6881714 2.546959 1.6881714 4.075609l0 0c0 3.1832466 -2.5805206 5.7637787 -5.7637787 5.7637787l0 0c-3.1832428 0 -5.7637787 -2.580532 -5.7637787 -5.7637787z" fill-rule="evenodd"/><path stroke="#000000" stroke-width="1.0" stroke-linejoin="round" stroke-linecap="butt" d="m209.3412 23.018373l0 0c0 -3.1832485 2.580536 -5.7637806 5.7637787 -5.7637806l0 0c1.528656 0 2.99469 0.607254 4.0756073 1.6881714c1.0809326 1.0809193 1.6881714 2.546959 1.6881714 4.075609l0 0c0 3.1832466 -2.5805206 5.7637787 -5.7637787 5.7637787l0 0c-3.1832428 0 -5.7637787 -2.580532 -5.7637787 -5.7637787z" fill-rule="evenodd"/><path fill="#cfe2f3" d="m390.7244 138.60892l0 0c0 -3.1832428 2.580536 -5.7637787 5.763794 -5.7637787l0 0c1.528656 0 2.99469 0.607254 4.075592 1.6881714c1.0809326 1.0809174 1.6882019 2.5469666 1.6882019 4.0756073l0 0c0 3.183258 -2.580536 5.7637787 -5.763794 5.7637787l0 0c-3.183258 0 -5.763794 -2.5805206 -5.763794 -5.7637787z" fill-rule="evenodd"/><path stroke="#000000" stroke-width="1.0" stroke-linejoin="round" stroke-linecap="butt" d="m390.7244 138.60892l0 0c0 -3.1832428 2.580536 -5.7637787 5.763794 -5.7637787l0 0c1.528656 0 2.99469 0.607254 4.075592 1.6881714c1.0809326 1.0809174 1.6882019 2.5469666 1.6882019 4.0756073l0 0c0 3.183258 -2.580536 5.7637787 -5.763794 5.7637787l0 0c-3.183258 0 -5.763794 -2.5805206 -5.763794 -5.7637787z" fill-rule="evenodd"/><path fill="#d9d2e9" d="m284.1286 60.734997l0 0c0 -2.4440193 1.9812622 -4.4252853 4.425293 -4.4252853l254.80298 0c1.173645 0 2.2992554 0.4662323 3.1291504 1.296135c0.829895 0.82990265 1.2961426 1.9554901 1.2961426 3.1291504l0 17.700611c0 2.4440155 -1.9812622 4.4252853 -4.425293 4.4252853l-254.80298 0l0 0c-2.4440308 0 -4.425293 -1.9812698 -4.425293 -4.4252853z" fill-rule="evenodd"/><path stroke="#000000" stroke-width="1.0" stroke-linejoin="round" stroke-linecap="butt" d="m284.1286 60.734997l0 0c0 -2.4440193 1.9812622 -4.4252853 4.425293 -4.4252853l254.80298 0c1.173645 0 2.2992554 0.4662323 3.1291504 1.296135c0.829895 0.82990265 1.2961426 1.9554901 1.2961426 3.1291504l0 17.700611c0 2.4440155 -1.9812622 4.4252853 -4.425293 4.4252853l-254.80298 0l0 0c-2.4440308 0 -4.425293 -1.9812698 -4.425293 -4.4252853z" fill-rule="evenodd"/><path fill="#000000" d="m328.94113 71.59905l2.609375 0.828125q-0.59375 2.1875 -2.0 3.25q-1.390625 1.0625 -3.546875 1.0625q-2.65625 0 -4.375 -1.8125q-1.703125 -1.828125 -1.703125 -4.984375q0 -3.328125 1.71875 -5.171875q1.71875 -1.84375 4.515625 -1.84375q2.453125 0 3.984375 1.4375q0.921875 0.859375 1.375 2.46875l-2.671875 0.640625q-0.234375 -1.046875 -0.984375 -1.640625q-0.75 -0.609375 -1.828125 -0.609375q-1.484375 0 -2.421875 1.078125q-0.921875 1.0625 -0.921875 3.4375q0 2.53125 0.90625 3.609375q0.921875 1.078125 2.375 1.078125q1.078125 0 1.84375 -0.671875q0.78125 -0.6875 1.125 -2.15625zm4.9104614 4.90625l0 -13.359375l2.5625 0l0 13.359375l-2.5625 0zm4.5895386 -4.96875q0 -1.28125 0.625 -2.46875q0.625 -1.203125 1.78125 -1.828125q1.15625 -0.625 2.578125 -0.625q2.1875 0 3.59375 1.421875q1.40625 1.421875 1.40625 3.609375q0 2.1875 -1.421875 3.640625q-1.421875 1.4375 -3.5625 1.4375q-1.328125 0 -2.546875 -0.59375q-1.203125 -0.609375 -1.828125 -1.765625q-0.625 -1.171875 -0.625 -2.828125zm2.625 0.125q0 1.453125 0.671875 2.21875q0.6875 0.75 1.6875 0.75q1.0 0 1.671875 -0.75q0.6875 -0.765625 0.6875 -2.234375q0 -1.421875 -0.6875 -2.1875q-0.671875 -0.765625 -1.671875 -0.765625q-1.0 0 -1.6875 0.765625q-0.671875 0.765625 -0.671875 2.203125zm17.802246 -1.96875l-2.53125 0.453125q-0.125 -0.75 -0.578125 -1.125q-0.453125 -0.390625 -1.171875 -0.390625q-0.953125 0 -1.53125 0.65625q-0.5625 0.65625 -0.5625 2.203125q0 1.734375 0.578125 2.4375q0.578125 0.703125 1.546875 0.703125q0.734375 0 1.203125 -0.40625q0.46875 -0.421875 0.65625 -1.421875l2.515625 0.421875q-0.390625 1.734375 -1.515625 2.625q-1.109375 0.875 -2.96875 0.875q-2.125 0 -3.390625 -1.328125q-1.25 -1.34375 -1.25 -3.71875q0 -2.390625 1.265625 -3.71875q1.265625 -1.34375 3.421875 -1.34375q1.765625 0 2.796875 0.765625q1.046875 0.75 1.515625 2.3125zm1.8444519 6.8125l0 -13.359375l2.5625 0l0 7.09375l3.0 -3.40625l3.140625 0l-3.296875 3.53125l3.53125 6.140625l-2.75 0l-2.4375 -4.34375l-1.1875 1.25l0 3.09375l-2.5625 0zm10.469482 0l0 -2.5625l2.5625 0l0 2.5625l-2.5625 0zm13.620789 -6.8125l-2.53125 0.453125q-0.125 -0.75 -0.578125 -1.125q-0.453125 -0.390625 -1.171875 -0.390625q-0.953125 0 -1.53125 0.65625q-0.5625 0.65625 -0.5625 2.203125q0 1.734375 0.578125 2.4375q0.578125 0.703125 1.546875 0.703125q0.734375 0 1.203125 -0.40625q0.46875 -0.421875 0.65625 -1.421875l2.515625 0.421875q-0.390625 1.734375 -1.515625 2.625q-1.109375 0.875 -2.96875 0.875q-2.125 0 -3.390625 -1.328125q-1.25 -1.34375 -1.25 -3.71875q0 -2.390625 1.265625 -3.71875q1.265625 -1.34375 3.421875 -1.34375q1.765625 0 2.796875 0.765625q1.046875 0.75 1.515625 2.3125zm8.297607 6.8125l0 -1.453125q-0.53125 0.78125 -1.390625 1.234375q-0.859375 0.4375 -1.8125 0.4375q-0.96875 0 -1.75 -0.421875q-0.765625 -0.4375 -1.125 -1.203125q-0.34375 -0.78125 -0.34375 -2.140625l0 -6.125l2.5625 0l0 4.4375q0 2.046875 0.140625 2.515625q0.140625 0.453125 0.515625 0.71875q0.375 0.265625 0.953125 0.265625q0.65625 0 1.171875 -0.359375q0.515625 -0.359375 0.703125 -0.890625q0.203125 -0.53125 0.203125 -2.609375l0 -4.078125l2.546875 0l0 9.671875l-2.375 0zm7.4897156 0l-2.5625 0l0 -9.671875l2.375 0l0 1.375q0.609375 -0.984375 1.09375 -1.28125q0.484375 -0.3125 1.109375 -0.3125q0.875 0 1.6875 0.484375l-0.796875 2.234375q-0.640625 -0.421875 -1.203125 -0.421875q-0.53125 0 -0.90625 0.296875q-0.375 0.296875 -0.59375 1.078125q-0.203125 0.765625 -0.203125 3.234375l0 2.984375zm7.2602844 0l-2.5625 0l0 -9.671875l2.375 0l0 1.375q0.609375 -0.984375 1.09375 -1.28125q0.484375 -0.3125 1.109375 -0.3125q0.875 0 1.6875 0.484375l-0.796875 2.234375q-0.640625 -0.421875 -1.203125 -0.421875q-0.53125 0 -0.90625 0.296875q-0.375 0.296875 -0.59375 1.078125q-0.203125 0.765625 -0.203125 3.234375l0 2.984375zm10.400879 -3.078125l2.546875 0.421875q-0.484375 1.40625 -1.546875 2.140625q-1.0625 0.734375 -2.65625 0.734375q-2.515625 0 -3.734375 -1.65625q-0.953125 -1.3125 -0.953125 -3.328125q0 -2.40625 1.25 -3.765625q1.265625 -1.359375 3.1875 -1.359375q2.15625 0 3.40625 1.421875q1.25 1.421875 1.1875 4.375l-6.40625 0q0.03125 1.140625 0.609375 1.78125q0.59375 0.625 1.484375 0.625q0.59375 0 1.0 -0.328125q0.421875 -0.328125 0.625 -1.0625zm0.15625 -2.59375q-0.03125 -1.109375 -0.578125 -1.6875q-0.546875 -0.578125 -1.328125 -0.578125q-0.84375 0 -1.390625 0.609375q-0.546875 0.609375 -0.53125 1.65625l3.828125 0zm13.422607 5.671875l-2.5625 0l0 -4.9375q0 -1.5625 -0.171875 -2.015625q-0.15625 -0.46875 -0.53125 -0.71875q-0.359375 -0.265625 -0.875 -0.265625q-0.671875 0 -1.203125 0.375q-0.53125 0.359375 -0.734375 0.96875q-0.1875 0.59375 -0.1875 2.21875l0 4.375l-2.546875 0l0 -9.671875l2.375 0l0 1.421875q1.265625 -1.640625 3.1875 -1.640625q0.84375 0 1.546875 0.3125q0.703125 0.296875 1.0625 0.78125q0.359375 0.46875 0.5 1.078125q0.140625 0.59375 0.140625 1.703125l0 6.015625zm7.0365906 -9.671875l0 2.03125l-1.75 0l0 3.90625q0 1.1875 0.046875 1.390625q0.046875 0.1875 0.21875 0.3125q0.1875 0.125 0.4375 0.125q0.359375 0 1.03125 -0.25l0.21875 2.0q-0.890625 0.375 -2.015625 0.375q-0.703125 0 -1.265625 -0.234375q-0.546875 -0.234375 -0.8125 -0.59375q-0.25 -0.375 -0.34375 -1.0q-0.09375 -0.453125 -0.09375 -1.8125l0 -4.21875l-1.171875 0l0 -2.03125l1.171875 0l0 -1.921875l2.578125 -1.5l0 3.421875l1.75 0zm1.712677 9.671875l0 -13.359375l2.6875 0l0 13.359375l-2.6875 0zm14.042694 0l-2.5625 0l0 -4.9375q0 -1.5625 -0.171875 -2.015625q-0.15625 -0.46875 -0.53125 -0.71875q-0.359375 -0.265625 -0.875 -0.265625q-0.671875 0 -1.203125 0.375q-0.53125 0.359375 -0.734375 0.96875q-0.1875 0.59375 -0.1875 2.21875l0 4.375l-2.546875 0l0 -9.671875l2.375 0l0 1.421875q1.265625 -1.640625 3.1875 -1.640625q0.84375 0 1.546875 0.3125q0.703125 0.296875 1.0625 0.78125q0.359375 0.46875 0.5 1.078125q0.140625 0.59375 0.140625 1.703125l0 6.015625zm1.6928406 -2.765625l2.5625 -0.390625q0.171875 0.75 0.671875 1.140625q0.5 0.390625 1.40625 0.390625q0.984375 0 1.484375 -0.375q0.34375 -0.25 0.34375 -0.671875q0 -0.296875 -0.1875 -0.484375q-0.1875 -0.1875 -0.859375 -0.34375q-3.09375 -0.6875 -3.921875 -1.25q-1.140625 -0.78125 -1.140625 -2.171875q0 -1.265625 0.984375 -2.109375q1.0 -0.859375 3.078125 -0.859375q1.984375 0 2.953125 0.65625q0.96875 0.640625 1.328125 1.90625l-2.40625 0.4375q-0.15625 -0.5625 -0.59375 -0.859375q-0.421875 -0.296875 -1.234375 -0.296875q-1.0 0 -1.4375 0.28125q-0.296875 0.203125 -0.296875 0.515625q0 0.265625 0.25 0.46875q0.34375 0.25 2.390625 0.71875q2.046875 0.453125 2.859375 1.140625q0.796875 0.671875 0.796875 1.890625q0 1.34375 -1.109375 2.296875q-1.109375 0.953125 -3.28125 0.953125q-1.984375 0 -3.140625 -0.796875q-1.140625 -0.8125 -1.5 -2.1875zm15.719482 -6.90625l0 2.03125l-1.75 0l0 3.90625q0 1.1875 0.046875 1.390625q0.046875 0.1875 0.21875 0.3125q0.1875 0.125 0.4375 0.125q0.359375 0 1.03125 -0.25l0.21875 2.0q-0.890625 0.375 -2.015625 0.375q-0.703125 0 -1.265625 -0.234375q-0.546875 -0.234375 -0.8125 -0.59375q-0.25 -0.375 -0.34375 -1.0q-0.09375 -0.453125 -0.09375 -1.8125l0 -4.21875l-1.171875 0l0 -2.03125l1.171875 0l0 -1.921875l2.578125 -1.5l0 3.421875l1.75 0zm3.681427 2.953125l-2.328125 -0.421875q0.40625 -1.40625 1.359375 -2.078125q0.953125 -0.671875 2.84375 -0.671875q1.703125 0 2.546875 0.40625q0.84375 0.40625 1.171875 1.03125q0.34375 0.625 0.34375 2.28125l-0.015625 3.0q0 1.265625 0.109375 1.875q0.125 0.609375 0.46875 1.296875l-2.53125 0q-0.109375 -0.25 -0.25 -0.75q-0.0625 -0.234375 -0.09375 -0.3125q-0.65625 0.640625 -1.40625 0.96875q-0.734375 0.3125 -1.59375 0.3125q-1.484375 0 -2.34375 -0.8125q-0.859375 -0.8125 -0.859375 -2.046875q0 -0.828125 0.390625 -1.46875q0.390625 -0.640625 1.09375 -0.96875q0.703125 -0.34375 2.03125 -0.609375q1.796875 -0.328125 2.484375 -0.625l0 -0.25q0 -0.75 -0.359375 -1.0625q-0.359375 -0.3125 -1.375 -0.3125q-0.6875 0 -1.078125 0.28125q-0.375 0.265625 -0.609375 0.9375zm3.421875 2.078125q-0.484375 0.15625 -1.5625 0.390625q-1.0625 0.21875 -1.390625 0.4375q-0.5 0.359375 -0.5 0.90625q0 0.53125 0.40625 0.9375q0.40625 0.390625 1.015625 0.390625q0.703125 0 1.328125 -0.46875q0.46875 -0.34375 0.609375 -0.84375q0.09375 -0.328125 0.09375 -1.25l0 -0.5zm13.844452 4.640625l-2.5625 0l0 -4.9375q0 -1.5625 -0.171875 -2.015625q-0.15625 -0.46875 -0.53125 -0.71875q-0.359375 -0.265625 -0.875 -0.265625q-0.671875 0 -1.203125 0.375q-0.53125 0.359375 -0.734375 0.96875q-0.1875 0.59375 -0.1875 2.21875l0 4.375l-2.546875 0l0 -9.671875l2.375 0l0 1.421875q1.265625 -1.640625 3.1875 -1.640625q0.84375 0 1.546875 0.3125q0.703125 0.296875 1.0625 0.78125q0.359375 0.46875 0.5 1.078125q0.140625 0.59375 0.140625 1.703125l0 6.015625zm7.036621 -9.671875l0 2.03125l-1.75 0l0 3.90625q0 1.1875 0.046875 1.390625q0.046875 0.1875 0.21875 0.3125q0.1875 0.125 0.4375 0.125q0.359375 0 1.03125 -0.25l0.21875 2.0q-0.890625 0.375 -2.015625 0.375q-0.703125 0 -1.265625 -0.234375q-0.546875 -0.234375 -0.8125 -0.59375q-0.25 -0.375 -0.34375 -1.0q-0.09375 -0.453125 -0.09375 -1.8125l0 -4.21875l-1.171875 0l0 -2.03125l1.171875 0l0 -1.921875l2.578125 -1.5l0 3.421875l1.75 0zm6.009552 13.59375l-1.75 0q-1.390625 -2.09375 -2.125 -4.359375q-0.734375 -2.28125 -0.734375 -4.40625q0 -2.625 0.90625 -4.96875q0.78125 -2.046875 1.984375 -3.765625l1.75 0q-1.25 2.75 -1.71875 4.6875q-0.46875 1.9375 -0.46875 4.109375q0 1.5 0.28125 3.0625q0.28125 1.5625 0.765625 2.96875q0.3125 0.9375 1.109375 2.671875zm1.259552 0q0.765625 -1.609375 1.0625 -2.484375q0.3125 -0.859375 0.578125 -1.984375q0.265625 -1.140625 0.390625 -2.15625q0.125 -1.015625 0.125 -2.078125q0 -2.171875 -0.46875 -4.109375q-0.453125 -1.9375 -1.703125 -4.6875l1.734375 0q1.375 1.953125 2.140625 4.15625q0.765625 2.1875 0.765625 4.453125q0 1.90625 -0.609375 4.078125q-0.671875 2.4375 -2.25 4.8125l-1.765625 0z" fill-rule="nonzero"/><path fill="#d9d2e9" d="m2.4041994 6.6562567l0 0c0 -2.444018 1.9812677 -4.4252853 4.4252853 -4.4252853l254.80296 0c1.1736755 0 2.2992554 0.4662342 3.1291504 1.2961361c0.82992554 0.8299022 1.2961426 1.9554906 1.2961426 3.1291494l0 17.700611c0 2.4440174 -1.9812622 4.4252853 -4.425293 4.4252853l-254.80296 0l0 0c-2.444018 0 -4.4252853 -1.9812679 -4.4252853 -4.4252853z" fill-rule="evenodd"/><path stroke="#000000" stroke-width="1.0" stroke-linejoin="round" stroke-linecap="butt" d="m2.4041994 6.6562567l0 0c0 -2.444018 1.9812677 -4.4252853 4.4252853 -4.4252853l254.80296 0c1.1736755 0 2.2992554 0.4662342 3.1291504 1.2961361c0.82992554 0.8299022 1.2961426 1.9554906 1.2961426 3.1291494l0 17.700611c0 2.4440174 -1.9812622 4.4252853 -4.425293 4.4252853l-254.80296 0l0 0c-2.444018 0 -4.4252853 -1.9812679 -4.4252853 -4.4252853z" fill-rule="evenodd"/><path fill="#000000" d="m15.846363 18.082811l2.625 -0.25q0.234375 1.3125 0.953125 1.9375q0.734375 0.609375 1.96875 0.609375q1.296875 0 1.953125 -0.546875q0.671875 -0.546875 0.671875 -1.28125q0 -0.484375 -0.28125 -0.8125q-0.28125 -0.328125 -0.96875 -0.578125q-0.484375 -0.15625 -2.171875 -0.578125q-2.15625 -0.546875 -3.03125 -1.328126q-1.234375 -1.09375 -1.234375 -2.6875q0 -1.015625 0.578125 -1.90625q0.578125 -0.890625 1.65625 -1.34375q1.09375 -0.46875 2.640625 -0.46875q2.515625 0 3.78125 1.109375q1.28125 1.09375 1.34375 2.9375l-2.703125 0.109375q-0.171875 -1.03125 -0.75 -1.46875q-0.5625 -0.453125 -1.703125 -0.453125q-1.171875 0 -1.84375 0.46875q-0.421875 0.3125 -0.421875 0.84375q0 0.46875 0.40625 0.796875q0.5 0.4375 2.46875 0.90625q1.96875 0.453125 2.90625 0.953125q0.953125 0.5 1.484375 1.359376q0.53125 0.859375 0.53125 2.125q0 1.15625 -0.640625 2.15625q-0.640625 1.0 -1.8125 1.484375q-1.15625 0.484375 -2.890625 0.484375q-2.53125 0 -3.890625 -1.171875q-1.359375 -1.171875 -1.625 -3.40625zm11.896698 -5.328126l2.71875 0l2.328125 6.859376l2.25 -6.859376l2.65625 0l-3.421875 9.312501l-0.609375 1.6875q-0.328125 0.84375 -0.640625 1.28125q-0.3125 0.453125 -0.703125 0.71875q-0.390625 0.28125 -0.96875 0.4375q-0.578125 0.15625 -1.3125 0.15625q-0.734375 0 -1.453125 -0.15625l-0.21875 -2.0q0.59375 0.125 1.078125 0.125q0.890625 0 1.3125 -0.53125q0.4375 -0.515625 0.671875 -1.328125l-3.6875 -9.703126zm10.688217 6.906251l2.5625 -0.390625q0.171875 0.75 0.671875 1.140625q0.5 0.390625 1.40625 0.390625q0.984375 0 1.484375 -0.375q0.34375 -0.25 0.34375 -0.671875q0 -0.296875 -0.1875 -0.484375q-0.1875 -0.1875 -0.859375 -0.34375q-3.09375 -0.6875 -3.921875 -1.25q-1.140625 -0.78125 -1.140625 -2.171876q0 -1.265625 0.984375 -2.109375q1.0 -0.859375 3.078125 -0.859375q1.984375 0 2.953125 0.65625q0.96875 0.640625 1.328125 1.90625l-2.40625 0.4375q-0.15625 -0.5625 -0.59375 -0.859375q-0.421875 -0.296875 -1.234375 -0.296875q-1.0 0 -1.4375 0.28125q-0.296875 0.203125 -0.296875 0.515625q0 0.265625 0.25 0.46875q0.34375 0.25 2.390625 0.71875095q2.046875 0.453125 2.859375 1.140625q0.796875 0.671875 0.796875 1.890625q0 1.34375 -1.109375 2.296875q-1.109375 0.953125 -3.28125 0.953125q-1.984375 0 -3.140625 -0.796875q-1.140625 -0.8125 -1.5 -2.1875zm15.719467 -6.906251l0 2.03125l-1.75 0l0 3.906251q0 1.1875 0.046875 1.390625q0.046875 0.1875 0.21875 0.3125q0.1875 0.125 0.4375 0.125q0.359375 0 1.03125 -0.25l0.21875 2.0q-0.890625 0.375 -2.015625 0.375q-0.703125 0 -1.265625 -0.234375q-0.546875 -0.234375 -0.8125 -0.59375q-0.25 -0.375 -0.34375 -1.0q-0.09375 -0.453125 -0.09375 -1.8125l0 -4.218751l-1.171875 0l0 -2.03125l1.171875 0l0 -1.921875l2.578125 -1.5l0 3.421875l1.75 0zm7.368927 6.593751l2.5468788 0.421875q-0.4843788 1.40625 -1.5468788 2.140625q-1.0625 0.734375 -2.65625 0.734375q-2.515625 0 -3.734375 -1.65625q-0.953125 -1.3125 -0.953125 -3.328125q0 -2.406251 1.25 -3.765626q1.265625 -1.359375 3.1875 -1.359375q2.15625 0 3.40625 1.421875q1.2500038 1.421875 1.1875038 4.375001l-6.406254 0q0.03125 1.140625 0.609375 1.78125q0.59375 0.625 1.484375 0.625q0.59375 0 1.0 -0.328125q0.421875 -0.328125 0.625 -1.0625zm0.15625 -2.59375q-0.03125 -1.109376 -0.578125 -1.687501q-0.546875 -0.578125 -1.328125 -0.578125q-0.84375 0 -1.390625 0.609375q-0.546875 0.609375 -0.53125 1.656251l3.828125 0zm4.422596 -4.000001l2.359375 0l0 1.3125q1.265625 -1.53125 3.015625 -1.53125q0.9375 0 1.609375 0.390625q0.6875 0.375 1.125 1.140625q0.640625 -0.765625 1.375 -1.140625q0.75 -0.390625 1.578125 -0.390625q1.0625 0 1.796875 0.4375q0.75 0.421875 1.109375 1.265625q0.265625 0.625 0.265625 2.000001l0 6.1875l-2.5625 0l0 -5.53125q0 -1.437501 -0.265625 -1.859376q-0.34375 -0.546875 -1.09375 -0.546875q-0.53125 0 -1.015625 0.328125q-0.46875 0.328125 -0.671875 0.96875q-0.203125 0.62500095 -0.203125 2.000001l0 4.640625l-2.5625 0l0 -5.296875q0 -1.421876 -0.140625 -1.828126q-0.140625 -0.40625 -0.421875 -0.609375q-0.28125 -0.203125 -0.78125 -0.203125q-0.59375 0 -1.0625 0.328125q-0.46875 0.3125 -0.6875 0.921875q-0.203125 0.59375095 -0.203125 1.984376l0 4.703125l-2.5625 0l0 -9.671876zm16.79152 9.671876l0 -2.5625l2.5625 0l0 2.5625l-2.5625 0zm13.620804 -6.812501l-2.53125 0.45312595q-0.125 -0.75000095 -0.578125 -1.125001q-0.453125 -0.390625 -1.171875 -0.390625q-0.953125 0 -1.53125 0.65625q-0.5625 0.65625 -0.5625 2.203126q0 1.734375 0.578125 2.4375q0.578125 0.703125 1.546875 0.703125q0.734375 0 1.203125 -0.40625q0.46875 -0.421875 0.65625 -1.421875l2.515625 0.421875q-0.390625 1.734375 -1.515625 2.625q-1.109375 0.875 -2.96875 0.875q-2.125 0 -3.390625 -1.328125q-1.25 -1.34375 -1.25 -3.71875q0 -2.390626 1.265625 -3.718751q1.265625 -1.34375 3.421875 -1.34375q1.765625 0 2.796875 0.765625q1.046875 0.75 1.515625 2.3125zm8.297592 6.812501l0 -1.453125q-0.53125 0.78125 -1.390625 1.234375q-0.859375 0.4375 -1.8125 0.4375q-0.96875 0 -1.75 -0.421875q-0.765625 -0.4375 -1.125 -1.203125q-0.34375 -0.78125 -0.34375 -2.140625l0 -6.125001l2.5625 0l0 4.437501q0 2.046875 0.140625 2.515625q0.140625 0.453125 0.515625 0.71875q0.375 0.265625 0.953125 0.265625q0.65625 0 1.171875 -0.359375q0.515625 -0.359375 0.703125 -0.890625q0.203125 -0.53125 0.203125 -2.609375l0 -4.078126l2.546875 0l0 9.671876l-2.375 0zm7.489731 0l-2.5625 0l0 -9.671876l2.375 0l0 1.375q0.609375 -0.984375 1.09375 -1.28125q0.484375 -0.3125 1.109375 -0.3125q0.875 0 1.6875 0.484375l-0.796875 2.234375q-0.640625 -0.421875 -1.203125 -0.421875q-0.53125 0 -0.90625 0.296875q-0.375 0.296875 -0.59375 1.078126q-0.203125 0.765625 -0.203125 3.234375l0 2.984375zm7.260269 0l-2.5625 0l0 -9.671876l2.375 0l0 1.375q0.609375 -0.984375 1.09375 -1.28125q0.484375 -0.3125 1.109375 -0.3125q0.875 0 1.6875 0.484375l-0.796875 2.234375q-0.640625 -0.421875 -1.203125 -0.421875q-0.53125 0 -0.90625 0.296875q-0.375 0.296875 -0.59375 1.078126q-0.203125 0.765625 -0.203125 3.234375l0 2.984375zm10.400887 -3.078125l2.546875 0.421875q-0.484375 1.40625 -1.546875 2.140625q-1.0625 0.734375 -2.65625 0.734375q-2.5156174 0 -3.7343674 -1.65625q-0.953125 -1.3125 -0.953125 -3.328125q0 -2.406251 1.25 -3.765626q1.265625 -1.359375 3.1874924 -1.359375q2.15625 0 3.40625 1.421875q1.25 1.421875 1.1875 4.375001l-6.4062424 0q0.03125 1.140625 0.609375 1.78125q0.59375 0.625 1.4843674 0.625q0.59375 0 1.0 -0.328125q0.421875 -0.328125 0.625 -1.0625zm0.15625 -2.59375q-0.03125 -1.109376 -0.578125 -1.687501q-0.546875 -0.578125 -1.328125 -0.578125q-0.8437424 0 -1.3906174 0.609375q-0.546875 0.609375 -0.53125 1.656251l3.8281174 0zm13.422592 5.671875l-2.5625 0l0 -4.9375q0 -1.562501 -0.171875 -2.015626q-0.15625 -0.46875 -0.53125 -0.71875q-0.359375 -0.265625 -0.875 -0.265625q-0.671875 0 -1.203125 0.375q-0.53125 0.359375 -0.734375 0.96875q-0.1875 0.59375095 -0.1875 2.218751l0 4.375l-2.546875 0l0 -9.671876l2.375 0l0 1.421875q1.265625 -1.640625 3.1875 -1.640625q0.84375 0 1.546875 0.3125q0.703125 0.296875 1.0625 0.78125q0.359375 0.46875 0.5 1.078125q0.140625 0.59375 0.140625 1.703126l0 6.015625zm7.036606 -9.671876l0 2.03125l-1.75 0l0 3.906251q0 1.1875 0.046875 1.390625q0.046875 0.1875 0.21875 0.3125q0.1875 0.125 0.4375 0.125q0.359375 0 1.03125 -0.25l0.21875 2.0q-0.890625 0.375 -2.015625 0.375q-0.703125 0 -1.265625 -0.234375q-0.546875 -0.234375 -0.8125 -0.59375q-0.25 -0.375 -0.34375 -1.0q-0.09375 -0.453125 -0.09375 -1.8125l0 -4.218751l-1.171875 0l0 -2.03125l1.171875 0l0 -1.921875l2.578125 -1.5l0 3.421875l1.75 0zm4.790802 9.671876l0 -11.093751l-3.953125 0l0 -2.265625l10.609375 0l0 2.265625l-3.953125 0l0 11.093751l-2.703125 0zm8.043121 -10.984376l0 -2.375l2.5625 0l0 2.375l-2.5625 0zm0 10.984376l0 -9.671876l2.5625 0l0 9.671876l-2.5625 0zm4.980179 -9.671876l2.359375 0l0 1.3125q1.265625 -1.53125 3.015625 -1.53125q0.9375 0 1.609375 0.390625q0.6875 0.375 1.125 1.140625q0.640625 -0.765625 1.375 -1.140625q0.75 -0.390625 1.578125 -0.390625q1.0625 0 1.796875 0.4375q0.75 0.421875 1.109375 1.265625q0.265625 0.625 0.265625 2.000001l0 6.1875l-2.5625 0l0 -5.53125q0 -1.437501 -0.265625 -1.859376q-0.34375 -0.546875 -1.09375 -0.546875q-0.53125 0 -1.015625 0.328125q-0.46875 0.328125 -0.671875 0.96875q-0.203125 0.62500095 -0.203125 2.000001l0 4.640625l-2.5625 0l0 -5.296875q0 -1.421876 -0.140625 -1.828126q-0.140625 -0.40625 -0.421875 -0.609375q-0.28125 -0.203125 -0.78125 -0.203125q-0.59375 0 -1.0625 0.328125q-0.46875 0.3125 -0.6875 0.921875q-0.203125 0.59375095 -0.203125 1.984376l0 4.703125l-2.5625 0l0 -9.671876zm22.38527 6.593751l2.546875 0.421875q-0.484375 1.40625 -1.546875 2.140625q-1.0625 0.734375 -2.65625 0.734375q-2.515625 0 -3.734375 -1.65625q-0.953125 -1.3125 -0.953125 -3.328125q0 -2.406251 1.25 -3.765626q1.265625 -1.359375 3.1875 -1.359375q2.15625 0 3.40625 1.421875q1.25 1.421875 1.1875 4.375001l-6.40625 0q0.03125 1.140625 0.609375 1.78125q0.59375 0.625 1.484375 0.625q0.59375 0 1.0 -0.328125q0.421875 -0.328125 0.625 -1.0625zm0.15625 -2.59375q-0.03125 -1.109376 -0.578125 -1.687501q-0.546875 -0.578125 -1.328125 -0.578125q-0.84375 0 -1.390625 0.609375q-0.546875 0.609375 -0.53125 1.656251l3.828125 0zm4.610092 5.671875l0 -13.359376l4.03125 0l2.421875 9.109376l2.390625 -9.109376l4.046875 0l0 13.359376l-2.5 0l0 -10.515626l-2.65625 10.515626l-2.59375 0l-2.640625 -10.515626l0 10.515626l-2.5 0zm15.556427 -10.984376l0 -2.375l2.5625 0l0 2.375l-2.5625 0zm0 10.984376l0 -9.671876l2.5625 0l0 9.671876l-2.5625 0zm5.183304 0l0 -13.359376l2.5625 0l0 13.359376l-2.5625 0zm5.183304 0l0 -13.359376l2.5625 0l0 13.359376l-2.5625 0zm5.183304 -10.984376l0 -2.375l2.5625 0l0 2.375l-2.5625 0zm0 10.984376l0 -9.671876l2.5625 0l0 9.671876l-2.5625 0zm4.277054 -2.765625l2.5625 -0.390625q0.171875 0.75 0.671875 1.140625q0.5 0.390625 1.40625 0.390625q0.984375 0 1.484375 -0.375q0.34375 -0.25 0.34375 -0.671875q0 -0.296875 -0.1875 -0.484375q-0.1875 -0.1875 -0.859375 -0.34375q-3.09375 -0.6875 -3.921875 -1.25q-1.140625 -0.78125 -1.140625 -2.171876q0 -1.265625 0.984375 -2.109375q1.0 -0.859375 3.078125 -0.859375q1.984375 0 2.953125 0.65625q0.96875 0.640625 1.328125 1.90625l-2.40625 0.4375q-0.15625 -0.5625 -0.59375 -0.859375q-0.421875 -0.296875 -1.234375 -0.296875q-1.0 0 -1.4375 0.28125q-0.296875 0.203125 -0.296875 0.515625q0 0.265625 0.25 0.46875q0.34375 0.25 2.390625 0.71875095q2.046875 0.453125 2.859375 1.140625q0.796875 0.671875 0.796875 1.890625q0 1.34375 -1.109375 2.296875q-1.109375 0.953125 -3.28125 0.953125q-1.984375 0 -3.140625 -0.796875q-1.140625 -0.8125 -1.5 -2.1875zm15.516342 6.6875l-1.75 0q-1.390625 -2.09375 -2.125 -4.359375q-0.734375 -2.28125 -0.734375 -4.40625q0 -2.625001 0.90625 -4.968751q0.78125 -2.046875 1.984375 -3.765625l1.75 0q-1.25 2.75 -1.71875 4.6875q-0.46875 1.9375 -0.46875 4.109376q0 1.5 0.28125 3.0625q0.28125 1.5625 0.765625 2.96875q0.3125 0.9375 1.109375 2.671875zm1.259552 0q0.765625 -1.609375 1.0625 -2.484375q0.3125 -0.859375 0.578125 -1.984375q0.265625 -1.140625 0.390625 -2.15625q0.125 -1.015625 0.125 -2.078125q0 -2.171876 -0.46875 -4.109376q-0.453125 -1.9375 -1.703125 -4.6875l1.734375 0q1.375 1.953125 2.140625 4.15625q0.765625 2.1875 0.765625 4.453126q0 1.90625 -0.609375 4.078125q-0.671875 2.4375 -2.25 4.8125l-1.765625 0z" fill-rule="nonzero"/><path fill="#d9d2e9" d="m284.1286 6.6562567l0 0c0 -2.444018 1.9812622 -4.4252853 4.425293 -4.4252853l254.80298 0c1.173645 0 2.2992554 0.4662342 3.1291504 1.2961361c0.829895 0.8299022 1.2961426 1.9554906 1.2961426 3.1291494l0 17.700611c0 2.4440174 -1.9812622 4.4252853 -4.425293 4.4252853l-254.80298 0l0 0c-2.4440308 0 -4.425293 -1.9812679 -4.425293 -4.4252853z" fill-rule="evenodd"/><path stroke="#000000" stroke-width="1.0" stroke-linejoin="round" stroke-linecap="butt" d="m284.1286 6.6562567l0 0c0 -2.444018 1.9812622 -4.4252853 4.425293 -4.4252853l254.80298 0c1.173645 0 2.2992554 0.4662342 3.1291504 1.2961361c0.829895 0.8299022 1.2961426 1.9554906 1.2961426 3.1291494l0 17.700611c0 2.4440174 -1.9812622 4.4252853 -4.425293 4.4252853l-254.80298 0l0 0c-2.4440308 0 -4.425293 -1.9812679 -4.425293 -4.4252853z" fill-rule="evenodd"/><path fill="#000000" d="m359.2046 22.426561l0 -13.359376l2.6875 0l0 13.359376l-2.6875 0zm14.042664 0l-2.5625 0l0 -4.9375q0 -1.562501 -0.171875 -2.015626q-0.15625 -0.46875 -0.53125 -0.71875q-0.359375 -0.265625 -0.875 -0.265625q-0.671875 0 -1.203125 0.375q-0.53125 0.359375 -0.734375 0.96875q-0.1875 0.59375095 -0.1875 2.218751l0 4.375l-2.546875 0l0 -9.671876l2.375 0l0 1.421875q1.265625 -1.640625 3.1875 -1.640625q0.84375 0 1.546875 0.3125q0.703125 0.296875 1.0625 0.78125q0.359375 0.46875 0.5 1.078125q0.140625 0.59375 0.140625 1.703126l0 6.015625zm1.6928711 -2.765625l2.5625 -0.390625q0.171875 0.75 0.671875 1.140625q0.5 0.390625 1.40625 0.390625q0.984375 0 1.484375 -0.375q0.34375 -0.25 0.34375 -0.671875q0 -0.296875 -0.1875 -0.484375q-0.1875 -0.1875 -0.859375 -0.34375q-3.09375 -0.6875 -3.921875 -1.25q-1.140625 -0.78125 -1.140625 -2.171876q0 -1.265625 0.984375 -2.109375q1.0 -0.859375 3.078125 -0.859375q1.984375 0 2.953125 0.65625q0.96875 0.640625 1.328125 1.90625l-2.40625 0.4375q-0.15625 -0.5625 -0.59375 -0.859375q-0.421875 -0.296875 -1.234375 -0.296875q-1.0 0 -1.4375 0.28125q-0.296875 0.203125 -0.296875 0.515625q0 0.265625 0.25 0.46875q0.34375 0.25 2.390625 0.71875095q2.046875 0.453125 2.859375 1.140625q0.796875 0.671875 0.796875 1.890625q0 1.34375 -1.109375 2.296875q-1.109375 0.953125 -3.28125 0.953125q-1.984375 0 -3.140625 -0.796875q-1.140625 -0.8125 -1.5 -2.1875zm15.719452 -6.906251l0 2.03125l-1.75 0l0 3.906251q0 1.1875 0.046875 1.390625q0.046875 0.1875 0.21875 0.3125q0.1875 0.125 0.4375 0.125q0.359375 0 1.03125 -0.25l0.21875 2.0q-0.890625 0.375 -2.015625 0.375q-0.703125 0 -1.265625 -0.234375q-0.546875 -0.234375 -0.8125 -0.59375q-0.25 -0.375 -0.34375 -1.0q-0.09375 -0.453125 -0.09375 -1.8125l0 -4.218751l-1.171875 0l0 -2.03125l1.171875 0l0 -1.921875l2.578125 -1.5l0 3.421875l1.75 0zm3.681427 2.953125l-2.328125 -0.421875q0.40625 -1.40625 1.359375 -2.078125q0.953125 -0.671875 2.84375 -0.671875q1.703125 0 2.546875 0.40625q0.84375 0.40625 1.171875 1.03125q0.34375 0.625 0.34375 2.281251l-0.015625 3.0q0 1.265625 0.109375 1.875q0.125 0.609375 0.46875 1.296875l-2.53125 0q-0.109375 -0.25 -0.25 -0.75q-0.0625 -0.234375 -0.09375 -0.3125q-0.65625 0.640625 -1.40625 0.96875q-0.734375 0.3125 -1.59375 0.3125q-1.484375 0 -2.34375 -0.8125q-0.859375 -0.8125 -0.859375 -2.046875q0 -0.828125 0.390625 -1.46875q0.390625 -0.640625 1.09375 -0.96875q0.703125 -0.34375 2.03125 -0.609375q1.796875 -0.328125 2.484375 -0.625l0 -0.25000095q0 -0.75 -0.359375 -1.0625q-0.359375 -0.3125 -1.375 -0.3125q-0.6875 0 -1.078125 0.28125q-0.375 0.265625 -0.609375 0.9375zm3.421875 2.078126q-0.484375 0.15625 -1.5625 0.390625q-1.0625 0.21875 -1.390625 0.4375q-0.5 0.359375 -0.5 0.90625q0 0.53125 0.40625 0.9375q0.40625 0.390625 1.015625 0.390625q0.703125 0 1.328125 -0.46875q0.46875 -0.34375 0.609375 -0.84375q0.09375 -0.328125 0.09375 -1.25l0 -0.5zm13.844482 4.640625l-2.5625 0l0 -4.9375q0 -1.562501 -0.171875 -2.015626q-0.15625 -0.46875 -0.53125 -0.71875q-0.359375 -0.265625 -0.875 -0.265625q-0.671875 0 -1.203125 0.375q-0.53125 0.359375 -0.734375 0.96875q-0.1875 0.59375095 -0.1875 2.218751l0 4.375l-2.546875 0l0 -9.671876l2.375 0l0 1.421875q1.265625 -1.640625 3.1875 -1.640625q0.84375 0 1.546875 0.3125q0.703125 0.296875 1.0625 0.78125q0.359375 0.46875 0.5 1.078125q0.140625 0.59375 0.140625 1.703126l0 6.015625zm7.0365906 -9.671876l0 2.03125l-1.75 0l0 3.906251q0 1.1875 0.046875 1.390625q0.046875 0.1875 0.21875 0.3125q0.1875 0.125 0.4375 0.125q0.359375 0 1.03125 -0.25l0.21875 2.0q-0.890625 0.375 -2.015625 0.375q-0.703125 0 -1.265625 -0.234375q-0.546875 -0.234375 -0.8125 -0.59375q-0.25 -0.375 -0.34375 -1.0q-0.09375 -0.453125 -0.09375 -1.8125l0 -4.218751l-1.171875 0l0 -2.03125l1.171875 0l0 -1.921875l2.578125 -1.5l0 3.421875l1.75 0zm1.775177 9.671876l0 -2.5625l2.5625 0l0 2.5625l-2.5625 0zm13.980194 0l-2.5625 0l0 -4.9375q0 -1.562501 -0.171875 -2.015626q-0.15625 -0.46875 -0.53125 -0.71875q-0.359375 -0.265625 -0.875 -0.265625q-0.671875 0 -1.203125 0.375q-0.53125 0.359375 -0.734375 0.96875q-0.1875 0.59375095 -0.1875 2.218751l0 4.375l-2.546875 0l0 -9.671876l2.375 0l0 1.421875q1.265625 -1.640625 3.1875 -1.640625q0.84375 0 1.546875 0.3125q0.703125 0.296875 1.0625 0.78125q0.359375 0.46875 0.5 1.078125q0.140625 0.59375 0.140625 1.703126l0 6.015625zm2.0053406 -4.96875q0 -1.28125 0.625 -2.468751q0.625 -1.203125 1.78125 -1.828125q1.15625 -0.625 2.578125 -0.625q2.1875 0 3.59375 1.421875q1.40625 1.421875 1.40625 3.609376q0 2.1875 -1.421875 3.640625q-1.421875 1.4375 -3.5625 1.4375q-1.328125 0 -2.546875 -0.59375q-1.203125 -0.609375 -1.828125 -1.765625q-0.625 -1.171875 -0.625 -2.828125zm2.625 0.125q0 1.453125 0.671875 2.21875q0.6875 0.75 1.6875 0.75q1.0 0 1.671875 -0.75q0.6875 -0.765625 0.6875 -2.234375q0 -1.421875 -0.6875 -2.187501q-0.671875 -0.765625 -1.671875 -0.765625q-1.0 0 -1.6875 0.765625q-0.671875 0.76562595 -0.671875 2.203126zm11.161621 4.84375l-3.0625 -9.671876l2.484375 0l1.8125 6.343751l1.671875 -6.343751l2.46875 0l1.609375 6.343751l1.859375 -6.343751l2.515625 0l-3.109375 9.671876l-2.453125 0l-1.671875 -6.21875l-1.640625 6.21875l-2.484375 0zm16.948914 3.921875l-1.75 0q-1.390625 -2.09375 -2.125 -4.359375q-0.734375 -2.28125 -0.734375 -4.40625q0 -2.625001 0.90625 -4.968751q0.78125 -2.046875 1.984375 -3.765625l1.75 0q-1.25 2.75 -1.71875 4.6875q-0.46875 1.9375 -0.46875 4.109376q0 1.5 0.28125 3.0625q0.28125 1.5625 0.765625 2.96875q0.3125 0.9375 1.109375 2.671875zm1.259552 0q0.765625 -1.609375 1.0625 -2.484375q0.3125 -0.859375 0.578125 -1.984375q0.265625 -1.140625 0.390625 -2.15625q0.125 -1.015625 0.125 -2.078125q0 -2.171876 -0.46875 -4.109376q-0.453125 -1.9375 -1.703125 -4.6875l1.734375 0q1.375 1.953125 2.140625 4.15625q0.765625 2.1875 0.765625 4.453126q0 1.90625 -0.609375 4.078125q-0.671875 2.4375 -2.25 4.8125l-1.765625 0z" fill-rule="nonzero"/><path fill="#d9ead3" d="m2.4041994 141.85844l0 0c0 -4.9779053 4.0353937 -9.013306 9.013304 -9.013306l245.62692 0c2.3904724 0 4.6830444 0.9496155 6.3733826 2.6399384c1.6903076 1.6903229 2.639923 3.982895 2.639923 6.3733673l0 36.05214c0 4.9779053 -4.0354004 9.013306 -9.013306 9.013306l-245.62692 0c-4.9779105 0 -9.013304 -4.0354004 -9.013304 -9.013306z" fill-rule="evenodd"/><path stroke="#000000" stroke-width="1.0" stroke-linejoin="round" stroke-linecap="butt" d="m2.4041994 141.85844l0 0c0 -4.9779053 4.0353937 -9.013306 9.013304 -9.013306l245.62692 0c2.3904724 0 4.6830444 0.9496155 6.3733826 2.6399384c1.6903076 1.6903229 2.639923 3.982895 2.639923 6.3733673l0 36.05214c0 4.9779053 -4.0354004 9.013306 -9.013306 9.013306l-245.62692 0c-4.9779105 0 -9.013304 -4.0354004 -9.013304 -9.013306z" fill-rule="evenodd"/><path fill="#000000" d="m71.0774 156.44514l2.921875 0.359375q0.0625 0.5 0.328125 0.6875q0.375 0.28125 1.15625 0.28125q1.0 0 1.5 -0.296875q0.328125 -0.203125 0.515625 -0.65625q0.109375 -0.3125 0.109375 -1.171875l0 -1.40625q-1.140625 1.5625 -2.890625 1.5625q-1.953125 0 -3.09375 -1.65625q-0.890625 -1.296875 -0.890625 -3.234375q0 -2.4375 1.171875 -3.71875q1.171875 -1.28125 2.90625 -1.28125q1.796875 0 2.96875 1.578125l0 -1.359375l2.390625 0l0 8.671875q0 1.71875 -0.28125 2.5625q-0.28125 0.84375 -0.796875 1.328125q-0.5 0.484375 -1.359375 0.75q-0.84375 0.28125 -2.15625 0.28125q-2.453125 0 -3.484375 -0.84375q-1.03125 -0.84375 -1.03125 -2.125q0 -0.140625 0.015625 -0.3125zm2.28125 -5.671875q0 1.53125 0.59375 2.25q0.59375 0.71875 1.46875 0.71875q0.9375 0 1.578125 -0.734375q0.65625 -0.734375 0.65625 -2.171875q0 -1.515625 -0.625 -2.234375q-0.609375 -0.734375 -1.5625 -0.734375q-0.921875 0 -1.515625 0.71875q-0.59375 0.71875 -0.59375 2.1875zm14.942856 1.953125l2.546875 0.421875q-0.484375 1.40625 -1.546875 2.140625q-1.0625 0.734375 -2.65625 0.734375q-2.515625 0 -3.734375 -1.65625q-0.953125 -1.3125 -0.953125 -3.328125q0 -2.40625 1.25 -3.765625q1.265625 -1.359375 3.1875 -1.359375q2.15625 0 3.40625 1.421875q1.25 1.421875 1.1875 4.375l-6.40625 0q0.03125 1.140625 0.609375 1.78125q0.59375 0.625 1.484375 0.625q0.59375 0 1.0 -0.328125q0.421875 -0.328125 0.625 -1.0625zm0.15625 -2.59375q-0.03125 -1.109375 -0.578125 -1.6875q-0.546875 -0.578125 -1.328125 -0.578125q-0.84375 0 -1.390625 0.609375q-0.546875 0.609375 -0.53125 1.65625l3.828125 0zm9.063217 -4.0l0 2.03125l-1.75 0l0 3.90625q0 1.1875 0.046875 1.390625q0.046875 0.1875 0.21875 0.3125q0.1875 0.125 0.4375 0.125q0.359375 0 1.03125 -0.25l0.21875 2.0q-0.890625 0.375 -2.015625 0.375q-0.703125 0 -1.265625 -0.234375q-0.546875 -0.234375 -0.8125 -0.59375q-0.25 -0.375 -0.34375 -1.0q-0.09375 -0.453125 -0.09375 -1.8125l0 -4.21875l-1.171875 0l0 -2.03125l1.171875 0l0 -1.921875l2.578125 -1.5l0 3.421875l1.75 0zm6.212677 0l0 2.03125l-1.75 0l0 3.90625q0 1.1875 0.046875 1.390625q0.046875 0.1875 0.21875 0.3125q0.1875 0.125 0.4375 0.125q0.359375 0 1.03125 -0.25l0.21875 2.0q-0.890625 0.375 -2.015625 0.375q-0.703125 0 -1.265625 -0.234375q-0.546875 -0.234375 -0.8125 -0.59375q-0.25 -0.375 -0.34375 -1.0q-0.09375 -0.453125 -0.09375 -1.8125l0 -4.21875l-1.171875 0l0 -2.03125l1.171875 0l0 -1.921875l2.578125 -1.5l0 3.421875l1.75 0zm1.775177 -1.3125l0 -2.375l2.5625 0l0 2.375l-2.5625 0zm0 10.984375l0 -9.671875l2.5625 0l0 9.671875l-2.5625 0zm4.980179 -9.671875l2.359375 0l0 1.3125q1.265625 -1.53125 3.015625 -1.53125q0.9375 0 1.609375 0.390625q0.6875 0.375 1.125 1.140625q0.640625 -0.765625 1.375 -1.140625q0.75 -0.390625 1.578125 -0.390625q1.0625 0 1.796875 0.4375q0.75 0.421875 1.109375 1.265625q0.265625 0.625 0.265625 2.0l0 6.1875l-2.5625 0l0 -5.53125q0 -1.4375 -0.265625 -1.859375q-0.34375 -0.546875 -1.09375 -0.546875q-0.53125 0 -1.015625 0.328125q-0.46875 0.328125 -0.671875 0.96875q-0.203125 0.625 -0.203125 2.0l0 4.640625l-2.5625 0l0 -5.296875q0 -1.421875 -0.140625 -1.828125q-0.140625 -0.40625 -0.421875 -0.609375q-0.28125 -0.203125 -0.78125 -0.203125q-0.59375 0 -1.0625 0.328125q-0.46875 0.3125 -0.6875 0.921875q-0.203125 0.59375 -0.203125 1.984375l0 4.703125l-2.5625 0l0 -9.671875zm22.385277 6.59375l2.546875 0.421875q-0.484375 1.40625 -1.546875 2.140625q-1.0625 0.734375 -2.65625 0.734375q-2.515625 0 -3.7343826 -1.65625q-0.953125 -1.3125 -0.953125 -3.328125q0 -2.40625 1.25 -3.765625q1.2656326 -1.359375 3.1875076 -1.359375q2.15625 0 3.40625 1.421875q1.25 1.421875 1.1875 4.375l-6.40625 0q0.03125 1.140625 0.609375 1.78125q0.59375 0.625 1.484375 0.625q0.59375 0 1.0 -0.328125q0.421875 -0.328125 0.625 -1.0625zm0.15625 -2.59375q-0.03125 -1.109375 -0.578125 -1.6875q-0.546875 -0.578125 -1.328125 -0.578125q-0.84375 0 -1.390625 0.609375q-0.546875 0.609375 -0.53125 1.65625l3.828125 0zm4.031967 0.703125q0 -1.28125 0.625 -2.46875q0.625 -1.203125 1.78125 -1.828125q1.15625 -0.625 2.578125 -0.625q2.1875 0 3.59375 1.421875q1.40625 1.421875 1.40625 3.609375q0 2.1875 -1.421875 3.640625q-1.421875 1.4375 -3.5625 1.4375q-1.328125 0 -2.546875 -0.59375q-1.203125 -0.609375 -1.828125 -1.765625q-0.625 -1.171875 -0.625 -2.828125zm2.625 0.125q0 1.453125 0.671875 2.21875q0.6875 0.75 1.6875 0.75q1.0 0 1.671875 -0.75q0.6875 -0.765625 0.6875 -2.234375q0 -1.421875 -0.6875 -2.1875q-0.671875 -0.765625 -1.671875 -0.765625q-1.0 0 -1.6875 0.765625q-0.671875 0.765625 -0.671875 2.203125zm8.239731 -4.828125l1.421875 0l0 -0.734375q0 -1.21875 0.25 -1.8125q0.265625 -0.609375 0.953125 -0.984375q0.703125 -0.375 1.78125 -0.375q1.09375 0 2.140625 0.328125l-0.359375 1.78125q-0.609375 -0.140625 -1.171875 -0.140625q-0.546875 0 -0.796875 0.265625q-0.234375 0.25 -0.234375 0.984375l0 0.6875l1.90625 0l0 2.015625l-1.90625 0l0 7.65625l-2.5625 0l0 -7.65625l-1.421875 0l0 -2.015625zm16.212677 9.671875l-2.390625 0l0 -1.421875q-0.59375 0.828125 -1.40625 1.234375q-0.796875 0.40625 -1.609375 0.40625q-1.671875 0 -2.859375 -1.34375q-1.1875 -1.34375 -1.1875 -3.75q0 -2.453125 1.15625 -3.734375q1.15625 -1.28125 2.921875 -1.28125q1.625 0 2.8125 1.34375l0 -4.8125l2.5625 0l0 13.359375zm-6.84375 -5.046875q0 1.546875 0.4375 2.234375q0.609375 1.015625 1.71875 1.015625q0.890625 0 1.5 -0.75q0.625 -0.765625 0.625 -2.25q0 -1.671875 -0.609375 -2.40625q-0.59375 -0.734375 -1.53125 -0.734375q-0.90625 0 -1.53125 0.734375q-0.609375 0.71875 -0.609375 2.15625zm11.270981 -1.671875l-2.328125 -0.421875q0.40625 -1.40625 1.359375 -2.078125q0.953125 -0.671875 2.84375 -0.671875q1.703125 0 2.546875 0.40625q0.84375 0.40625 1.171875 1.03125q0.34375 0.625 0.34375 2.28125l-0.015625 3.0q0 1.265625 0.109375 1.875q0.125 0.609375 0.46875 1.296875l-2.53125 0q-0.109375 -0.25 -0.25 -0.75q-0.0625 -0.234375 -0.09375 -0.3125q-0.65625 0.640625 -1.40625 0.96875q-0.734375 0.3125 -1.59375 0.3125q-1.484375 0 -2.34375 -0.8125q-0.859375 -0.8125 -0.859375 -2.046875q0 -0.828125 0.390625 -1.46875q0.390625 -0.640625 1.09375 -0.96875q0.703125 -0.34375 2.03125 -0.609375q1.796875 -0.328125 2.484375 -0.625l0 -0.25q0 -0.75 -0.359375 -1.0625q-0.359375 -0.3125 -1.375 -0.3125q-0.6875 0 -1.078125 0.28125q-0.375 0.265625 -0.609375 0.9375zm3.421875 2.078125q-0.484375 0.15625 -1.5625 0.390625q-1.0625 0.21875 -1.390625 0.4375q-0.5 0.359375 -0.5 0.90625q0 0.53125 0.40625 0.9375q0.40625 0.390625 1.015625 0.390625q0.703125 0 1.328125 -0.46875q0.46875 -0.34375 0.609375 -0.84375q0.09375 -0.328125 0.09375 -1.25l0 -0.5zm3.8288422 -5.03125l2.71875 0l2.328125 6.859375l2.25 -6.859375l2.65625 0l-3.421875 9.3125l-0.609375 1.6875q-0.328125 0.84375 -0.640625 1.28125q-0.3125 0.453125 -0.703125 0.71875q-0.390625 0.28125 -0.96875 0.4375q-0.578125 0.15625 -1.3125 0.15625q-0.734375 0 -1.453125 -0.15625l-0.21875 -2.0q0.59375 0.125 1.078125 0.125q0.890625 0 1.3125 -0.53125q0.4375 -0.515625 0.671875 -1.328125l-3.6875 -9.703125zm15.828842 13.59375l-1.75 0q-1.390625 -2.09375 -2.125 -4.359375q-0.734375 -2.28125 -0.734375 -4.40625q0 -2.625 0.90625 -4.96875q0.78125 -2.046875 1.984375 -3.765625l1.75 0q-1.25 2.75 -1.71875 4.6875q-0.46875 1.9375 -0.46875 4.109375q0 1.5 0.28125 3.0625q0.28125 1.5625 0.765625 2.96875q0.3125 0.9375 1.109375 2.671875zm1.259552 0q0.765625 -1.609375 1.0625 -2.484375q0.3125 -0.859375 0.578125 -1.984375q0.265625 -1.140625 0.390625 -2.15625q0.125 -1.015625 0.125 -2.078125q0 -2.171875 -0.46875 -4.109375q-0.453125 -1.9375 -1.703125 -4.6875l1.734375 0q1.375 1.953125 2.140625 4.15625q0.765625 2.1875 0.765625 4.453125q0 1.90625 -0.609375 4.078125q-0.671875 2.4375 -2.25 4.8125l-1.765625 0z" fill-rule="nonzero"/><path fill="#000000" d="m45.68569 166.1014q0.84375 -1.765625 3.015625 -3.765625l1.25 1.140625q-2.03125 1.875 -2.765625 3.390625q-0.78125 1.640625 -0.78125 3.953125q0 1.953125 0.78125 3.671875q0.734375 1.578125 2.734375 3.78125l-1.234375 1.234375q-2.09375 -2.34375 -3.0 -4.25q-0.984375 -2.0625 -0.984375 -4.4375q0 -2.65625 0.984375 -4.71875zm20.84375 3.234375l-0.3125 6.328125q-0.15625 3.40625 -2.453125 3.40625l-2.484375 0l-0.296875 -2.234375l2.1875 0q0.6875 0 0.75 -0.984375l0.28125 -4.5l-3.5 0l-0.046875 0.328125q-0.53125 4.21875 -6.21875 7.859375l-1.515625 -1.90625q5.015625 -2.84375 5.5 -5.734375l0.09375 -0.546875l-2.765625 0l0 -2.015625l10.78125 0zm-6.78125 -5.296875q-1.75 3.78125 -5.96875 7.1875l-1.578125 -1.875q4.0625 -2.796875 5.9375 -7.28125l1.703125 1.078125q1.125 0.734375 -0.09375 0.890625zm9.078125 7.171875q-4.421875 -2.5625 -6.46875 -8.34375l1.953125 -0.8125q1.84375 4.9375 5.984375 7.109375l-1.46875 2.046875zm4.671875 -1.765625q-0.078125 0.09375 -0.828125 0.71875l-1.03125 -1.765625q2.328125 -2.40625 3.65625 -6.578125l1.65625 0.1875q0.59375 0.546875 -0.03125 0.9375l0 0.015625l1.25 0l0.375 -0.46875l1.84375 1.21875l-0.5625 0.6875l-1.015625 1.90625l1.8125 0l0 11.65625q0 1.546875 -1.421875 1.546875l-1.859375 0l-0.421875 -2.0l1.84375 0q0 0 0 0l0 -3.046875l-3.421875 0q0 2.859375 -1.796875 5.015625l-1.609375 -1.265625q1.5625 -1.703125 1.5625 -4.9375l0 -3.828125zm10.953125 -2.546875l1.8125 0q0.265625 0 0.296875 -0.1875l0.1875 -2.1875l-1.640625 0q-0.28125 3.390625 -3.890625 4.890625l-0.859375 -1.78125q2.71875 -1.09375 2.84375 -3.109375l-2.359375 0l0 -1.78125l7.96875 0l-0.40625 4.609375q-0.078125 1.546875 -1.546875 1.546875l-2.203125 0l-0.203125 -2.0zm1.734375 9.046875l0 3.5l-1.859375 0l0 -3.5l-3.640625 0l0 -2.0l3.640625 0l0 -1.109375l-1.15625 0l-0.921875 1.453125l-1.609375 -1.171875q1.328125 -1.75 1.65625 -3.96875l1.734375 0.28125q0.546875 0.546875 -0.046875 0.921875l-0.140625 0.46875l0.484375 0l0 -1.84375l1.5 0q1.375 0.140625 0.359375 0.890625l0 0.953125l2.59375 0l0 2.015625l-2.59375 0l0 1.109375l3.265625 0l0 2.0l-3.265625 0zm-9.890625 -11.203125q-0.234375 0.640625 -0.75 1.5625l1.328125 0l0.6875 -1.5625l-1.265625 0zm1.578125 7.9375l0.890625 0l0 -1.484375l-0.890625 0l0 1.484375zm-1.640625 0l0 -1.484375l-0.890625 0l0 1.484375l0.890625 0zm-0.890625 -4.59375l0 1.328125l0.890625 0l0 -1.328125l-0.890625 0zm2.53125 0l0 1.328125l0.890625 0l0 -1.328125l-0.890625 0zm20.921875 -4.765625q1.578125 1.765625 2.859375 3.90625l-1.90625 1.09375l-0.640625 -0.96875l-6.203125 0.625q-0.140625 0.875 -0.90625 0.109375l-0.546875 -2.234375l2.171875 0l1.5 -4.046875l2.203125 0.515625q0.765625 0.765625 -0.1875 0.90625l-1.4375 2.515625l2.390625 -0.15625l-0.984375 -1.3125l1.6875 -0.953125zm-3.703125 6.84375l0 0.65625l2.890625 0l0 -0.65625l-2.890625 0zm0 2.671875l0 0.65625l2.890625 0l0 -0.65625l-2.890625 0zm4.96875 -4.6875l0 9.65625q0 1.484375 -1.484375 1.484375l-1.515625 0l-0.3125 -2.0l1.3125 0q0 0.078125 -0.078125 0.0625l0 -1.84375l-2.890625 0l0 3.859375l-2.078125 0l0 -11.21875l7.046875 0zm2.984375 2.90625q1.375 0.140625 0.359375 0.890625l0 1.359375l4.0625 -1.5l0.890625 1.53125q0.1875 1.171875 -0.765625 0.625l-4.1875 1.109375l0 1.84375q0 0.21875 0.140625 0.21875l2.96875 0q0.265625 0 0.296875 -0.265625l0.296875 -1.5625l2.125 0.40625l-0.34375 2.0q-0.265625 1.4375 -1.546875 1.4375l-4.390625 0q-1.625 0 -1.625 -1.5625l0 -6.53125l1.71875 0zm5.015625 -5.6875q0.1875 1.203125 -0.765625 0.65625l-3.890625 1.09375l0 1.5625q0 0.21875 0.140625 0.21875l2.96875 0q0.1875 0 0.234375 -0.328125l0.171875 -1.671875l2.15625 0.421875l-0.1875 1.90625q-0.171875 1.671875 -1.703125 1.671875l-4.234375 0q-1.625 0 -1.625 -1.5625l0 -6.890625l1.71875 0q1.375 0.140625 0.359375 0.890625l0 1.984375l3.59375 -1.546875l1.0625 1.59375zm5.953125 3.15625l2.296875 0l0 2.234375l-2.296875 0l0 -2.234375zm0 6.828125l2.296875 0l0 2.234375l-2.296875 0l0 -2.234375z" fill-rule="nonzero"/><path fill="#000000" d="m127.59194 177.80452l-2.5625 0l0 -9.640625q-1.40625 1.3125 -3.3125 1.9375l0 -2.328125q1.015625 -0.328125 2.1875 -1.234375q1.171875 -0.921875 1.609375 -2.140625l2.078125 0l0 13.40625z" fill-rule="nonzero"/><path fill="#000000" d="m141.28017 173.4764q1.359375 1.296875 2.53125 2.65625l-1.9375 1.71875q-2.984375 -3.546875 -6.84375 -6.375l1.375 -1.78125q1.59375 0.96875 3.03125 2.28125q2.015625 -2.0 3.953125 -4.75l-11.3125 0.5l-0.390625 -2.453125l13.296875 -0.3125l0.875 -0.265625l1.25 1.34375q0.71875 1.140625 -0.390625 1.015625q-1.75 2.328125 -5.4375 6.421875zm8.003906 -1.5q8.078125 -3.390625 12.234375 -9.53125l1.65625 1.390625q1.109375 0.84375 -0.53125 1.171875q-1.375 1.796875 -3.515625 3.65625l0 10.25l-2.296875 0l0 -8.375q-2.15625 1.65625 -5.875 3.390625l-1.671875 -1.953125zm29.707031 -4.40625q-1.421875 8.0625 -9.625 11.703125l-1.78125 -1.875q7.53125 -3.078125 8.921875 -9.84375l-5.40625 0q-1.640625 2.71875 -3.703125 4.609375l-2.0 -1.3125q4.078125 -3.671875 5.234375 -8.578125l2.03125 0.703125q1.109375 0.53125 -0.015625 0.953125q-0.25 0.84375 -0.546875 1.40625l4.765625 0l0.78125 -0.453125l1.5 1.515625q0.875 0.859375 -0.15625 1.171875zm16.054688 8.96875l-2.296875 0l0 -0.8125l-7.640625 0l0 1.1875l-2.3125 0l0 -12.171875l12.25 0l0 11.796875zm-9.9375 -9.578125l0 6.53125l7.640625 0l0 -6.53125l-7.640625 0zm19.714844 3.953125q1.21875 -2.28125 1.953125 -5.65625l1.9375 0.546875q0.765625 0.765625 -0.125 0.90625q-0.5625 3.015625 -1.9375 5.515625l-1.828125 -1.3125zm9.4375 0.59375q-1.21875 -3.28125 -2.71875 -5.53125l1.671875 -1.03125q2.0625 2.625 2.96875 5.34375l-1.921875 1.21875zm-10.671875 -4.765625l2.375 0l0 2.0l-2.375 0l0 1.453125q1.421875 0.609375 2.75 2.0l-1.21875 2.03125q-1.125 -1.234375 -1.53125 -1.5l0 6.78125l-2.078125 0l0 -5.546875q-0.125 0.28125 -1.71875 2.21875l-1.5 -1.71875q2.203125 -2.65625 3.046875 -5.71875l-2.578125 0l0 -2.0l2.75 0l0 -1.828125l-2.171875 0.234375l-0.4375 -1.875q3.21875 -0.171875 6.578125 -1.125l0.53125 1.53125q0.375 1.09375 -0.828125 0.5625q-0.890625 0.203125 -1.59375 0.296875l0 2.203125zm7.28125 -4.53125q1.359375 0.171875 0.359375 0.90625l0 10.078125q0 1.484375 -1.484375 1.484375l-1.28125 0l-0.5 -2.0l1.1875 0q0 0 0 0l0 -10.46875l1.71875 0zm3.640625 9.921875q0.9375 0.75 -0.1875 0.90625q-2.515625 5.1875 -8.953125 6.203125l-0.515625 -2.046875q5.875 -1.0625 8.015625 -6.0625l1.640625 1.0zm8.1875 3.125q-0.90625 1.90625 -3.0 4.25l-1.234375 -1.234375q2.015625 -2.203125 2.734375 -3.78125q0.796875 -1.71875 0.796875 -3.671875q0 -2.3125 -0.796875 -3.953125q-0.71875 -1.515625 -2.765625 -3.390625l1.25 -1.140625q2.1875 2.015625 3.015625 3.765625q1.0 2.0625 1.0 4.71875q0 2.375 -1.0 4.4375z" fill-rule="nonzero"/><path fill="#000000" fill-opacity="0.0" d="m415.95538 28.782152l0 27.52756" fill-rule="evenodd"/><path stroke="#000000" stroke-width="3.0" stroke-linejoin="round" stroke-linecap="butt" d="m415.95538 28.782152l0 17.246298" fill-rule="evenodd"/><path fill="#000000" stroke="#000000" stroke-width="3.0" stroke-linecap="butt" d="m415.95538 46.02845l-3.3737488 -3.3737488l3.3737488 9.269302l3.3737488 -9.269302z" fill-rule="evenodd"/><path fill="#000000" fill-opacity="0.0" d="m134.23097 28.782152l0 104.06299" fill-rule="evenodd"/><path stroke="#999999" stroke-width="2.0" stroke-linejoin="round" stroke-linecap="butt" d="m134.23097 28.782152l0 97.20882" fill-rule="evenodd"/><path fill="#999999" stroke="#999999" stroke-width="2.0" stroke-linecap="butt" d="m134.23097 125.990974l-2.2491608 -2.2491684l2.2491608 6.179535l2.2491608 -6.179535z" fill-rule="evenodd"/><path fill="#000000" fill-opacity="0.0" d="m415.95538 82.86089l-0.5984192 49.984245" fill-rule="evenodd"/><path stroke="#980000" stroke-width="3.0" stroke-linejoin="round" stroke-linecap="butt" d="m415.95538 82.86089l-0.4753418 39.703728" fill-rule="evenodd"/><path fill="#980000" stroke="#980000" stroke-width="3.0" stroke-linecap="butt" d="m415.48004 122.56462l-3.33313 -3.4138947l3.2625427 9.309021l3.4844666 -9.228249z" fill-rule="evenodd"/><path fill="#000000" fill-opacity="0.0" d="m134.23097 186.92389c0 12.5 70.28346 24.992126 140.56694 25.0c70.28345 0.007873535 140.56693 -12.468506 140.56693 -24.937012" fill-rule="evenodd"/><path stroke="#000000" stroke-width="2.0" stroke-linejoin="round" stroke-linecap="butt" stroke-dasharray="8.0,6.0" d="m134.23097 186.92389c0 12.5 70.28346 24.992126 140.56694 25.0c35.141724 0.0039367676 70.28345 -3.1131897 96.63974 -7.789871c13.178162 -2.3383331 24.159943 -5.066559 31.847198 -7.9894714c0.9609375 -0.3653717 1.8703308 -0.7337799 2.7261353 -1.1048431l0.328125 -0.14480591" fill-rule="evenodd"/><path fill="#000000" stroke="#000000" stroke-width="2.0" stroke-linecap="butt" d="m408.5161 197.37958l4.649597 -8.465912l-9.003571 3.4965668z" fill-rule="evenodd"/><path fill="#000000" fill-opacity="0.0" d="m195.99475 204.23622l157.6063 0l0 42.015747l-157.6063 0z" fill-rule="evenodd"/><path fill="#000000" d="m248.03677 231.15622l-1.640625 0l0 -10.453125q-0.59375 0.5625 -1.5625 1.140625q-0.953125 0.5625 -1.71875 0.84375l0 -1.59375q1.375 -0.640625 2.40625 -1.5625q1.03125 -0.921875 1.453125 -1.78125l1.0625 0l0 13.40625zm8.605896 0.234375l3.875 -13.8125l1.3125 0l-3.859375 13.8125l-1.328125 0zm17.319733 -0.234375l-1.640625 0l0 -10.453125q-0.59375 0.5625 -1.5625 1.140625q-0.953125 0.5625 -1.71875 0.84375l0 -1.59375q1.375 -0.640625 2.40625 -1.5625q1.03125 -0.921875 1.453125 -1.78125l1.0625 0l0 13.40625zm4.203827 -6.59375q0 -2.359375 0.484375 -3.796875q0.484375 -1.453125 1.4375 -2.234375q0.96875 -0.78125 2.421875 -0.78125q1.078125 0 1.890625 0.4375q0.8125 0.421875 1.328125 1.25q0.53125 0.8125 0.828125 1.984375q0.3125 1.15625 0.3125 3.140625q0 2.359375 -0.484375 3.8125q-0.484375 1.4375 -1.453125 2.234375q-0.953125 0.78125 -2.421875 0.78125q-1.921875 0 -3.03125 -1.390625q-1.3125 -1.671875 -1.3125 -5.4375zm1.671875 0q0 3.296875 0.765625 4.390625q0.78125 1.078125 1.90625 1.078125q1.140625 0 1.90625 -1.09375q0.765625 -1.09375 0.765625 -4.375q0 -3.296875 -0.765625 -4.375q-0.765625 -1.078125 -1.921875 -1.078125q-1.125 0 -1.796875 0.953125q-0.859375 1.21875 -0.859375 4.5zm8.703857 0q0 -2.359375 0.484375 -3.796875q0.484375 -1.453125 1.4375 -2.234375q0.96875 -0.78125 2.421875 -0.78125q1.078125 0 1.890625 0.4375q0.8125 0.421875 1.328125 1.25q0.53125 0.8125 0.828125 1.984375q0.3125 1.15625 0.3125 3.140625q0 2.359375 -0.484375 3.8125q-0.484375 1.4375 -1.453125 2.234375q-0.953125 0.78125 -2.421875 0.78125q-1.921875 0 -3.03125 -1.390625q-1.3125 -1.671875 -1.3125 -5.4375zm1.671875 0q0 3.296875 0.765625 4.390625q0.78125 1.078125 1.90625 1.078125q1.140625 0 1.90625 -1.09375q0.765625 -1.09375 0.765625 -4.375q0 -3.296875 -0.765625 -4.375q-0.765625 -1.078125 -1.921875 -1.078125q-1.125 0 -1.796875 0.953125q-0.859375 1.21875 -0.859375 4.5zm8.703827 0q0 -2.359375 0.484375 -3.796875q0.484375 -1.453125 1.4375 -2.234375q0.96875 -0.78125 2.421875 -0.78125q1.078125 0 1.890625 0.4375q0.8125 0.421875 1.328125 1.25q0.53125 0.8125 0.828125 1.984375q0.3125 1.15625 0.3125 3.140625q0 2.359375 -0.484375 3.8125q-0.484375 1.4375 -1.453125 2.234375q-0.953125 0.78125 -2.421875 0.78125q-1.921875 0 -3.03125 -1.390625q-1.3125 -1.671875 -1.3125 -5.4375zm1.671875 0q0 3.296875 0.765625 4.390625q0.78125 1.078125 1.90625 1.078125q1.140625 0 1.90625 -1.09375q0.765625 -1.09375 0.765625 -4.375q0 -3.296875 -0.765625 -4.375q-0.765625 -1.078125 -1.921875 -1.078125q-1.125 0 -1.796875 0.953125q-0.859375 1.21875 -0.859375 4.5z" fill-rule="nonzero"/><path fill="#000000" fill-opacity="0.0" d="m284.1286 69.585304l-132.48038 0l0 63.37008l0.007949829 0" fill-rule="evenodd"/><path stroke="#999999" stroke-width="2.0" stroke-linejoin="round" stroke-linecap="butt" d="m284.1286 69.585304l-132.48038 0l0 56.515907" fill-rule="evenodd"/><path fill="#999999" stroke="#999999" stroke-width="2.0" stroke-linecap="butt" d="m151.64822 126.10121l-2.25177 -2.2465591l2.2563171 6.1769333l2.2420044 -6.182144z" fill-rule="evenodd"/><path fill="#000000" fill-opacity="0.0" d="m13.942257 56.30971l141.00787 0l0 42.01575l-141.00787 0z" fill-rule="evenodd"/><path fill="#999999" d="m23.473507 79.43283l1.59375 -0.21875q0.078125 1.53125 0.578125 2.109375q0.515625 0.5625 1.421875 0.5625q0.65625 0 1.140625 -0.296875q0.484375 -0.3125 0.65625 -0.828125q0.1875 -0.53125 0.1875 -1.6875l0 -9.203125l1.765625 0l0 9.109375q0 1.671875 -0.40625 2.59375q-0.40625 0.921875 -1.28125 1.40625q-0.875 0.484375 -2.0625 0.484375q-1.75 0 -2.6875 -1.015625q-0.9375 -1.015625 -0.90625 -3.015625zm16.34375 2.609375q-0.921875 0.765625 -1.765625 1.09375q-0.828125 0.3125 -1.796875 0.3125q-1.59375 0 -2.453125 -0.78125q-0.859375 -0.78125 -0.859375 -1.984375q0 -0.71875 0.328125 -1.296875q0.328125 -0.59375 0.84375 -0.9375q0.53125 -0.359375 1.1875 -0.546875q0.46875 -0.125 1.453125 -0.25q1.984375 -0.234375 2.921875 -0.5625q0.015625 -0.34375 0.015625 -0.421875q0 -1.0 -0.46875 -1.421875q-0.625 -0.546875 -1.875 -0.546875q-1.15625 0 -1.703125 0.40625q-0.546875 0.40625 -0.8125 1.421875l-1.609375 -0.21875q0.21875 -1.015625 0.71875 -1.640625q0.5 -0.640625 1.453125 -0.984375q0.953125 -0.34375 2.1875 -0.34375q1.25 0 2.015625 0.296875q0.78125 0.28125 1.140625 0.734375q0.375 0.4375 0.515625 1.109375q0.078125 0.421875 0.078125 1.515625l0 2.1875q0 2.28125 0.109375 2.890625q0.109375 0.59375 0.40625 1.15625l-1.703125 0q-0.265625 -0.515625 -0.328125 -1.1875zm-0.140625 -3.671875q-0.890625 0.375 -2.671875 0.625q-1.015625 0.140625 -1.4375 0.328125q-0.421875 0.1875 -0.65625 0.53125q-0.21875 0.34375 -0.21875 0.78125q0 0.65625 0.5 1.09375q0.5 0.4375 1.453125 0.4375q0.9375 0 1.671875 -0.40625q0.75 -0.421875 1.09375 -1.140625q0.265625 -0.5625 0.265625 -1.640625l0 -0.609375zm6.891342 4.859375l-3.6875 -9.671875l1.734375 0l2.078125 5.796875q0.328125 0.9375 0.625 1.9375q0.203125 -0.765625 0.609375 -1.828125l2.140625 -5.90625l1.6875 0l-3.65625 9.671875l-1.53125 0zm12.953125 -1.1875q-0.921875 0.765625 -1.765625 1.09375q-0.828125 0.3125 -1.796875 0.3125q-1.59375 0 -2.453125 -0.78125q-0.859375 -0.78125 -0.859375 -1.984375q0 -0.71875 0.328125 -1.296875q0.328125 -0.59375 0.84375 -0.9375q0.53125 -0.359375 1.1875 -0.546875q0.46875 -0.125 1.453125 -0.25q1.984375 -0.234375 2.921875 -0.5625q0.015625 -0.34375 0.015625 -0.421875q0 -1.0 -0.46875 -1.421875q-0.625 -0.546875 -1.875 -0.546875q-1.15625 0 -1.703125 0.40625q-0.546875 0.40625 -0.8125 1.421875l-1.609375 -0.21875q0.21875 -1.015625 0.71875 -1.640625q0.5 -0.640625 1.453125 -0.984375q0.953125 -0.34375 2.1875 -0.34375q1.25 0 2.015625 0.296875q0.78125 0.28125 1.140625 0.734375q0.375 0.4375 0.515625 1.109375q0.078125 0.421875 0.078125 1.515625l0 2.1875q0 2.28125 0.109375 2.890625q0.109375 0.59375 0.40625 1.15625l-1.703125 0q-0.265625 -0.515625 -0.328125 -1.1875zm-0.140625 -3.671875q-0.890625 0.375 -2.671875 0.625q-1.015625 0.140625 -1.4375 0.328125q-0.421875 0.1875 -0.65625 0.53125q-0.21875 0.34375 -0.21875 0.78125q0 0.65625 0.5 1.09375q0.5 0.4375 1.453125 0.4375q0.9375 0 1.671875 -0.40625q0.75 -0.421875 1.09375 -1.140625q0.265625 -0.5625 0.265625 -1.640625l0 -0.609375zm15.1059 4.859375l-1.640625 0l0 -10.453125q-0.59375 0.5625 -1.5625 1.140625q-0.953125 0.5625 -1.71875 0.84375l0 -1.59375q1.375 -0.640625 2.40625 -1.5625q1.03125 -0.921875 1.453125 -1.78125l1.0625 0l0 13.40625zm9.453842 0l0 -3.203125l-5.796875 0l0 -1.5l6.09375 -8.65625l1.34375 0l0 8.65625l1.796875 0l0 1.5l-1.796875 0l0 3.203125l-1.640625 0zm0 -4.703125l0 -6.015625l-4.1875 6.015625l4.1875 0z" fill-rule="nonzero"/><path fill="#999999" d="m97.86281 79.21408q3.046875 0.671875 5.9375 2.078125l-0.8125 1.640625q-2.75 -1.703125 -5.125 -2.296875q0 1.921875 -0.96875 2.890625q-0.890625 0.890625 -2.890625 0.890625q-1.5625 0 -2.53125 -0.96875q-0.65625 -0.671875 -0.65625 -1.859375q0 -1.03125 0.734375 -1.78125q0.96875 -0.953125 2.96875 -0.953125q0.59375 0 1.859375 0.0625l0 -2.296875l-5.640625 0.15625l0 -1.484375l5.640625 -0.15625l0 -2.59375l-6.984375 0.21875l0 -1.484375l6.984375 -0.21875l0 -2.890625l1.328125 0q0.828125 0.140625 0.15625 0.59375l0 2.140625l6.078125 -0.21875l0 1.484375l-6.078125 0.21875l0 2.671875l4.828125 -0.140625l0 1.484375l-4.828125 0.140625l0 2.671875zm-1.5625 1.125q-0.8125 -0.15625 -1.625 -0.15625q-1.484375 0 -2.078125 0.59375q-0.375 0.375 -0.375 0.96875q0 0.4375 0.375 0.8125q0.515625 0.515625 1.625 0.515625q0.890625 0 1.484375 -0.59375q0.671875 -0.65625 0.59375 -2.140625zm24.9375 -8.765625q-2.59375 0 -4.078125 0.515625q-1.640625 0.59375 -3.046875 2.015625q-1.40625 1.40625 -1.40625 3.625q0 1.78125 1.109375 2.90625q1.484375 1.484375 5.71875 1.625l-0.59375 1.640625q-4.375 -0.21875 -6.09375 -1.9375q-1.703125 -1.703125 -1.703125 -4.15625q0 -3.484375 2.75 -5.484375q-3.484375 0.515625 -7.125 1.03125l-0.453125 -1.703125q7.28125 -0.515625 14.625 -1.78125l0.296875 1.703125zm-1.625 5.796875q-1.640625 -1.1875 -2.828125 -1.859375l0.75 -0.890625q1.109375 0.671875 2.8125 1.859375l-0.734375 0.890625zm1.484375 -1.78125q-1.78125 -1.265625 -2.828125 -1.859375l0.75 -0.890625q1.03125 0.59375 2.8125 1.859375l-0.734375 0.890625z" fill-rule="nonzero"/><path fill="#000000" fill-opacity="0.0" d="m415.35696 86.845146l122.519684 0l0 42.01574l-122.519684 0z" fill-rule="evenodd"/><path fill="#980000" d="m424.8882 109.96827l1.59375 -0.21875q0.078125 1.53125 0.578125 2.109375q0.515625 0.5625 1.421875 0.5625q0.65625 0 1.140625 -0.296875q0.484375 -0.3125 0.65625 -0.828125q0.1875 -0.53125 0.1875 -1.6875l0 -9.203125l1.765625 0l0 9.109375q0 1.671875 -0.40625 2.59375q-0.40625 0.921875 -1.28125 1.40625q-0.875 0.484375 -2.0625 0.484375q-1.75 0 -2.6875 -1.015625q-0.9375 -1.015625 -0.90625 -3.015625zm16.34375 2.609375q-0.921875 0.765625 -1.765625 1.09375q-0.828125 0.3125 -1.796875 0.3125q-1.59375 0 -2.453125 -0.78125q-0.859375 -0.78125 -0.859375 -1.984375q0 -0.71875 0.328125 -1.296875q0.328125 -0.59375 0.84375 -0.9375q0.53125 -0.359375 1.1875 -0.546875q0.46875 -0.125 1.453125 -0.25q1.984375 -0.234375 2.921875 -0.5625q0.015625 -0.34375 0.015625 -0.421875q0 -1.0 -0.46875 -1.421875q-0.625 -0.546875 -1.875 -0.546875q-1.15625 0 -1.703125 0.40625q-0.546875 0.40625 -0.8125 1.421875l-1.609375 -0.21875q0.21875 -1.015625 0.71875 -1.640625q0.5 -0.640625 1.453125 -0.984375q0.953125 -0.34375 2.1875 -0.34375q1.25 0 2.015625 0.296875q0.78125 0.28125 1.140625 0.734375q0.375 0.4375 0.515625 1.109375q0.078125 0.421875 0.078125 1.515625l0 2.1875q0 2.28125 0.109375 2.890625q0.109375 0.59375 0.40625 1.15625l-1.703125 0q-0.265625 -0.515625 -0.328125 -1.1875zm-0.140625 -3.671875q-0.890625 0.375 -2.671875 0.625q-1.015625 0.140625 -1.4375 0.328125q-0.421875 0.1875 -0.65625 0.53125q-0.21875 0.34375 -0.21875 0.78125q0 0.65625 0.5 1.09375q0.5 0.4375 1.453125 0.4375q0.9375 0 1.671875 -0.40625q0.75 -0.421875 1.09375 -1.140625q0.265625 -0.5625 0.265625 -1.640625l0 -0.609375zm6.891327 4.859375l-3.6875 -9.671875l1.734375 0l2.078125 5.796875q0.328125 0.9375 0.625 1.9375q0.203125 -0.765625 0.609375 -1.828125l2.140625 -5.90625l1.6875 0l-3.65625 9.671875l-1.53125 0zm12.953125 -1.1875q-0.921875 0.765625 -1.765625 1.09375q-0.828125 0.3125 -1.796875 0.3125q-1.59375 0 -2.453125 -0.78125q-0.859375 -0.78125 -0.859375 -1.984375q0 -0.71875 0.328125 -1.296875q0.328125 -0.59375 0.84375 -0.9375q0.53125 -0.359375 1.1875 -0.546875q0.46875 -0.125 1.453125 -0.25q1.984375 -0.234375 2.921875 -0.5625q0.015625 -0.34375 0.015625 -0.421875q0 -1.0 -0.46875 -1.421875q-0.625 -0.546875 -1.875 -0.546875q-1.15625 0 -1.703125 0.40625q-0.546875 0.40625 -0.8125 1.421875l-1.609375 -0.21875q0.21875 -1.015625 0.71875 -1.640625q0.5 -0.640625 1.453125 -0.984375q0.953125 -0.34375 2.1875 -0.34375q1.25 0 2.015625 0.296875q0.78125 0.28125 1.140625 0.734375q0.375 0.4375 0.515625 1.109375q0.078125 0.421875 0.078125 1.515625l0 2.1875q0 2.28125 0.109375 2.890625q0.109375 0.59375 0.40625 1.15625l-1.703125 0q-0.265625 -0.515625 -0.328125 -1.1875zm-0.140625 -3.671875q-0.890625 0.375 -2.671875 0.625q-1.015625 0.140625 -1.4375 0.328125q-0.421875 0.1875 -0.65625 0.53125q-0.21875 0.34375 -0.21875 0.78125q0 0.65625 0.5 1.09375q0.5 0.4375 1.453125 0.4375q0.9375 0 1.671875 -0.40625q0.75 -0.421875 1.09375 -1.140625q0.265625 -0.5625 0.265625 -1.640625l0 -0.609375zm9.922607 4.859375l-1.640625 0l0 -10.453125q-0.59375 0.5625 -1.5625 1.140625q-0.953125 0.5625 -1.71875 0.84375l0 -1.59375q1.375 -0.640625 2.40625 -1.5625q1.03125 -0.921875 1.453125 -1.78125l1.0625 0l0 13.40625zm4.203827 -3.5l1.71875 -0.140625q0.1875 1.25 0.875 1.890625q0.703125 0.625 1.6875 0.625q1.1875 0 2.0 -0.890625q0.828125 -0.890625 0.828125 -2.359375q0 -1.40625 -0.796875 -2.21875q-0.78125 -0.8125 -2.0625 -0.8125q-0.78125 0 -1.421875 0.359375q-0.640625 0.359375 -1.0 0.9375l-1.546875 -0.203125l1.296875 -6.859375l6.640625 0l0 1.5625l-5.328125 0l-0.71875 3.59375q1.203125 -0.84375 2.515625 -0.84375q1.75 0 2.953125 1.21875q1.203125 1.203125 1.203125 3.109375q0 1.8125 -1.046875 3.140625q-1.296875 1.625 -3.515625 1.625q-1.8125 0 -2.96875 -1.015625q-1.15625 -1.03125 -1.3125 -2.71875z" fill-rule="nonzero"/><path fill="#980000" d="m498.4692 99.81202l1.40625 0.140625q0.59375 0.078125 0.078125 0.453125l0 5.34375q0 2.59375 -0.890625 4.296875l3.5625 2.90625l-1.109375 1.484375l-3.125 -3.125q-1.921875 2.671875 -6.96875 3.859375l-0.59375 -1.625q3.859375 -0.59375 5.71875 -2.453125q1.921875 -1.9375 1.921875 -5.859375l0 -5.421875zm-2.59375 8.453125q-2.375 1.9375 -8.3125 5.421875q-0.15625 0.59375 -0.515625 0.078125l-0.75 -1.5625q0.453125 -0.140625 1.859375 -0.890625l-0.453125 -11.0625l1.5625 0.15625q0.59375 0.078125 0.078125 0.4375l0.375 9.734375q3.328125 -1.9375 5.40625 -3.5625l0.75 1.25zm-3.125 -7.640625q1.484375 1.046875 2.75 2.75l-1.484375 1.109375q-1.328125 -1.859375 -2.515625 -2.671875l1.25 -1.1875zm22.265594 -1.109375l3.640625 0l0.296875 -0.21875l1.109375 1.109375l-0.296875 0.140625q-1.1875 1.640625 -2.4375 2.90625q1.546875 1.109375 4.296875 1.921875l-0.734375 1.484375q-2.90625 -1.109375 -4.609375 -2.515625q-2.515625 1.921875 -5.5624695 2.96875l-0.59375 -1.34375q3.0468445 -1.03125 5.1249695 -2.515625q-0.890625 -1.046875 -1.421875 -1.859375q-1.109375 1.40625 -2.5937195 2.515625l-0.890625 -1.1875q2.3749695 -1.78125 3.7812195 -4.59375l1.34375 0.296875q0.375 0.140625 -0.15625 0.375l-0.296875 0.515625zm-4.5155945 10.46875q0 2.4375 -1.78125 2.4375l-1.265625 0l-0.15625 -1.40625l0.828125 0q0.890625 0 0.890625 -1.1875q0 -1.625 -1.5625 -4.59375l1.5625 -4.984375l-2.375 0l0 15.078125l-1.484375 0l0 -16.265625l4.375 0l0.140625 -0.296875l1.265625 1.046875l-0.296875 0.296875l-1.921875 5.125q1.78125 2.21875 1.78125 4.75zm4.2187195 -9.28125q0.234375 0.59375 1.5625 1.921875q1.109375 -1.109375 1.703125 -1.921875l-3.265625 0zm-3.1874695 6.90625l4.6718445 0l0 -1.71875l1.421875 0q0.515625 0.078125 0.0625 0.375l0 1.34375l2.234375 0l0 1.1875l-2.234375 0l0 2.21875l3.640625 0l0 1.1875l-3.640625 0l0 3.046875l-1.484375 0l0 -3.046875l-5.3437195 0l0 -1.1875l2.3124695 0l0 -2.21875l-1.6405945 0l0 -1.1875zm2.8905945 3.40625l1.78125 0l0 -2.21875l-1.78125 0l0 2.21875z" fill-rule="nonzero"/><path fill="#d9ead3" d="m282.9475 141.85844l0 0c0 -4.9779053 4.0354004 -9.013306 9.013306 -9.013306l246.7923 0c2.390442 0 4.6830444 0.9496155 6.373352 2.6399384c1.6903076 1.6903229 2.6399536 3.982895 2.6399536 6.3733673l0 36.05214c0 4.9779053 -4.0354004 9.013306 -9.013306 9.013306l-246.7923 0l0 0c-4.9779053 0 -9.013306 -4.0354004 -9.013306 -9.013306z" fill-rule="evenodd"/><path stroke="#000000" stroke-width="1.0" stroke-linejoin="round" stroke-linecap="butt" d="m282.9475 141.85844l0 0c0 -4.9779053 4.0354004 -9.013306 9.013306 -9.013306l246.7923 0c2.390442 0 4.6830444 0.9496155 6.373352 2.6399384c1.6903076 1.6903229 2.6399536 3.982895 2.6399536 6.3733673l0 36.05214c0 4.9779053 -4.0354004 9.013306 -9.013306 9.013306l-246.7923 0l0 0c-4.9779053 0 -9.013306 -4.0354004 -9.013306 -9.013306z" fill-rule="evenodd"/><path fill="#000000" d="m356.71222 148.99202l-2.53125 0.453125q-0.125 -0.75 -0.578125 -1.125q-0.453125 -0.390625 -1.171875 -0.390625q-0.953125 0 -1.53125 0.65625q-0.5625 0.65625 -0.5625 2.203125q0 1.734375 0.578125 2.4375q0.578125 0.703125 1.546875 0.703125q0.734375 0 1.203125 -0.40625q0.46875 -0.421875 0.65625 -1.421875l2.515625 0.421875q-0.390625 1.734375 -1.515625 2.625q-1.109375 0.875 -2.96875 0.875q-2.125 0 -3.390625 -1.328125q-1.25 -1.34375 -1.25 -3.71875q0 -2.390625 1.265625 -3.71875q1.265625 -1.34375 3.421875 -1.34375q1.765625 0 2.796875 0.765625q1.046875 0.75 1.515625 2.3125zm1.9382019 6.8125l0 -13.359375l2.5625 0l0 13.359375l-2.5625 0zm4.589569 -4.96875q0 -1.28125 0.625 -2.46875q0.625 -1.203125 1.78125 -1.828125q1.15625 -0.625 2.578125 -0.625q2.1875 0 3.59375 1.421875q1.40625 1.421875 1.40625 3.609375q0 2.1875 -1.421875 3.640625q-1.421875 1.4375 -3.5625 1.4375q-1.328125 0 -2.546875 -0.59375q-1.203125 -0.609375 -1.828125 -1.765625q-0.625 -1.171875 -0.625 -2.828125zm2.625 0.125q0 1.453125 0.671875 2.21875q0.6875 0.75 1.6875 0.75q1.0 0 1.671875 -0.75q0.6875 -0.765625 0.6875 -2.234375q0 -1.421875 -0.6875 -2.1875q-0.671875 -0.765625 -1.671875 -0.765625q-1.0 0 -1.6875 0.765625q-0.671875 0.765625 -0.671875 2.203125zm17.802216 -1.96875l-2.53125 0.453125q-0.125 -0.75 -0.578125 -1.125q-0.453125 -0.390625 -1.171875 -0.390625q-0.953125 0 -1.53125 0.65625q-0.5625 0.65625 -0.5625 2.203125q0 1.734375 0.578125 2.4375q0.578125 0.703125 1.546875 0.703125q0.734375 0 1.203125 -0.40625q0.46875 -0.421875 0.65625 -1.421875l2.515625 0.421875q-0.390625 1.734375 -1.515625 2.625q-1.109375 0.875 -2.96875 0.875q-2.125 0 -3.390625 -1.328125q-1.25 -1.34375 -1.25 -3.71875q0 -2.390625 1.265625 -3.71875q1.265625 -1.34375 3.421875 -1.34375q1.765625 0 2.796875 0.765625q1.046875 0.75 1.515625 2.3125zm1.8444824 6.8125l0 -13.359375l2.5625 0l0 7.09375l3.0 -3.40625l3.140625 0l-3.296875 3.53125l3.53125 6.140625l-2.75 0l-2.4375 -4.34375l-1.1875 1.25l0 3.09375l-2.5625 0zm8.953827 3.6875l0 -1.65625l10.640625 0l0 1.65625l-10.640625 0zm11.656982 -3.046875l2.921875 0.359375q0.0625 0.5 0.328125 0.6875q0.375 0.28125 1.15625 0.28125q1.0 0 1.5 -0.296875q0.328125 -0.203125 0.515625 -0.65625q0.109375 -0.3125 0.109375 -1.171875l0 -1.40625q-1.140625 1.5625 -2.890625 1.5625q-1.953125 0 -3.09375 -1.65625q-0.890625 -1.296875 -0.890625 -3.234375q0 -2.4375 1.171875 -3.71875q1.171875 -1.28125 2.90625 -1.28125q1.796875 0 2.96875 1.578125l0 -1.359375l2.390625 0l0 8.671875q0 1.71875 -0.28125 2.5625q-0.28125 0.84375 -0.796875 1.328125q-0.5 0.484375 -1.359375 0.75q-0.84375 0.28125 -2.15625 0.28125q-2.453125 0 -3.484375 -0.84375q-1.03125 -0.84375 -1.03125 -2.125q0 -0.140625 0.015625 -0.3125zm2.28125 -5.671875q0 1.53125 0.59375 2.25q0.59375 0.71875 1.46875 0.71875q0.9375 0 1.578125 -0.734375q0.65625 -0.734375 0.65625 -2.171875q0 -1.515625 -0.625 -2.234375q-0.609375 -0.734375 -1.5625 -0.734375q-0.921875 0 -1.515625 0.71875q-0.59375 0.71875 -0.59375 2.1875zm14.942841 1.953125l2.546875 0.421875q-0.484375 1.40625 -1.546875 2.140625q-1.0625 0.734375 -2.65625 0.734375q-2.515625 0 -3.734375 -1.65625q-0.953125 -1.3125 -0.953125 -3.328125q0 -2.40625 1.25 -3.765625q1.265625 -1.359375 3.1875 -1.359375q2.15625 0 3.40625 1.421875q1.25 1.421875 1.1875 4.375l-6.40625 0q0.03125 1.140625 0.609375 1.78125q0.59375 0.625 1.484375 0.625q0.59375 0 1.0 -0.328125q0.421875 -0.328125 0.625 -1.0625zm0.15625 -2.59375q-0.03125 -1.109375 -0.578125 -1.6875q-0.546875 -0.578125 -1.328125 -0.578125q-0.84375 0 -1.390625 0.609375q-0.546875 0.609375 -0.53125 1.65625l3.828125 0zm9.063232 -4.0l0 2.03125l-1.75 0l0 3.90625q0 1.1875 0.046875 1.390625q0.046875 0.1875 0.21875 0.3125q0.1875 0.125 0.4375 0.125q0.359375 0 1.03125 -0.25l0.21875 2.0q-0.890625 0.375 -2.015625 0.375q-0.703125 0 -1.265625 -0.234375q-0.546875 -0.234375 -0.8125 -0.59375q-0.25 -0.375 -0.34375 -1.0q-0.09375 -0.453125 -0.09375 -1.8125l0 -4.21875l-1.171875 0l0 -2.03125l1.171875 0l0 -1.921875l2.578125 -1.5l0 3.421875l1.75 0zm6.212677 0l0 2.03125l-1.75 0l0 3.90625q0 1.1875 0.046875 1.390625q0.046875 0.1875 0.21875 0.3125q0.1875 0.125 0.4375 0.125q0.359375 0 1.03125 -0.25l0.21875 2.0q-0.890625 0.375 -2.015625 0.375q-0.703125 0 -1.265625 -0.234375q-0.546875 -0.234375 -0.8125 -0.59375q-0.25 -0.375 -0.34375 -1.0q-0.09375 -0.453125 -0.09375 -1.8125l0 -4.21875l-1.171875 0l0 -2.03125l1.171875 0l0 -1.921875l2.578125 -1.5l0 3.421875l1.75 0zm1.775177 -1.3125l0 -2.375l2.5625 0l0 2.375l-2.5625 0zm0 10.984375l0 -9.671875l2.5625 0l0 9.671875l-2.5625 0zm4.9801636 -9.671875l2.359375 0l0 1.3125q1.265625 -1.53125 3.015625 -1.53125q0.9375 0 1.609375 0.390625q0.6875 0.375 1.125 1.140625q0.640625 -0.765625 1.375 -1.140625q0.75 -0.390625 1.578125 -0.390625q1.0625 0 1.796875 0.4375q0.75 0.421875 1.109375 1.265625q0.265625 0.625 0.265625 2.0l0 6.1875l-2.5625 0l0 -5.53125q0 -1.4375 -0.265625 -1.859375q-0.34375 -0.546875 -1.09375 -0.546875q-0.53125 0 -1.015625 0.328125q-0.46875 0.328125 -0.671875 0.96875q-0.203125 0.625 -0.203125 2.0l0 4.640625l-2.5625 0l0 -5.296875q0 -1.421875 -0.140625 -1.828125q-0.140625 -0.40625 -0.421875 -0.609375q-0.28125 -0.203125 -0.78125 -0.203125q-0.59375 0 -1.0625 0.328125q-0.46875 0.3125 -0.6875 0.921875q-0.203125 0.59375 -0.203125 1.984375l0 4.703125l-2.5625 0l0 -9.671875zm22.385284 6.59375l2.546875 0.421875q-0.484375 1.40625 -1.546875 2.140625q-1.0625 0.734375 -2.65625 0.734375q-2.515625 0 -3.734375 -1.65625q-0.953125 -1.3125 -0.953125 -3.328125q0 -2.40625 1.25 -3.765625q1.265625 -1.359375 3.1875 -1.359375q2.15625 0 3.40625 1.421875q1.25 1.421875 1.1875 4.375l-6.40625 0q0.03125 1.140625 0.609375 1.78125q0.59375 0.625 1.484375 0.625q0.59375 0 1.0 -0.328125q0.421875 -0.328125 0.625 -1.0625zm0.15625 -2.59375q-0.03125 -1.109375 -0.578125 -1.6875q-0.546875 -0.578125 -1.328125 -0.578125q-0.84375 0 -1.390625 0.609375q-0.546875 0.609375 -0.53125 1.65625l3.828125 0zm8.860077 9.59375l-1.75 0q-1.390625 -2.09375 -2.125 -4.359375q-0.734375 -2.28125 -0.734375 -4.40625q0 -2.625 0.90625 -4.96875q0.78125 -2.046875 1.984375 -3.765625l1.75 0q-1.25 2.75 -1.71875 4.6875q-0.46875 1.9375 -0.46875 4.109375q0 1.5 0.28125 3.0625q0.28125 1.5625 0.765625 2.96875q0.3125 0.9375 1.109375 2.671875zm1.259552 0q0.765625 -1.609375 1.0625 -2.484375q0.3125 -0.859375 0.578125 -1.984375q0.265625 -1.140625 0.390625 -2.15625q0.125 -1.015625 0.125 -2.078125q0 -2.171875 -0.46875 -4.109375q-0.453125 -1.9375 -1.703125 -4.6875l1.734375 0q1.375 1.953125 2.140625 4.15625q0.765625 2.1875 0.765625 4.453125q0 1.90625 -0.609375 4.078125q-0.671875 2.4375 -2.25 4.8125l-1.765625 0z" fill-rule="nonzero"/><path fill="#000000" d="m343.99332 166.1014q0.84375 -1.765625 3.015625 -3.765625l1.25 1.140625q-2.03125 1.875 -2.765625 3.390625q-0.78125 1.640625 -0.78125 3.953125q0 1.953125 0.78125 3.671875q0.734375 1.578125 2.734375 3.78125l-1.234375 1.234375q-2.09375 -2.34375 -3.0 -4.25q-0.984375 -2.0625 -0.984375 -4.4375q0 -2.65625 0.984375 -4.71875zm20.84375 3.234375l-0.3125 6.328125q-0.15625 3.40625 -2.453125 3.40625l-2.484375 0l-0.296875 -2.234375l2.1875 0q0.6875 0 0.75 -0.984375l0.28125 -4.5l-3.5 0l-0.046875 0.328125q-0.53125 4.21875 -6.21875 7.859375l-1.515625 -1.90625q5.015625 -2.84375 5.5 -5.734375l0.09375 -0.546875l-2.765625 0l0 -2.015625l10.78125 0zm-6.78125 -5.296875q-1.75 3.78125 -5.96875 7.1875l-1.578125 -1.875q4.0625 -2.796875 5.9375 -7.28125l1.703125 1.078125q1.125 0.734375 -0.09375 0.890625zm9.078125 7.171875q-4.421875 -2.5625 -6.46875 -8.34375l1.953125 -0.8125q1.84375 4.9375 5.984375 7.109375l-1.46875 2.046875zm4.671875 -1.765625q-0.078125 0.09375 -0.828125 0.71875l-1.03125 -1.765625q2.328125 -2.40625 3.65625 -6.578125l1.65625 0.1875q0.59375 0.546875 -0.03125 0.9375l0 0.015625l1.25 0l0.375 -0.46875l1.84375 1.21875l-0.5625 0.6875l-1.015625 1.90625l1.8125 0l0 11.65625q0 1.546875 -1.421875 1.546875l-1.859375 0l-0.421875 -2.0l1.84375 0q0 0 0 0l0 -3.046875l-3.421875 0q0 2.859375 -1.796875 5.015625l-1.609375 -1.265625q1.5625 -1.703125 1.5625 -4.9375l0 -3.828125zm10.953125 -2.546875l1.8125 0q0.265625 0 0.296875 -0.1875l0.1875 -2.1875l-1.640625 0q-0.28125 3.390625 -3.890625 4.890625l-0.859375 -1.78125q2.71875 -1.09375 2.84375 -3.109375l-2.359375 0l0 -1.78125l7.96875 0l-0.40625 4.609375q-0.078125 1.546875 -1.546875 1.546875l-2.203125 0l-0.203125 -2.0zm1.734375 9.046875l0 3.5l-1.859375 0l0 -3.5l-3.640625 0l0 -2.0l3.640625 0l0 -1.109375l-1.15625 0l-0.921875 1.453125l-1.609375 -1.171875q1.328125 -1.75 1.65625 -3.96875l1.734375 0.28125q0.546875 0.546875 -0.046875 0.921875l-0.140625 0.46875l0.484375 0l0 -1.84375l1.5 0q1.375 0.140625 0.359375 0.890625l0 0.953125l2.59375 0l0 2.015625l-2.59375 0l0 1.109375l3.265625 0l0 2.0l-3.265625 0zm-9.890625 -11.203125q-0.234375 0.640625 -0.75 1.5625l1.328125 0l0.6875 -1.5625l-1.265625 0zm1.578125 7.9375l0.890625 0l0 -1.484375l-0.890625 0l0 1.484375zm-1.640625 0l0 -1.484375l-0.890625 0l0 1.484375l0.890625 0zm-0.890625 -4.59375l0 1.328125l0.890625 0l0 -1.328125l-0.890625 0zm2.53125 0l0 1.328125l0.890625 0l0 -1.328125l-0.890625 0zm20.921875 -4.765625q1.578125 1.765625 2.859375 3.90625l-1.90625 1.09375l-0.640625 -0.96875l-6.203125 0.625q-0.140625 0.875 -0.90625 0.109375l-0.546875 -2.234375l2.171875 0l1.5 -4.046875l2.203125 0.515625q0.765625 0.765625 -0.1875 0.90625l-1.4375 2.515625l2.390625 -0.15625l-0.984375 -1.3125l1.6875 -0.953125zm-3.703125 6.84375l0 0.65625l2.890625 0l0 -0.65625l-2.890625 0zm0 2.671875l0 0.65625l2.890625 0l0 -0.65625l-2.890625 0zm4.96875 -4.6875l0 9.65625q0 1.484375 -1.484375 1.484375l-1.515625 0l-0.3125 -2.0l1.3125 0q0 0.078125 -0.078125 0.0625l0 -1.84375l-2.890625 0l0 3.859375l-2.078125 0l0 -11.21875l7.046875 0zm2.984375 2.90625q1.375 0.140625 0.359375 0.890625l0 1.359375l4.0625 -1.5l0.890625 1.53125q0.1875 1.171875 -0.765625 0.625l-4.1875 1.109375l0 1.84375q0 0.21875 0.140625 0.21875l2.96875 0q0.265625 0 0.296875 -0.265625l0.296875 -1.5625l2.125 0.40625l-0.34375 2.0q-0.265625 1.4375 -1.546875 1.4375l-4.390625 0q-1.625 0 -1.625 -1.5625l0 -6.53125l1.71875 0zm5.015625 -5.6875q0.1875 1.203125 -0.765625 0.65625l-3.890625 1.09375l0 1.5625q0 0.21875 0.140625 0.21875l2.96875 0q0.1875 0 0.234375 -0.328125l0.171875 -1.671875l2.15625 0.421875l-0.1875 1.90625q-0.171875 1.671875 -1.703125 1.671875l-4.234375 0q-1.625 0 -1.625 -1.5625l0 -6.890625l1.71875 0q1.375 0.140625 0.359375 0.890625l0 1.984375l3.59375 -1.546875l1.0625 1.59375zm5.953125 3.15625l2.296875 0l0 2.234375l-2.296875 0l0 -2.234375zm0 6.828125l2.296875 0l0 2.234375l-2.296875 0l0 -2.234375z" fill-rule="nonzero"/><path fill="#000000" d="m425.89957 177.80452l-2.5625 0l0 -9.640625q-1.40625 1.3125 -3.3125 1.9375l0 -2.328125q1.015625 -0.328125 2.1875 -1.234375q1.171875 -0.921875 1.609375 -2.140625l2.078125 0l0 13.40625z" fill-rule="nonzero"/><path fill="#000000" d="m439.4784 167.33577l6.890625 0l0 2.234375l-6.828125 0l0 1.03125q0 5.671875 -5.0625 8.671875l-2.078125 -1.59375q4.84375 -2.515625 4.84375 -7.078125l0 -1.03125l-7.34375 0l0 -2.234375l7.265625 0l0 -4.453125l1.796875 0q1.53125 0.140625 0.515625 1.03125l0 3.421875zm20.496094 -1.78125q-1.53125 4.21875 -3.5 6.796875q-2.46875 3.21875 -6.109375 5.515625l-2.3125 -1.8125q3.703125 -1.90625 5.953125 -4.59375q2.34375 -2.78125 3.75 -8.015625l2.34375 1.03125q1.046875 0.609375 -0.125 1.078125zm8.792969 5.359375q1.21875 -2.28125 1.953125 -5.65625l1.9375 0.546875q0.765625 0.765625 -0.125 0.90625q-0.5625 3.015625 -1.9375 5.515625l-1.828125 -1.3125zm9.4375 0.59375q-1.21875 -3.28125 -2.71875 -5.53125l1.671875 -1.03125q2.0625 2.625 2.96875 5.34375l-1.921875 1.21875zm-10.671875 -4.765625l2.375 0l0 2.0l-2.375 0l0 1.453125q1.421875 0.609375 2.75 2.0l-1.21875 2.03125q-1.125 -1.234375 -1.53125 -1.5l0 6.78125l-2.078125 0l0 -5.546875q-0.125 0.28125 -1.71875 2.21875l-1.5 -1.71875q2.203125 -2.65625 3.046875 -5.71875l-2.578125 0l0 -2.0l2.75 0l0 -1.828125l-2.171875 0.234375l-0.4375 -1.875q3.21875 -0.171875 6.578125 -1.125l0.53125 1.53125q0.375 1.09375 -0.828125 0.5625q-0.890625 0.203125 -1.59375 0.296875l0 2.203125zm7.28125 -4.53125q1.359375 0.171875 0.359375 0.90625l0 10.078125q0 1.484375 -1.484375 1.484375l-1.28125 0l-0.5 -2.0l1.1875 0q0 0 0 0l0 -10.46875l1.71875 0zm3.640625 9.921875q0.9375 0.75 -0.1875 0.90625q-2.515625 5.1875 -8.953125 6.203125l-0.515625 -2.046875q5.875 -1.0625 8.015625 -6.0625l1.640625 1.0zm8.1875 3.125q-0.90625 1.90625 -3.0 4.25l-1.234375 -1.234375q2.015625 -2.203125 2.734375 -3.78125q0.796875 -1.71875 0.796875 -3.671875q0 -2.3125 -0.796875 -3.953125q-0.71875 -1.515625 -2.765625 -3.390625l1.25 -1.140625q2.1875 2.015625 3.015625 3.765625q1.0 2.0625 1.0 4.71875q0 2.375 -1.0 4.4375z" fill-rule="nonzero"/><path fill="#ffffff" d="m209.88977 65.385826l11.527557 0l0 11.527557l-11.527557 0z" fill-rule="evenodd"/><path fill="#000000" fill-opacity="0.0" d="m215.10498 28.782152l0 75.06272l181.38583 0l0 29.000267" fill-rule="evenodd"/><path stroke="#980000" stroke-width="3.0" stroke-linejoin="round" stroke-linecap="butt" d="m215.10498 28.782152l0 75.06271l181.38583 0l0 18.719017" fill-rule="evenodd"/><path fill="#980000" stroke="#980000" stroke-width="3.0" stroke-linecap="butt" d="m396.4908 122.56388l-3.3737488 -3.3737488l3.3737488 9.26931l3.3737488 -9.26931z" fill-rule="evenodd"/></g></svg>