<svg version="1.1" viewBox="0.0 0.0 585.3648293963255 164.0236220472441" fill="none" stroke="none" stroke-linecap="square" stroke-miterlimit="10" xmlns:xlink="http://www.w3.org/1999/xlink" xmlns="http://www.w3.org/2000/svg"><clipPath id="p.0"><path d="m0 0l585.3648 0l0 164.02362l-585.3648 0l0 -164.02362z" clip-rule="nonzero"/></clipPath><g clip-path="url(#p.0)"><path fill="#000000" fill-opacity="0.0" d="m0 0l585.3648 0l0 164.02362l-585.3648 0z" fill-rule="evenodd"/><path fill="#cfe2f3" d="m3.047244 12.666788l0 0c0 -3.348565 2.714548 -6.0631137 6.063113 -6.0631137l376.56668 0c1.6080627 0 3.150238 0.6387906 4.2872925 1.775845c1.1370544 1.1370544 1.7758179 2.6792307 1.7758179 4.2872686l0 24.251726c0 3.3485641 -2.7145386 6.063114 -6.0631104 6.063114l-376.56668 0l0 0c-3.348565 0 -6.063113 -2.71455 -6.063113 -6.063114z" fill-rule="evenodd"/><path stroke="#000000" stroke-width="1.0" stroke-linejoin="round" stroke-linecap="butt" d="m3.047244 12.666788l0 0c0 -3.348565 2.714548 -6.0631137 6.063113 -6.0631137l376.56668 0c1.6080627 0 3.150238 0.6387906 4.2872925 1.775845c1.1370544 1.1370544 1.7758179 2.6792307 1.7758179 4.2872686l0 24.251726c0 3.3485641 -2.7145386 6.063114 -6.0631104 6.063114l-376.56668 0l0 0c-3.348565 0 -6.063113 -2.71455 -6.063113 -6.063114z" fill-rule="evenodd"/><path fill="#000000" d="m79.009094 27.368898l2.625 -0.25q0.234375 1.3125 0.953125 1.9375q0.734375 0.609375 1.96875 0.609375q1.296875 0 1.953125 -0.546875q0.671875 -0.546875 0.671875 -1.28125q0 -0.484375 -0.28125 -0.8125q-0.28125 -0.328125 -0.96875 -0.578125q-0.484375 -0.15625 -2.171875 -0.578125q-2.15625 -0.546875 -3.03125 -1.328125q-1.234375 -1.09375 -1.234375 -2.6875q0 -1.015625 0.578125 -1.90625q0.578125 -0.890625 1.65625 -1.34375q1.09375 -0.46875 2.640625 -0.46875q2.515625 0 3.78125 1.109375q1.28125 1.09375 1.34375 2.9375l-2.703125 0.109375q-0.171875 -1.03125 -0.75 -1.46875q-0.5625 -0.453125 -1.703125 -0.453125q-1.171875 0 -1.84375 0.46875q-0.421875 0.3125 -0.421875 0.84375q0 0.46875 0.40625 0.796875q0.5 0.4375 2.46875 0.90625q1.96875 0.453125 2.90625 0.953125q0.953125 0.5 1.484375 1.359375q0.53125 0.859375 0.53125 2.125q0 1.15625 -0.640625 2.15625q-0.640625 1.0 -1.8125 1.484375q-1.15625 0.484375 -2.890625 0.484375q-2.53125 0 -3.890625 -1.171875q-1.359375 -1.171875 -1.625 -3.40625zm11.896698 -5.328125l2.71875 0l2.328125 6.859375l2.25 -6.859375l2.65625 0l-3.421875 9.3125l-0.609375 1.6875019q-0.328125 0.84375 -0.640625 1.28125q-0.3125 0.453125 -0.703125 0.71875q-0.390625 0.28125 -0.96875 0.4375q-0.578125 0.15625 -1.3125 0.15625q-0.734375 0 -1.453125 -0.15625l-0.21875 -2.0q0.59375 0.125 1.078125 0.125q0.890625 0 1.3125 -0.53125q0.4375 -0.515625 0.671875 -1.3281269l-3.6875 -9.703125zm10.688217 6.90625l2.5625 -0.390625q0.171875 0.75 0.671875 1.140625q0.5 0.390625 1.40625 0.390625q0.984375 0 1.484375 -0.375q0.34375 -0.25 0.34375 -0.671875q0 -0.296875 -0.1875 -0.484375q-0.1875 -0.1875 -0.859375 -0.34375q-3.09375 -0.6875 -3.921875 -1.25q-1.140625 -0.78125 -1.140625 -2.171875q0 -1.265625 0.984375 -2.109375q1.0 -0.859375 3.078125 -0.859375q1.984375 0 2.953125 0.65625q0.96875 0.640625 1.328125 1.90625l-2.40625 0.4375q-0.15625 -0.5625 -0.59375 -0.859375q-0.421875 -0.296875 -1.234375 -0.296875q-1.0 0 -1.4375 0.28125q-0.296875 0.203125 -0.296875 0.515625q0 0.265625 0.25 0.46875q0.34375 0.25 2.390625 0.71875q2.046875 0.453125 2.859375 1.140625q0.796875 0.671875 0.796875 1.890625q0 1.34375 -1.109375 2.296875q-1.109375 0.953125 -3.28125 0.953125q-1.984375 0 -3.140625 -0.796875q-1.140625 -0.8125 -1.5 -2.1875zm15.719467 -6.90625l0 2.03125l-1.75 0l0 3.90625q0 1.1875 0.046875 1.390625q0.046875 0.1875 0.21875 0.3125q0.1875 0.125 0.4375 0.125q0.359375 0 1.03125 -0.25l0.21875 2.0q-0.890625 0.375 -2.015625 0.375q-0.703125 0 -1.265625 -0.234375q-0.546875 -0.234375 -0.8125 -0.59375q-0.25 -0.375 -0.34375 -1.0q-0.09375 -0.453125 -0.09375 -1.8125l0 -4.21875l-1.171875 0l0 -2.03125l1.171875 0l0 -1.921875l2.578125 -1.5l0 3.421875l1.75 0zm7.368927 6.59375l2.546875 0.421875q-0.484375 1.40625 -1.546875 2.140625q-1.0625 0.734375 -2.65625 0.734375q-2.515625 0 -3.734375 -1.65625q-0.953125 -1.3125 -0.953125 -3.328125q0 -2.40625 1.25 -3.765625q1.265625 -1.359375 3.1875 -1.359375q2.15625 0 3.40625 1.421875q1.25 1.421875 1.1875 4.375l-6.40625 0q0.03125 1.140625 0.609375 1.78125q0.59375 0.625 1.484375 0.625q0.59375 0 1.0 -0.328125q0.421875 -0.328125 0.625 -1.0625zm0.15625 -2.59375q-0.03125 -1.109375 -0.578125 -1.6875q-0.546875 -0.578125 -1.328125 -0.578125q-0.84375 0 -1.390625 0.609375q-0.546875 0.609375 -0.53125 1.65625l3.828125 0zm4.422592 -4.0l2.359375 0l0 1.3125q1.265625 -1.53125 3.015625 -1.53125q0.9375 0 1.609375 0.390625q0.6875 0.375 1.125 1.140625q0.640625 -0.765625 1.375 -1.140625q0.75 -0.390625 1.578125 -0.390625q1.0625 0 1.796875 0.4375q0.75 0.421875 1.109375 1.265625q0.265625 0.625 0.265625 2.0l0 6.1875l-2.5625 0l0 -5.53125q0 -1.4375 -0.265625 -1.859375q-0.34375 -0.546875 -1.09375 -0.546875q-0.53125 0 -1.015625 0.328125q-0.46875 0.328125 -0.671875 0.96875q-0.203125 0.625 -0.203125 2.0l0 4.640625l-2.5625 0l0 -5.296875q0 -1.421875 -0.140625 -1.828125q-0.140625 -0.40625 -0.421875 -0.609375q-0.28125 -0.203125 -0.78125 -0.203125q-0.59375 0 -1.0625 0.328125q-0.46875 0.3125 -0.6875 0.921875q-0.203125 0.59375 -0.203125 1.984375l0 4.703125l-2.5625 0l0 -9.671875zm16.791534 9.671875l0 -2.5625l2.5625 0l0 2.5625l-2.5625 0zm13.620789 -6.8125l-2.53125 0.453125q-0.125 -0.75 -0.578125 -1.125q-0.453125 -0.390625 -1.171875 -0.390625q-0.953125 0 -1.53125 0.65625q-0.5625 0.65625 -0.5625 2.203125q0 1.734375 0.578125 2.4375q0.578125 0.703125 1.546875 0.703125q0.734375 0 1.203125 -0.40625q0.46875 -0.421875 0.65625 -1.421875l2.515625 0.421875q-0.390625 1.734375 -1.515625 2.625q-1.109375 0.875 -2.96875 0.875q-2.125 0 -3.390625 -1.328125q-1.25 -1.34375 -1.25 -3.71875q0 -2.390625 1.265625 -3.71875q1.265625 -1.34375 3.421875 -1.34375q1.765625 0 2.796875 0.765625q1.046875 0.75 1.515625 2.3125zm8.297607 6.8125l0 -1.453125q-0.53125 0.78125 -1.390625 1.234375q-0.859375 0.4375 -1.8125 0.4375q-0.96875 0 -1.75 -0.421875q-0.765625 -0.4375 -1.125 -1.203125q-0.34375 -0.78125 -0.34375 -2.140625l0 -6.125l2.5625 0l0 4.4375q0 2.046875 0.140625 2.515625q0.140625 0.453125 0.515625 0.71875q0.375 0.265625 0.953125 0.265625q0.65625 0 1.171875 -0.359375q0.515625 -0.359375 0.703125 -0.890625q0.203125 -0.53125 0.203125 -2.609375l0 -4.078125l2.546875 0l0 9.671875l-2.375 0zm7.4897156 0l-2.5625 0l0 -9.671875l2.375 0l0 1.375q0.609375 -0.984375 1.09375 -1.28125q0.484375 -0.3125 1.109375 -0.3125q0.875 0 1.6875 0.484375l-0.796875 2.234375q-0.640625 -0.421875 -1.203125 -0.421875q-0.53125 0 -0.90625 0.296875q-0.375 0.296875 -0.59375 1.078125q-0.203125 0.765625 -0.203125 3.234375l0 2.984375zm7.2602844 0l-2.5625 0l0 -9.671875l2.375 0l0 1.375q0.609375 -0.984375 1.09375 -1.28125q0.484375 -0.3125 1.109375 -0.3125q0.875 0 1.6875 0.484375l-0.796875 2.234375q-0.640625 -0.421875 -1.203125 -0.421875q-0.53125 0 -0.90625 0.296875q-0.375 0.296875 -0.59375 1.078125q-0.203125 0.765625 -0.203125 3.234375l0 2.984375zm10.400879 -3.078125l2.546875 0.421875q-0.484375 1.40625 -1.546875 2.140625q-1.0625 0.734375 -2.65625 0.734375q-2.515625 0 -3.734375 -1.65625q-0.953125 -1.3125 -0.953125 -3.328125q0 -2.40625 1.25 -3.765625q1.265625 -1.359375 3.1875 -1.359375q2.15625 0 3.40625 1.421875q1.25 1.421875 1.1875 4.375l-6.40625 0q0.03125 1.140625 0.609375 1.78125q0.59375 0.625 1.484375 0.625q0.59375 0 1.0 -0.328125q0.421875 -0.328125 0.625 -1.0625zm0.15625 -2.59375q-0.03125 -1.109375 -0.578125 -1.6875q-0.546875 -0.578125 -1.328125 -0.578125q-0.84375 0 -1.390625 0.609375q-0.546875 0.609375 -0.53125 1.65625l3.828125 0zm13.422607 5.671875l-2.5625 0l0 -4.9375q0 -1.5625 -0.171875 -2.015625q-0.15625 -0.46875 -0.53125 -0.71875q-0.359375 -0.265625 -0.875 -0.265625q-0.671875 0 -1.203125 0.375q-0.53125 0.359375 -0.734375 0.96875q-0.1875 0.59375 -0.1875 2.21875l0 4.375l-2.546875 0l0 -9.671875l2.375 0l0 1.421875q1.265625 -1.640625 3.1875 -1.640625q0.84375 0 1.546875 0.3125q0.703125 0.296875 1.0625 0.78125q0.359375 0.46875 0.5 1.078125q0.140625 0.59375 0.140625 1.703125l0 6.015625zm7.0365906 -9.671875l0 2.03125l-1.75 0l0 3.90625q0 1.1875 0.046875 1.390625q0.046875 0.1875 0.21875 0.3125q0.1875 0.125 0.4375 0.125q0.359375 0 1.03125 -0.25l0.21875 2.0q-0.890625 0.375 -2.015625 0.375q-0.703125 0 -1.265625 -0.234375q-0.546875 -0.234375 -0.8125 -0.59375q-0.25 -0.375 -0.34375 -1.0q-0.09375 -0.453125 -0.09375 -1.8125l0 -4.21875l-1.171875 0l0 -2.03125l1.171875 0l0 -1.921875l2.578125 -1.5l0 3.421875l1.75 0zm4.790802 9.671875l0 -11.09375l-3.953125 0l0 -2.265625l10.609375 0l0 2.265625l-3.953125 0l0 11.09375l-2.703125 0zm8.043121 -10.984375l0 -2.375l2.5625 0l0 2.375l-2.5625 0zm0 10.984375l0 -9.671875l2.5625 0l0 9.671875l-2.5625 0zm4.980194 -9.671875l2.359375 0l0 1.3125q1.265625 -1.53125 3.015625 -1.53125q0.9375 0 1.609375 0.390625q0.6875 0.375 1.125 1.140625q0.640625 -0.765625 1.375 -1.140625q0.75 -0.390625 1.578125 -0.390625q1.0625 0 1.796875 0.4375q0.75 0.421875 1.109375 1.265625q0.265625 0.625 0.265625 2.0l0 6.1875l-2.5625 0l0 -5.53125q0 -1.4375 -0.265625 -1.859375q-0.34375 -0.546875 -1.09375 -0.546875q-0.53125 0 -1.015625 0.328125q-0.46875 0.328125 -0.671875 0.96875q-0.203125 0.625 -0.203125 2.0l0 4.640625l-2.5625 0l0 -5.296875q0 -1.421875 -0.140625 -1.828125q-0.140625 -0.40625 -0.421875 -0.609375q-0.28125 -0.203125 -0.78125 -0.203125q-0.59375 0 -1.0625 0.328125q-0.46875 0.3125 -0.6875 0.921875q-0.203125 0.59375 -0.203125 1.984375l0 4.703125l-2.5625 0l0 -9.671875zm22.385254 6.59375l2.5468597 0.421875q-0.48435974 1.40625 -1.5468597 2.140625q-1.0625 0.734375 -2.65625 0.734375q-2.515625 0 -3.734375 -1.65625q-0.953125 -1.3125 -0.953125 -3.328125q0 -2.40625 1.25 -3.765625q1.265625 -1.359375 3.1875 -1.359375q2.15625 0 3.40625 1.421875q1.2499847 1.421875 1.1874847 4.375l-6.4062347 0q0.03125 1.140625 0.609375 1.78125q0.59375 0.625 1.484375 0.625q0.59375 0 1.0 -0.328125q0.421875 -0.328125 0.625 -1.0625zm0.15625 -2.59375q-0.03125 -1.109375 -0.578125 -1.6875q-0.546875 -0.578125 -1.328125 -0.578125q-0.84375 0 -1.390625 0.609375q-0.546875 0.609375 -0.53125 1.65625l3.828125 0zm4.610092 5.671875l0 -13.359375l4.03125 0l2.421875 9.109375l2.390625 -9.109375l4.046875 0l0 13.359375l-2.5 0l0 -10.515625l-2.65625 10.515625l-2.59375 0l-2.640625 -10.515625l0 10.515625l-2.5 0zm15.556427 -10.984375l0 -2.375l2.5625 0l0 2.375l-2.5625 0zm0 10.984375l0 -9.671875l2.5625 0l0 9.671875l-2.5625 0zm5.1832886 0l0 -13.359375l2.5625 0l0 13.359375l-2.5625 0zm5.183319 0l0 -13.359375l2.5625 0l0 13.359375l-2.5625 0zm5.1832886 -10.984375l0 -2.375l2.5625 0l0 2.375l-2.5625 0zm0 10.984375l0 -9.671875l2.5625 0l0 9.671875l-2.5625 0zm4.277069 -2.765625l2.5625 -0.390625q0.171875 0.75 0.671875 1.140625q0.5 0.390625 1.40625 0.390625q0.984375 0 1.484375 -0.375q0.34375 -0.25 0.34375 -0.671875q0 -0.296875 -0.1875 -0.484375q-0.1875 -0.1875 -0.859375 -0.34375q-3.09375 -0.6875 -3.921875 -1.25q-1.140625 -0.78125 -1.140625 -2.171875q0 -1.265625 0.984375 -2.109375q1.0 -0.859375 3.078125 -0.859375q1.984375 0 2.953125 0.65625q0.96875 0.640625 1.328125 1.90625l-2.40625 0.4375q-0.15625 -0.5625 -0.59375 -0.859375q-0.421875 -0.296875 -1.234375 -0.296875q-1.0 0 -1.4375 0.28125q-0.296875 0.203125 -0.296875 0.515625q0 0.265625 0.25 0.46875q0.34375 0.25 2.390625 0.71875q2.046875 0.453125 2.859375 1.140625q0.796875 0.671875 0.796875 1.890625q0 1.34375 -1.109375 2.296875q-1.109375 0.953125 -3.28125 0.953125q-1.984375 0 -3.140625 -0.796875q-1.140625 -0.8125 -1.5 -2.1875zm15.516327 6.687502l-1.75 0q-1.390625 -2.09375 -2.125 -4.359377q-0.734375 -2.28125 -0.734375 -4.40625q0 -2.625 0.90625 -4.96875q0.78125 -2.046875 1.984375 -3.765625l1.75 0q-1.25 2.75 -1.71875 4.6875q-0.46875 1.9375 -0.46875 4.109375q0 1.5 0.28125 3.0625q0.28125 1.5625 0.765625 2.968752q0.3125 0.9375 1.109375 2.671875zm1.259552 0q0.765625 -1.609375 1.0625 -2.484375q0.3125 -0.859375 0.578125 -1.9843769q0.265625 -1.140625 0.390625 -2.15625q0.125 -1.015625 0.125 -2.078125q0 -2.171875 -0.46875 -4.109375q-0.453125 -1.9375 -1.703125 -4.6875l1.734375 0q1.375 1.953125 2.140625 4.15625q0.765625 2.1875 0.765625 4.453125q0 1.90625 -0.609375 4.078125q-0.671875 2.437502 -2.25 4.812502l-1.765625 0z" fill-rule="nonzero"/><path fill="#d9ead3" d="m3.047244 128.93451l0 0c0 -3.3485718 2.714548 -6.063118 6.063113 -6.063118l376.56668 0c1.6080627 0 3.150238 0.63879395 4.2872925 1.7758484c1.1370544 1.1370468 1.7758179 2.6792297 1.7758179 4.2872696l0 24.251724c0 3.3485565 -2.7145386 6.0631104 -6.0631104 6.0631104l-376.56668 0l0 0c-3.348565 0 -6.063113 -2.7145538 -6.063113 -6.0631104z" fill-rule="evenodd"/><path stroke="#000000" stroke-width="1.0" stroke-linejoin="round" stroke-linecap="butt" d="m3.047244 128.93451l0 0c0 -3.3485718 2.714548 -6.063118 6.063113 -6.063118l376.56668 0c1.6080627 0 3.150238 0.63879395 4.2872925 1.7758484c1.1370544 1.1370468 1.7758179 2.6792297 1.7758179 4.2872696l0 24.251724c0 3.3485565 -2.7145386 6.0631104 -6.0631104 6.0631104l-376.56668 0l0 0c-3.348565 0 -6.063113 -2.7145538 -6.063113 -6.0631104z" fill-rule="evenodd"/><path fill="#000000" d="m174.13683 143.07411l2.609375 0.828125q-0.59375 2.1875 -2.0 3.25q-1.390625 1.0625 -3.546875 1.0625q-2.65625 0 -4.375 -1.8125q-1.703125 -1.828125 -1.703125 -4.984375q0 -3.328125 1.71875 -5.171875q1.71875 -1.84375 4.515625 -1.84375q2.453125 0 3.984375 1.4375q0.921875 0.859375 1.375 2.46875l-2.671875 0.640625q-0.234375 -1.046875 -0.984375 -1.640625q-0.75 -0.609375 -1.828125 -0.609375q-1.484375 0 -2.421875 1.078125q-0.921875 1.0625 -0.921875 3.4375q0 2.53125 0.90625 3.609375q0.921875 1.078125 2.375 1.078125q1.078125 0 1.84375 -0.671875q0.78125 -0.6875 1.125 -2.15625zm5.004196 4.90625l0 -13.25l2.6875 0l0 11.0l6.703125 0l0 2.25l-9.390625 0zm10.770981 -6.59375q0 -2.046875 0.609375 -3.421875q0.453125 -1.03125 1.234375 -1.828125q0.796875 -0.8125 1.734375 -1.203125q1.25 -0.53125 2.875 -0.53125q2.953125 0 4.71875 1.828125q1.78125 1.828125 1.78125 5.09375q0 3.234375 -1.765625 5.0625q-1.75 1.828125 -4.6875 1.828125q-2.984375 0 -4.75 -1.8125q-1.75 -1.828125 -1.75 -5.015625zm2.78125 -0.09375q0 2.265625 1.046875 3.4375q1.046875 1.171875 2.65625 1.171875q1.609375 0 2.640625 -1.15625q1.046875 -1.171875 1.046875 -3.484375q0 -2.296875 -1.015625 -3.421875q-1.0 -1.140625 -2.671875 -1.140625q-1.671875 0 -2.6875 1.15625q-1.015625 1.140625 -1.015625 3.4375zm20.823929 1.78125l2.609375 0.828125q-0.59375 2.1875 -2.0 3.25q-1.390625 1.0625 -3.546875 1.0625q-2.65625 0 -4.375 -1.8125q-1.703125 -1.828125 -1.703125 -4.984375q0 -3.328125 1.71875 -5.171875q1.71875 -1.84375 4.515625 -1.84375q2.453125 0 3.984375 1.4375q0.921875 0.859375 1.375 2.46875l-2.671875 0.640625q-0.234375 -1.046875 -0.984375 -1.640625q-0.75 -0.609375 -1.828125 -0.609375q-1.484375 0 -2.421875 1.078125q-0.921875 1.0625 -0.921875 3.4375q0 2.53125 0.90625 3.609375q0.921875 1.078125 2.375 1.078125q1.078125 0 1.84375 -0.671875q0.78125 -0.6875 1.125 -2.15625zm4.957321 4.90625l0 -13.359375l2.703125 0l0 5.9375l5.4375 -5.9375l3.625 0l-5.015625 5.203125l5.296875 8.15625l-3.484375 0l-3.671875 -6.265625l-2.1875 2.234375l0 4.03125l-2.703125 0z" fill-rule="nonzero"/><path fill="#000000" fill-opacity="0.0" d="m391.74277 -2.671916l198.26773 0l0 54.929134l-198.26773 0z" fill-rule="evenodd"/><path fill="#000000" d="m427.08652 32.659958l-24.734375 0l0 -2.53125l14.765625 0l0.34375 -10.765625l-11.21875 0l0 -2.515625l13.96875 0l-0.34375 13.28125l7.21875 0l0 2.53125zm3.213745 -7.5625l0 -2.53125l25.546875 0l0 2.53125l-25.546875 0zm47.54187 -5.84375l6.765625 0l0 2.515625l-6.65625 0l0 2.171875q0 8.59375 -9.046875 12.265625l-1.828125 -2.0625q8.25 -2.75 8.25 -9.96875l0 -2.40625l-7.5625 0l0.109375 5.84375l-2.515625 0l-0.109375 -5.84375l-6.421875 0l0 -2.515625l6.421875 0l-0.125 -6.078124l2.40625 0q1.15625 0.125 0.125 1.15625l0.109375 4.921874l7.4375 0l0 -6.984374l2.53125 0q1.140625 0.109375 0.109375 1.140625l0 5.843749zm2.0625 -7.562499q1.828125 1.609375 3.671875 3.78125l-1.5 1.265624q-1.828125 -2.296874 -3.4375 -3.671874l1.265625 -1.375zm2.171875 -1.953125q1.953125 1.609375 3.671875 3.78125l-1.484375 1.265625q-1.71875 -2.296875 -3.4375 -3.671875l1.25 -1.375zm22.0 9.968749l-15.921875 0l0 -2.515625l18.5625 0l0 16.375l-2.640625 0l0 -1.25l-15.921875 0l0 -2.53125l15.921875 0l0 -10.078125zm7.1052246 5.390625l0 -2.53125l25.546906 0l0 2.53125l-25.546906 0zm42.838776 2.625q-6.0625 -3.09375 -9.953125 -4.125l0 11.921875l-2.640625 0l0 -22.90625l2.296875 0q1.375 0.109375 0.34375 0.90625l0 7.218749q5.609375 1.609375 11.328125 4.359375l-1.375 2.625zm-0.21875 -10.078125q-1.953125 -2.406249 -3.890625 -3.890624l1.484375 -1.140625q1.9375 1.484375 3.890625 3.890624l-1.484375 1.140625zm2.75 -2.171874q-1.5 -1.953125 -3.78125 -3.78125l1.484375 -1.140625q1.953125 1.375 3.78125 3.78125l-1.484375 1.140625z" fill-rule="nonzero"/><path fill="#000000" fill-opacity="0.0" d="m391.74277 113.5958l198.26773 0l0 54.92913l-198.26773 0z" fill-rule="evenodd"/><path fill="#000000" d="m425.49277 149.14642q-2.875 -9.046875 -7.453125 -14.421875l2.40625 -1.84375q5.734375 7.21875 8.140625 15.234375l-3.09375 1.03125zm-13.75 -13.625q0.921875 0.5625 -0.234375 1.03125q-2.0625 7.21875 -6.640625 13.171875l-2.640625 -1.71875q5.046875 -6.078125 6.765625 -13.75l2.75 1.265625zm19.703125 5.84375l0 -2.53125l25.546875 0l0 2.53125l-25.546875 0zm42.838745 2.625q-6.0625 -3.09375 -9.953125 -4.125l0 11.921875l-2.640625 0l0 -22.90625l2.296875 0q1.375 0.109375 0.34375 0.90625l0 7.21875q5.609375 1.609375 11.328125 4.359375l-1.375 2.625zm-0.21875 -10.078125q-1.953125 -2.40625 -3.890625 -3.890625l1.484375 -1.140625q1.9375 1.484375 3.890625 3.890625l-1.484375 1.140625zm2.75 -2.171875q-1.5 -1.953125 -3.78125 -3.78125l1.484375 -1.140625q1.953125 1.375 3.78125 3.78125l-1.484375 1.140625zm26.689026 2.859375q0 12.484375 -12.03125 18.453125l-2.171875 -2.1875q11.109375 -5.03125 11.21875 -15.109375l-15.921875 0l0.234375 6.75l-2.640625 0l-0.34375 -9.28125l9.0625 0l0 -5.71875l2.28125 0q1.375 0.109375 0.34375 0.90625l0 4.8125l8.59375 0l1.375 1.375zm14.781586 3.78125l0 9.046875l8.359375 0l0 2.1875l-18.671906 0l0 -2.1875l8.0156555 0l0 -9.046875l-6.4062805 0l0 -2.171875l15.1094055 0l0 2.171875l-6.40625 0zm24.063843 0.6875q0.21875 8.703125 -7.453125 13.515625l-1.953125 -2.171875q6.765625 -3.671875 6.765625 -10.3125l0 -4.921875l2.40625 0q1.03125 0.109375 0.234375 0.796875l0 2.984375q4.109375 -3.09375 6.296875 -6.078125l-18.671875 0.6875l-0.234375 -2.625l20.84375 -0.578125l0.8125 -0.234375l1.71875 2.0625q0.34375 0.46875 -0.578125 0.34375q-3.4375 4.46875 -8.25 8.359375l-1.9375 -1.828125z" fill-rule="nonzero"/><path fill="#000000" fill-opacity="0.0" d="m106.94226 42.278126c0.7758789 11.440369 -1.0873489 57.294422 4.655304 68.64221c5.742653 11.347794 24.325195 10.721199 29.800613 -0.5554657c5.4754333 -11.276672 2.5432892 -55.92045 3.051941 -67.10454" fill-rule="evenodd"/><path stroke="#000000" stroke-width="4.0" stroke-linejoin="round" stroke-linecap="butt" d="m106.94226 42.278126c0.77588654 11.440369 -1.0873489 57.294422 4.655304 68.64221c5.7426605 11.347794 24.325195 10.721207 29.800613 -0.5554657c2.7377167 -5.6383286 3.3735352 -19.618446 3.3885193 -33.586983c0.0037384033 -3.492134 -0.031326294 -6.983551 -0.08204651 -10.3437195c-0.025360107 -1.6800766 -0.054641724 -3.3273544 -0.08493042 -4.925499l-0.08929443 -4.540226" fill-rule="evenodd"/><path fill="#000000" stroke="#000000" stroke-width="4.0" stroke-linecap="butt" d="m144.53043 56.96844l4.5246124 4.4719048l-4.5706635 -12.332508l-4.4258575 12.385212z" fill-rule="evenodd"/><path fill="#000000" fill-opacity="0.0" d="m144.7874 61.95669l402.3307 0l0 51.212597l-402.3307 0z" fill-rule="evenodd"/><path fill="#000000" d="m161.69365 96.04107q-3.21875 0 -4.46875 -1.25q-1.25 -1.25 -1.25 -3.34375q0 -1.140625 0.421875 -2.703125l2.390625 0.3125q-0.515625 1.671875 -0.515625 2.390625q0 0.9375 0.625 1.5625q0.71875 0.734375 2.90625 0.734375l11.359375 0l0 2.296875l-11.46875 0zm-4.15625 -17.609375l13.53125 0l0 2.296875l-13.53125 0l0 -2.296875zm31.8667 3.4375q-1.78125 10.421875 -4.28125 12.921875q-1.34375 1.34375 -2.8125 1.34375q-1.65625 0 -2.59375 -0.9375q-2.5 -2.5 -2.5 -6.234375q0 -4.59375 3.234375 -7.8125q3.53125 -3.546875 8.640625 -3.546875q4.578125 0 7.171875 2.609375q2.921875 2.90625 2.921875 6.875q0 4.265625 -2.703125 6.96875q-1.765625 1.765625 -5.421875 3.4375l-2.1875 -2.1875q3.65625 -1.140625 5.734375 -3.234375q1.96875 -1.96875 1.96875 -4.78125q0 -3.328125 -2.171875 -5.515625q-2.1875 -2.1875 -6.875 -1.984375l1.875 0.9375q1.25 0.515625 0 1.140625zm-2.40625 -1.96875q-2.703125 0.625 -4.6875 2.59375q-2.703125 2.71875 -2.703125 6.671875q0 2.390625 1.5625 3.953125q0.3125 0.3125 0.9375 0.3125q0.625 0 1.359375 -0.734375q2.390625 -2.390625 3.53125 -12.796875zm25.625 1.140625l0 5.515625q0 5.203125 -2.09375 8.015625l-1.65625 -1.34375q1.65625 -2.609375 1.65625 -6.140625l0 -11.25l14.890625 0l0 5.203125l-12.796875 0zm3.75 3.125q-0.3125 -0.828125 -0.9375 -1.875l1.765625 -0.734375q1.046875 1.671875 1.359375 2.609375l1.34375 0l1.46875 -2.921875l1.96875 0.625q0.421875 0.421875 -0.3125 0.53125l-1.046875 1.765625l3.65625 0l0 1.671875l-5.3125 0l0 1.65625l4.578125 0l0 1.671875l-4.578125 0l0 1.765625l6.03125 0l0 1.671875l-6.03125 0l0 3.015625l-1.765625 0l0 -3.015625l-5.84375 0l0 -1.671875l5.84375 0l0 -1.765625l-4.28125 0l0 -1.671875l4.28125 0l0 -1.65625l-5.21875 0l0 -1.671875l3.03125 0zm10.828125 12.1875l-0.625 1.96875l-12.078125 0q-4.0625 0 -6.875 -2.8125l-3.125 3.125l-1.140625 -2.703125l2.90625 -1.875l0 -6.453125l-3.015625 0l0 -1.984375l5.109375 0l0 8.125q1.96875 2.609375 7.59375 2.609375l11.25 0zm-14.578125 -18.859375l0 1.875l10.71875 0l0 -1.875l-10.71875 0zm-6.765625 -1.453125q2.28125 1.25 3.421875 2.8125l-1.765625 1.765625q-1.34375 -1.453125 -3.21875 -2.8125l1.5625 -1.765625zm46.328125 1.5625q0.421875 0.515625 -0.734375 0.3125q-2.078125 0.421875 -3.734375 0.625l0 4.796875l4.671875 0l0 1.96875l-4.671875 0l0 5.9375l5.296875 0l0 1.984375l-14.46875 0l0 -1.984375l2.5 0l0 -9.375l1.984375 0q0.828125 0.109375 0.09375 0.625l0 8.75l2.5 0l0 -12.5q-3.21875 0.3125 -5.9375 0.21875l-0.515625 -1.984375q6.140625 0.109375 11.65625 -1.5625l1.359375 2.1875zm-21.859375 18.953125q2.59375 -1.453125 3.640625 -2.703125q-1.359375 -2.296875 -2.390625 -5.203125l1.96875 -0.625q0.84375 2.390625 1.5625 3.953125q0.828125 -3.328125 1.140625 -6.5625l-2.59375 0q-0.515625 0.734375 -1.140625 1.5625l-1.875 -1.25q3.125 -4.375 4.890625 -7.703125l-5.3125 0l0 -1.984375l6.03125 0l0.53125 -0.515625l1.875 1.453125l-0.421875 0.3125q-1.765625 3.125 -3.53125 6.140625l3.640625 0q-0.3125 6.5625 -1.78125 10.515625q2.1875 1.671875 5.9375 1.671875l11.25 0l-0.421875 2.296875l-10.71875 0q-4.484375 0 -7.296875 -2.40625q-1.34375 1.671875 -3.84375 3.03125l-1.140625 -1.984375zm43.82814 -16.65625q4.265625 4.375 5.828125 10.515625l-2.28125 0.9375q-1.875 -6.765625 -5.421875 -10.109375l1.875 -1.34375zm-3.125 8.328125q0 6.03125 -1.765625 7.8125q-1.046875 1.03125 -2.390625 1.03125q-1.984375 0 -3.96875 -2.28125l1.359375 -1.875q1.671875 1.65625 2.5 1.65625q0.515625 0 0.9375 -0.40625q1.140625 -1.15625 1.140625 -6.359375q0 -2.90625 -0.625 -3.53125q-0.3125 -0.3125 -1.25 -0.3125q-0.9375 0 -2.59375 0.203125q-2.1875 7.703125 -5.203125 13.21875l-2.40625 -0.828125q3.03125 -4.6875 5.3125 -12.1875q-2.28125 0.3125 -4.46875 0.53125l-0.21875 -2.296875q1.875 0 5.203125 -0.3125q0.9375 -3.234375 1.5625 -6.5625l2.1875 0.734375q1.25 0.515625 -0.09375 0.9375q-0.625 2.1875 -1.25 4.6875q1.25 -0.21875 2.59375 -0.21875q1.46875 0 2.1875 0.734375q1.25 1.25 1.25 5.625zm5.828125 -13.75q1.875 1.046875 4.171875 2.921875l-1.25 1.25q-2.296875 -1.78125 -4.171875 -2.921875l1.25 -1.25zm0.734375 6.671875q-2.390625 -1.984375 -4.0625 -3.03125l1.25 -1.25q1.875 1.046875 4.171875 2.921875l-1.359375 1.359375zm27.59375 6.453125q-3.125 -4.171875 -6.03125 -6.5625l1.453125 -1.5625q3.640625 2.078125 6.5625 6.25l-1.984375 1.875zm-20.296875 8.75q11.453125 -0.109375 16.859375 -9.6875l1.875 1.765625q0.734375 0.734375 -0.515625 0.734375q-6.359375 9.375 -17.28125 9.6875l-0.9375 -2.5zm-1.5625 -8.234375q3.125 -2.703125 5.09375 -8.4375l2.390625 1.046875q0.421875 0.421875 -0.3125 0.515625q-1.65625 5.625 -5.40625 8.953125l-1.765625 -2.078125zm12.796875 2.609375q0 1.34375 -1.453125 1.34375l-3.015625 0l-0.3125 -2.28125l1.96875 0q0.421875 0 0.421875 -0.421875l0 -13.84375l2.296875 0q1.03125 0.203125 0.09375 0.828125l0 14.375zm29.15625 -5.9375q1.15625 0.203125 0.21875 0.828125l0 6.046875q2.59375 0.828125 5.40625 2.28125l-1.25 1.984375q-2.28125 -1.359375 -4.15625 -1.984375q-0.3125 2.1875 -1.359375 3.234375q-1.25 1.25 -3.4375 1.25q-2.921875 0 -4.0625 -1.140625q-1.046875 -1.046875 -1.046875 -2.71875q0 -1.34375 1.046875 -2.390625q1.359375 -1.359375 3.953125 -1.359375q1.78125 0 2.8125 0.3125l0 -6.34375l1.875 0zm-11.140625 -2.5q-1.65625 0.203125 -4.15625 0.203125l-0.3125 -2.1875q2.59375 0 5.203125 -0.203125q0.515625 -1.875 1.25 -5.0l1.875 0.625q1.03125 0.421875 0 0.828125l-0.9375 3.34375q1.765625 -0.21875 3.640625 -0.734375l0.515625 2.1875q-2.90625 0.625 -4.78125 0.734375q-1.671875 5.3125 -4.890625 11.546875l-2.09375 -1.03125q3.234375 -5.734375 4.6875 -10.3125zm10.0 -3.125q2.921875 0.9375 6.96875 2.5l-0.9375 2.1875q-4.359375 -1.875 -6.859375 -2.609375l0.828125 -2.078125zm-0.734375 13.953125q-1.25 -0.421875 -2.8125 -0.421875q-1.65625 0 -2.28125 0.625q-0.53125 0.53125 -0.53125 1.25q0 0.734375 0.421875 1.15625q0.625 0.625 2.1875 0.625q1.453125 0 2.078125 -0.625q0.9375 -0.9375 0.9375 -2.609375zm20.6156 -1.765625q-0.9375 2.390625 -1.96875 3.640625q-1.46875 1.765625 -2.921875 1.765625q-2.59375 0 -3.84375 -3.015625q-0.734375 -1.765625 -0.734375 -7.59375q0 -4.171875 0.421875 -8.4375l2.1875 0.515625q1.25 0.3125 0.09375 1.046875q-0.40625 3.84375 -0.40625 6.96875q0 4.265625 0.515625 6.046875q0.515625 1.765625 1.5625 1.765625q1.140625 0 1.96875 -1.671875q0.53125 -1.03125 1.046875 -2.5l2.078125 1.46875zm6.15625 -12.1875q4.671875 4.890625 5.71875 11.875l-2.8125 0.71875q-1.25 -7.28125 -5.09375 -11.34375l2.1875 -1.25zm26.339111 6.671875q0.203125 2.59375 0.109375 5.296875q3.21875 1.46875 5.921875 3.234375l-1.25 1.984375q-3.640625 -2.40625 -4.78125 -2.921875q0 1.984375 -0.9375 2.921875q-1.359375 1.34375 -3.859375 1.34375q-2.5 0 -3.640625 -1.140625q-1.046875 -1.046875 -1.046875 -2.609375q0 -1.453125 1.15625 -2.59375q1.140625 -1.15625 3.4375 -1.15625q1.65625 0 2.8125 0.3125q0.09375 -2.28125 -0.109375 -4.578125l-7.5 0.3125l0 -2.1875l7.390625 -0.3125q-0.09375 -2.078125 -0.3125 -3.84375l-6.65625 0.3125l0 -2.1875l13.53125 -0.625l0 2.1875l-4.6875 0.203125q0.21875 1.671875 0.3125 3.859375l5.515625 -0.3125l0 2.1875l-5.40625 0.3125zm-2.1875 6.765625q-1.140625 -0.53125 -2.703125 -0.53125q-1.46875 0 -1.984375 0.53125q-0.625 0.625 -0.625 1.34375q0 0.734375 0.421875 1.15625q0.625 0.625 1.96875 0.625q1.5625 0 2.296875 -0.734375q0.734375 -0.734375 0.625 -2.390625zm-10.3125 -14.6875q-1.25 4.578125 -1.25 11.875q0 3.953125 0.625 6.96875l-2.390625 0.421875q-0.421875 -2.921875 -0.421875 -7.1875q0 -6.875 1.046875 -13.4375l2.296875 0.53125q1.234375 0.3125 0.09375 0.828125zm25.71875 18.640625q4.265625 -0.9375 6.671875 -3.328125q1.96875 -1.984375 1.96875 -4.6875q0 -1.875 -1.03125 -2.921875q-0.9375 -0.9375 -2.40625 -0.828125q-2.90625 0.3125 -8.328125 2.078125l-1.140625 -2.703125q3.953125 -0.734375 7.390625 -1.5625q1.765625 -0.421875 2.703125 -0.421875q2.296875 0 3.75 1.46875q1.671875 1.65625 1.671875 4.78125q0 4.0625 -2.8125 6.875q-2.5 2.5 -6.765625 3.640625l-1.671875 -2.390625zm8.640625 -17.078125q-4.15625 -0.421875 -10.09375 -1.671875l0.625 -2.59375q5.828125 1.34375 10.0 1.765625l-0.53125 2.5zm23.846802 0.421875q4.265625 4.375 5.828125 10.515625l-2.28125 0.9375q-1.875 -6.765625 -5.421875 -10.109375l1.875 -1.34375zm-3.125 8.328125q0 6.03125 -1.765625 7.8125q-1.046875 1.03125 -2.390625 1.03125q-1.984375 0 -3.96875 -2.28125l1.359375 -1.875q1.671875 1.65625 2.5 1.65625q0.515625 0 0.9375 -0.40625q1.140625 -1.15625 1.140625 -6.359375q0 -2.90625 -0.625 -3.53125q-0.3125 -0.3125 -1.25 -0.3125q-0.9375 0 -2.59375 0.203125q-2.1875 7.703125 -5.203125 13.21875l-2.40625 -0.828125q3.03125 -4.6875 5.3125 -12.1875q-2.28125 0.3125 -4.46875 0.53125l-0.21875 -2.296875q1.875 0 5.203125 -0.3125q0.9375 -3.234375 1.5625 -6.5625l2.1875 0.734375q1.25 0.515625 -0.09375 0.9375q-0.625 2.1875 -1.25 4.6875q1.25 -0.21875 2.59375 -0.21875q1.46875 0 2.1875 0.734375q1.25 1.25 1.25 5.625zm5.828125 -13.75q1.875 1.046875 4.171875 2.921875l-1.25 1.25q-2.296875 -1.78125 -4.171875 -2.921875l1.25 -1.25zm0.734375 6.671875q-2.390625 -1.984375 -4.0625 -3.03125l1.25 -1.25q1.875 1.046875 4.171875 2.921875l-1.359375 1.359375zm6.765625 -3.859375l20.9375 0l0 1.984375l-8.640625 0l0 6.453125l6.765625 0l0 1.984375l-6.765625 0l0 7.390625l9.359375 0l0 1.96875l-22.375 0l0 -1.96875l3.84375 0l0 -11.671875l2.296875 0q0.828125 0.109375 0.09375 0.625l0 11.046875l4.375 0l0 -15.828125l-9.890625 0l0 -1.984375zm43.53125 6.25l4.890625 0l0 1.671875l-4.375 0l0 2.390625l3.546875 0l0 1.671875l-3.546875 0l0 2.484375l3.546875 0l0 1.671875l-3.546875 0l0 2.609375l5.203125 0l0 1.65625l-10.515625 0l0 1.046875l-1.765625 0l0 -11.5625q-0.828125 1.15625 -2.078125 2.09375l-0.734375 -1.984375q3.953125 -3.546875 5.109375 -7.390625l-2.40625 0l0 2.390625l-1.765625 0l0 -4.0625l4.578125 0q0.421875 -1.671875 0.734375 -3.53125l2.078125 0.515625q0.3125 0.3125 -0.203125 0.625q-0.3125 1.25 -0.625 2.390625l7.390625 0l0 3.640625l-1.765625 0l0 -1.96875l-6.046875 0q-0.625 2.1875 -1.65625 3.640625l2.1875 0l1.34375 -3.125l1.984375 0.421875q0.515625 0.203125 -0.21875 0.515625l-1.34375 2.1875zm-17.59375 -4.796875l0 -1.96875l8.84375 0l0 1.96875l-3.640625 0q-0.21875 3.234375 -1.359375 5.9375l4.0625 0l0 12.390625l-1.765625 0l0 -1.65625l-2.703125 0l0 2.703125l-1.78125 0l0 -9.375q-0.625 1.046875 -1.34375 1.875l-1.359375 -1.765625q3.640625 -4.0625 4.265625 -10.109375l-3.21875 0zm12.796875 10.53125l0 2.484375l3.546875 0l0 -2.484375l-3.546875 0zm0 -4.0625l0 2.390625l3.546875 0l0 -2.390625l-3.546875 0zm0 8.21875l0 2.609375l3.546875 0l0 -2.609375l-3.546875 0zm-9.359375 -7.078125l0 7.390625l2.703125 0l0 -7.390625l-2.703125 0z" fill-rule="nonzero"/></g></svg>